<svg id="Warstwa_1" data-name="Warstwa 1" xmlns="http://www.w3.org/2000/svg" viewBox="0 0 649.3 773.95">
  <g>
    <g id="Warstwa_1-2" data-name="Warstwa 1-2">
      <path d="M505.2,113.86c-17.22-.74-35.14.37-50.85,8-8,3.9-15,9.5-21.94,15.09s-13.47,10.84-19.73,16.83a110.4,110.4,0,0,0-16.95,19.91c-5.14,7.93-9.27,16.5-13.59,24.88l-27.37,52.94c-8.84,17.09-18,34.06-25.63,51.75-.91,2.1-1.8,4.22-2.65,6.36s2.55,3,3.38.93c7-17.45,15.95-34.08,24.6-50.79l26.8-51.89c4.34-8.4,8.53-16.91,13.15-25.17a103.92,103.92,0,0,1,15.47-21.2,206.55,206.55,0,0,1,19-17.22c6.75-5.52,13.44-11.23,20.86-15.86,16.58-10.35,36.31-11.92,55.45-11.1,2.26.1,2.25-3.41,0-3.52Z" transform="translate(-175.37 -113.08)" fill="blue" stroke="blue" stroke-miterlimit="10"/>
      <path d="M327.19,308.46c-5.86,6.88-12,13.58-18.14,20.23-5.79,6.27-11.72,12.43-18.05,18.16a135.05,135.05,0,0,1-20.3,15.4c-3.73,2.27-7.69,4.13-11.34,6.49a53.9,53.9,0,0,0-9.9,8.94c-6.48,6.89-12.79,14.05-16.22,23-.81,2.12,2.59,3,3.38.94,3-7.86,8.64-14.32,14.29-20.4,3-3.19,5.86-6.58,9.55-9s7.63-4.29,11.36-6.54c14.32-8.63,26.44-20.34,37.77-32.45,6.8-7.3,13.54-14.7,20-22.26,1.46-1.71-1-4.2-2.49-2.48Z" transform="translate(-175.37 -113.08)" fill="blue" stroke="blue" stroke-miterlimit="10"/>
      <path d="M504.63,117c16.29,2.22,33.35,4.68,48,12.72a56.93,56.93,0,0,1,19,17.19,286.72,286.72,0,0,1,16,24.93,110,110,0,0,1,11.13,28,216.56,216.56,0,0,1,4.94,30.9c2,20.72,1.61,41.56.83,62.33s-2,41.76-1.79,62.66c0,2.64.07,5.3.14,7.95a1.76,1.76,0,0,0,3.51.27,1.22,1.22,0,0,0,0-.27c-.57-21.27.52-42.53,1.39-63.78s1.5-42.57-.12-63.8c-1.56-20.54-4.69-41.74-14-60.34-4.56-9.1-10.23-17.57-15.86-26-5.12-7.69-10.7-14.7-18.38-19.91-13.94-9.55-31.15-12.89-47.56-15.3l-6.2-.92a1.84,1.84,0,0,0-2.17,1.17,1.74,1.74,0,0,0,1.17,2.15Z" transform="translate(-175.37 -113.08)" fill="blue" stroke="blue" stroke-miterlimit="10"/>
      <path d="M602.57,361.58c0,8.58-2.34,16.74-5.07,24.8-2.53,7.36-5.35,14.68-6.33,22.46a54.7,54.7,0,0,0,4,27.86c1.91,4.49,4.16,8.81,6.17,13.25s4,9.08,5.63,13.74a102.49,102.49,0,0,1,6.52,32,1.76,1.76,0,1,0,3.52,0c-.46-19.64-7.93-37.9-16.31-55.35a60.33,60.33,0,0,1-5.2-14.06,55.6,55.6,0,0,1-1-14.45c.43-7.74,3.21-15.14,5.74-22.39,3.15-9,5.86-18.16,5.93-27.8a1.76,1.76,0,0,0-3.52,0h0Z" transform="translate(-175.37 -113.08)" fill="blue" stroke="blue" stroke-miterlimit="10"/>
      <path d="M614.1,493.64c2.35,7.56-1.57,15.23-3.9,22.26a98.84,98.84,0,0,0-4.25,23c-.34,4-.53,8.06-.69,12.1a102.28,102.28,0,0,0-.12,12.13,30.68,30.68,0,0,0,2.91,11,102.61,102.61,0,0,0,5.69,10c15.86,25.93,37,52.25,36.85,84.22-.07,13.56-4.92,30.82-19.2,35.75-2.13.74-1.17,4.14.94,3.4,12.52-4.33,19.22-17.39,21.08-29.82,2.35-15.55-1.31-31.18-7.41-45.47-6.3-14.76-15.38-28.12-24-41.57-2.19-3.44-4.36-6.88-6.46-10.37A57,57,0,0,1,610,569.69a34.08,34.08,0,0,1-1.43-12c.08-4.13.28-8.27.49-12.39.5-9.15,1.44-18.33,4.15-27.13,2.53-8.2,7-16.68,4.32-25.42-.66-2.15-4.06-1.24-3.39.93Z" transform="translate(-175.37 -113.08)" fill="blue" stroke="blue" stroke-miterlimit="10"/>
      <path d="M502.64,558.86c.69-1.64,1.26-3.3,1.85-5a106.71,106.71,0,0,1,3.2-15.53c4.32-15.85,9.23-31.48,11.47-47.82a141.09,141.09,0,0,0,1.32-24.13,240.93,240.93,0,0,0-2.34-24.12c-2.61-18.05-6.13-36.16-5.36-54.5.09-2.26-3.42-2.25-3.52,0h0c-.69,16.4,2.06,32.66,4.51,48.82,2.48,16.4,4.32,32.73,2.52,49.28s-6.61,32.8-11.16,48.85c-2.23,7.87-4.21,15.92-4.47,24.14v3.92A35.83,35.83,0,0,0,502.64,558.86Z" transform="translate(-175.37 -113.08)" fill="blue" stroke="blue" stroke-miterlimit="10"/>
      <path d="M522.41,627.31c-4.1-5-6.49-11.16-8.2-17.36-2.06-7.44-3.51-15.08-5.06-22.62q-1.32-6.23-2.65-12.45c-.2-.82-.36-1.64-.52-2.46A23.46,23.46,0,0,1,504.1,574a3.76,3.76,0,0,1-1.26.64c.6,3.05,1.31,6.07,2,9.09,1.86,8.74,3.52,17.57,5.79,26.23,2,7.6,5,15,10.29,21a1.69,1.69,0,0,0,2.35.08,1.77,1.77,0,0,0,.5-.93A26.76,26.76,0,0,1,522.41,627.31Z" transform="translate(-175.37 -113.08)" fill="blue" stroke="blue" stroke-miterlimit="10"/>
      <path d="M525,632.2a24.59,24.59,0,0,1-2.13-3.73c-1.65,0-2.75,2.41-1,3.18,1.37.6,2.72,1.23,4.07,1.85A5.8,5.8,0,0,0,525,632.2Z" transform="translate(-175.37 -113.08)" fill="blue" stroke="blue" stroke-miterlimit="10"/>
      <path d="M564.69,650.94c-9.56-5.7-19-11.6-28.89-16.78v.07a11.71,11.71,0,0,0,.38,1.28c.6,1.32,1.39,2.54,2.07,3.81l.1.21c8.31,4.6,16.4,9.59,24.59,14.46a1.76,1.76,0,0,0,2.21-2.74,1.65,1.65,0,0,0-.44-.26h0Z" transform="translate(-175.37 -113.08)" fill="blue" stroke="blue" stroke-miterlimit="10"/>
      <path d="M568,654.66a7.77,7.77,0,0,0-1.44-4.42c-1-1.6-2-3.17-3.06-4.68-2-3.07-4.15-6.06-6.36-9-4.23-5.65-8.91-10.89-13.44-16.29a40.57,40.57,0,0,1-5.94-9,47.08,47.08,0,0,1-3.2-9.74c-.79-3.35-1.36-6.74-1.93-10.14a36.87,36.87,0,0,1-.69-11.57c.9-6.58,4.81-12.25,8.32-17.7a111.66,111.66,0,0,0,9.59-18.36,177.37,177.37,0,0,0,6.51-20.12c1.88-7,3.83-14.21,5.15-21.41a45.14,45.14,0,0,0,.75-12A99.26,99.26,0,0,0,560,477.65c-1.9-8.48-4.21-16.86-6.87-25.15-.69-2.14-4.08-1.23-3.38.94q3.51,11.07,6.23,22.39c1.69,7.24,3.44,14.54,2.6,22-.82,7.15-3,14.26-4.68,21.23a207.85,207.85,0,0,1-6.25,20.55,100.91,100.91,0,0,1-9.12,18.68c-3.52,5.53-7.43,11-9.29,17.33-2,7-.48,14.24.81,21.23,1.17,6.66,2.84,13.39,6.35,19.26a62.74,62.74,0,0,0,7.18,9.37c2.57,2.94,5.11,5.86,7.54,9s5,6.6,7.39,10c1.17,1.62,2.21,3.26,3.29,4.91s2.78,3.52,2.7,5.37c-.1,2.26,3.42,2.25,3.51,0Z" transform="translate(-175.37 -113.08)" fill="blue" stroke="blue" stroke-miterlimit="10"/>
      <path d="M583.49,580.32a60.87,60.87,0,0,1-1.29-17.65,108.08,108.08,0,0,1,3.26-17.57c2.61-10.46,5.69-20.93,5.52-31.81-.17-10.34-3.17-21.09-11.18-28-1.7-1.47-4.19,1-2.48,2.49,6.93,6,9.71,15.08,10.09,24,.47,10.55-2.34,20.7-4.95,30.83-2.85,11.2-5,22.35-3.22,34s6.3,22.26,10.1,33.23c3.4,9.82,6.33,20.3,5.72,30.73a119.23,119.23,0,0,0-24.6-41.9c-1.45-1.59-3.51.43-2.75,2.13,2.94,6.78,5.86,13.55,8.85,20.34,2.68,6.23,5.23,12.67,5.75,19.49,1,13.37-4.69,26.09-11,37.48a15.87,15.87,0,0,1-1,1.66,78.75,78.75,0,0,0,4.37-38.28c-1.38-10.27-5.18-19.64-9.6-28.89s-9.52-19-10.73-29.5c-1.4-12,.9-24.53-3.85-36a1.86,1.86,0,0,0-2.16-1.23,1.77,1.77,0,0,0-1.17,2.17l-.07.11c4.15,10,2.75,20.9,3.4,31.42s4.37,20,8.88,29.35c4.4,9.14,9,18.15,11,28.11a75.43,75.43,0,0,1-1.78,36.46v.29a6.63,6.63,0,0,1-1.44,4.25,75.41,75.41,0,0,1-9,17.26,1.77,1.77,0,0,0,.67,2.41h0a1.73,1.73,0,0,0,1.3.17,14.26,14.26,0,0,0,6.85-5.86c1.88-2.75,3.51-5.68,5.21-8.54.8-1.32,1.57-2.67,2.34-4,.32-6,3.38-11.49,7.56-16A57.26,57.26,0,0,0,586,643.9c0-7.31-2-14.22-4.8-20.92-1.64-4-3.35-7.93-5.08-11.88a115.73,115.73,0,0,1,18,38,1.78,1.78,0,0,0,2.25,1.13,1.81,1.81,0,0,0,1.13-1.13C603.17,624.94,588.41,603,583.49,580.32Z" transform="translate(-175.37 -113.08)" fill="blue" stroke="blue" stroke-miterlimit="10"/>
      <path d="M590.48,614c8.71,10.86,17.73,22.09,22,35.54a46.29,46.29,0,0,1,2.2,20.46c-.89,6.3-3.52,12.2-6.12,18-3,6.57-6.12,13.2-7.18,20.41a1.75,1.75,0,0,0,.45,1.71c2.74,2.15,5.64.48,8-1.36a44.6,44.6,0,0,0,7-6.87,103,103,0,0,0,10.61-16.4c3.37-6.17,6.43-12.7,7.44-19.73a44.33,44.33,0,0,0-2.23-20.27c-2.56-7.71-6.49-14.87-10.47-21.91a1.76,1.76,0,0,0-3,1.77c6.13,10.86,12.79,22.69,12.6,35.58-.08,6.39-2.16,12.48-4.93,18.19a132.26,132.26,0,0,1-8.94,15.59,56.84,56.84,0,0,1-6,7.57,39.87,39.87,0,0,1-3.72,3.4c-.56.45-3,2.62-3.8,2l.45,1.71c2-13.33,11-24.34,13.18-37.6,2.34-14.22-2.76-28.37-10.25-40.29a213.61,213.61,0,0,0-14.77-20c-1.4-1.77-3.87.73-2.48,2.49Z" transform="translate(-175.37 -113.08)" fill="blue" stroke="blue" stroke-miterlimit="10"/>
      <path d="M631.47,677a69.9,69.9,0,0,1-2.61,29.66c-.67,2.15,2.72,3.08,3.4.93A72.31,72.31,0,0,0,635,677C634.72,674.8,631.2,674.78,631.47,677Z" transform="translate(-175.37 -113.08)" fill="blue" stroke="blue" stroke-miterlimit="10"/>
      <path d="M233.73,403.79a70.2,70.2,0,0,0,39.71-7.92,1.74,1.74,0,0,0,.59-2.39v0h0a1.78,1.78,0,0,0-1.47-.86,16.71,16.71,0,0,1-7-2l-.88,3.28,15.23-.71a1.77,1.77,0,0,0,1.72-1.82h0a1.76,1.76,0,0,0-.48-1.17,31.5,31.5,0,0,0-11.3-8.57l-.86,3.27,11.72-.61a1.77,1.77,0,0,0,1.73-1.81h0a1.88,1.88,0,0,0-.48-1.17l-13.85-12.5-1.71,2.94A122.19,122.19,0,0,1,293,382.41a1.77,1.77,0,0,0,2.41-.67h0a1.89,1.89,0,0,0,.17-1.3l-3.73-11.14L288.86,371l13.92,14.94c2.12,2.27,4.22,3.69,7.4,3.77s6.57-.14,9.85-.17a399.8,399.8,0,0,1,40.36,1.83q11.44,1.1,22.86,2.92a1.8,1.8,0,0,0,2.17-1.17,51.33,51.33,0,0,1,6.45-15.83l-3.28-.88c0,5.55,7.61,8.69,11.51,4.69l-2.94-1.71c-1.17,3.36,1.77,6,4.58,7a12.24,12.24,0,0,1,4.26,2.15c1.29,1.17,2.34,2.68,3.51,3.94a41.85,41.85,0,0,0,8.52,6c2.85,1.66,5.68,3.35,8.46,5.12,10.86,6.94,21.33,15.13,29.13,25.5a63.26,63.26,0,0,1,9.9,19.16c.66,2.16,4.05,1.23,3.38-.94-3.72-12.07-11.21-22.48-20.32-31.1a131.65,131.65,0,0,0-15-12.05c-5.42-3.76-11.17-6.93-16.75-10.44a27.08,27.08,0,0,1-4.51-3.38c-1.41-1.33-2.49-2.94-3.9-4.27a13.3,13.3,0,0,0-4.91-2.74c-1.17-.45-3.62-1.34-3-3.09a1.77,1.77,0,0,0-2.93-1.71c-1.76,1.79-5.5.32-5.5-2.21a1.81,1.81,0,0,0-1.82-1.72,1.73,1.73,0,0,0-1.45.83A54.55,54.55,0,0,0,382,392.07l2.17-1.22q-19.5-3.06-39.25-4.23-9.89-.57-19.79-.62c-3.35,0-6.69,0-10,.07-2.91,0-6.35.79-8.66-1.37-2.59-2.42-4.9-5.21-7.31-7.79l-7.84-8.41a1.78,1.78,0,0,0-2.51,0,1.75,1.75,0,0,0-.43,1.65L292,381.33l2.59-2a125.07,125.07,0,0,0-27.38-11,1.77,1.77,0,0,0-2.14,1.27h0a1.77,1.77,0,0,0,.43,1.66l13.8,12.48,1.24-3-11.71.61c-1.57.09-2.59,2.51-.88,3.28a29.38,29.38,0,0,1,10.54,8l1.25-3-15.23.72c-1.65.08-2.52,2.42-.89,3.26A20.58,20.58,0,0,0,272.5,396l-.85-3.3a66.85,66.85,0,0,1-37.93,7.43c-2.24-.22-2.22,3.3,0,3.52Z" transform="translate(-175.37 -113.08)" fill="blue" stroke="blue" stroke-miterlimit="10"/>
      <path d="M435.7,510.64c-.16-1.15-.24-2.31-.31-3.46-.69-.11-1.4-.2-2.1-.27a1.74,1.74,0,0,0-1.74,1.73l.12,7.3a36.49,36.49,0,0,1-6.33-.85c-1.84-.4-3.17,2.23-1.35,3.17.7.35-.34,1.31-.91,1.43-1.61.34-3.55-.59-5.05-1.05s-3.18-.95-4.75-1.45a5.43,5.43,0,0,1-3.47-2.86c-3.2-5.71-4.88-12.24-5.95-18.66a201.42,201.42,0,0,1-2-20.07c-.54-7.24-1-14.49-1.07-21.74a124,124,0,0,1,2-24.4c.43-2.18-2.92-3.11-3.34-.92-3.25,16.72-2.06,33.77-.79,50.64a149.41,149.41,0,0,0,3,22.89A60.08,60.08,0,0,0,405.27,513a22.22,22.22,0,0,0,2.55,4.63,8.52,8.52,0,0,0,4.28,2.83c2.17.72,4.38,1.36,6.59,2,2,.6,4.15,1.16,6.16.26a4.78,4.78,0,0,0,2.7-3.74,39.85,39.85,0,0,0,5.78.45,1.76,1.76,0,0,0,1.74-1.73l-.11-7.1Z" transform="translate(-175.37 -113.08)" fill="blue" stroke="blue" stroke-miterlimit="10"/>
      <path d="M472.39,461.46q-1.58-7.62-3.5-15.19a1.82,1.82,0,0,0-2.28-1.2h0a1.77,1.77,0,0,0-1.2,2.08h0c1.2,4.45,2.16,8.93,3.11,13.41a6.89,6.89,0,0,1-3.06-.21,1.82,1.82,0,0,0-2.22,1.28,1.61,1.61,0,0,0-.06.44v1.15a7.43,7.43,0,0,0-4.87,3.4,6.94,6.94,0,0,0-1.08,3.56,12.39,12.39,0,0,0,.09,1.72h0a8,8,0,0,0-1.54-.21,5.9,5.9,0,0,0-2,.23,8,8,0,0,0-3.45,2.31c-2,2.27-2.49,5.29-4.19,7.69s-4.84,2.94-7.21,4.38c-.36.21-.7.46-1.05.71A7,7,0,0,1,443,488.4a21.42,21.42,0,0,0,3.75-2,14.78,14.78,0,0,0,4.47-6.56,10.05,10.05,0,0,1,2-3.28,3.08,3.08,0,0,1,3.37-.85c3.09.66,4.54-1.75,4.44-4.52a4.82,4.82,0,0,1,.45-3.27,3.5,3.5,0,0,1,3.35-1.47,1.89,1.89,0,0,0,1.87-1.87v-.33a9.82,9.82,0,0,0,4.39-.62A1.87,1.87,0,0,0,472.39,461.46Z" transform="translate(-175.37 -113.08)" fill="blue" stroke="blue" stroke-miterlimit="10"/>
      <path d="M233.5,400.47a142.61,142.61,0,0,0-29.14.25,1.76,1.76,0,1,0-.27,3.51h.27l12.46.45a16.75,16.75,0,0,0,2.65.14,1.52,1.52,0,0,1,.36.12l-.36-.94a6.32,6.32,0,0,0-1.31.63c-1.76.82-3.52,1.64-5.26,2.53-6.12,3.19-12.06,8-13.57,15-.35,1.6,1.68,3.08,2.93,1.7a36.2,36.2,0,0,1,14.41-9.72l-1.67-2.9c-5.3,6.23-10.78,12.88-12.39,21.08a1.74,1.74,0,0,0,3.16,1.36,62.8,62.8,0,0,1,16.87-16.63l-2.35-.62c6.08,9.37-3.63,19.84-7.47,27.91a1.77,1.77,0,0,0,.67,2.41h0a1.46,1.46,0,0,0,.36.16c2.83.86,4.24-1.47,6.46-2.58,1.17-.56,1.8.27,2.34,1.17a51.37,51.37,0,0,1,2.34,5.05q4.78,10.69,9.27,21.53,2.25,5.54,4.45,11.09a9.63,9.63,0,0,0,2,4c1.34,1.17,3,.84,4.69.49a43.55,43.55,0,0,0,16.23-7.4A44.47,44.47,0,0,0,275,464.77c1-2-2-3.79-3-1.78a41.3,41.3,0,0,1-26.24,21,9.69,9.69,0,0,1-2.13.49c-.83,0-.77-.33-1.1-1.17-.7-1.76-1.38-3.52-2.1-5.28q-2.1-5.28-4.3-10.55-4.28-10.2-8.84-20.25c-1.17-2.65-2.62-6.47-6.06-6.68a5.84,5.84,0,0,0-3.81,1.4c-.77.56-1.91,1.8-2.75,1.54l1.06,2.58c4.49-9.37,14.51-20.66,7.47-31.46a1.78,1.78,0,0,0-2.34-.63,67.9,67.9,0,0,0-18.16,18l3.21,1.36c1.51-7.66,6.57-13.77,11.49-19.55,1-1.17.1-3.6-1.71-2.94a39.9,39.9,0,0,0-16,10.54l3,1.67c1.86-8.65,10.83-12.35,17.94-15.81,1.58-.76,3-2.26,2.13-4.12-.72-1.54-2.45-1.89-4-2-4.81-.23-9.62-.35-14.44-.53v3.52a142.22,142.22,0,0,1,29.1-.29c2.25.21,2.24-3.31,0-3.52Z" transform="translate(-175.37 -113.08)" fill="blue" stroke="blue" stroke-miterlimit="10"/>
      <path d="M281.16,426.16a115.16,115.16,0,0,0-6.29,26.4,231.11,231.11,0,0,0-2.1,27.81,39.89,39.89,0,0,0,2,13.41c1.36,4.06,3,8,4.08,12.13,1.8,7.11,2.49,14.54,5.32,21.36a26.48,26.48,0,0,0,5.86,9,31,31,0,0,0,10.13,6.22c4,1.68,8.2,3,12.37,4.35a94.35,94.35,0,0,0,13.53,3.51c8.07,1.35,16.4,1.08,24-2.25a28.23,28.23,0,0,0,9.7-7.09,112.48,112.48,0,0,0,7.41-10.21,103.66,103.66,0,0,1,17.46-18.9c5.51-4.69,11.39-9.68,14.13-16.61a20.91,20.91,0,0,0,1.17-5.12c.27-2.25-3.25-2.23-3.51,0-.85,7-6.33,12.23-11.33,16.63-6,5.32-11.94,10.54-17,16.83-2.56,3.23-4.83,6.62-7.16,10a33.83,33.83,0,0,1-8.05,8.82c-6.25,4.35-14.06,5.59-21.55,5-8.71-.66-17.11-3.66-25.29-6.49a46,46,0,0,1-10.55-4.78,20.82,20.82,0,0,1-7-7.79c-3.24-6.17-4-13.27-5.5-20a80.9,80.9,0,0,0-3.18-10.79c-1.53-4-3.09-8.07-3.46-12.39a98.84,98.84,0,0,1,.34-15c.3-4.89.68-9.76,1.24-14.62a116.68,116.68,0,0,1,6.63-28.48c.81-2.12-2.59-3-3.4-.94Z" transform="translate(-175.37 -113.08)" fill="blue" stroke="blue" stroke-miterlimit="10"/>
      <path d="M313.63,461.3a9.65,9.65,0,0,0,.82-7.18,10.39,10.39,0,0,0-3.92-5.32c-4.11-3-9.37-2.93-14.29-2.67a1.8,1.8,0,0,0-1.75,1.76,1.75,1.75,0,0,0,1.71,1.7c3.93-.2,8.2-.51,11.71,1.65,2.82,1.74,4.28,5.14,2.62,8.2-1.06,2,2,3.77,3,1.78Z" transform="translate(-175.37 -113.08)" fill="blue" stroke="blue" stroke-miterlimit="10"/>
      <path d="M294.12,449.22c-.38,4.29,0,9.22,4.12,11.72a12.65,12.65,0,0,0,6.23,1.51c2.59,0,5.22-.52,7.81-.13a1.84,1.84,0,0,0,2.17-1.23,1.81,1.81,0,0,0-1.17-2.15,36.89,36.89,0,0,0-7.28,0,11.56,11.56,0,0,1-5.28-.66c-3.52-1.52-3.3-5.75-3-9a1.76,1.76,0,0,0-1.76-1.76h0a1.82,1.82,0,0,0-1.76,1.76Z" transform="translate(-175.37 -113.08)" fill="blue" stroke="blue" stroke-miterlimit="10"/>
      <path d="M353.07,468.4a13.62,13.62,0,0,1,7.59-9.17,10,10,0,0,1,11,2.26c1.54,1.67,4-.82,2.49-2.48a13.5,13.5,0,0,0-14.42-3.17,17.24,17.24,0,0,0-10.05,11.63,1.77,1.77,0,0,0,3.39.94Z" transform="translate(-175.37 -113.08)" fill="blue" stroke="blue" stroke-miterlimit="10"/>
      <path d="M351.25,470.67a23.7,23.7,0,0,0,8.59,1.42,29,29,0,0,0,8.2-.71c4.83-1.35,8.91-6.26,6.54-11.33a1.78,1.78,0,0,0-2.34-.63,1.8,1.8,0,0,0-.63,2.34,4,4,0,0,1-.91,4.07,8.18,8.18,0,0,1-5.21,2.45,35.5,35.5,0,0,1-6.52.21,18.75,18.75,0,0,1-6.7-1.27,1.8,1.8,0,0,0-2.17,1.23,1.85,1.85,0,0,0,1.17,2.16Z" transform="translate(-175.37 -113.08)" fill="blue" stroke="blue" stroke-miterlimit="10"/>
      <path d="M281.58,552.27a8.91,8.91,0,0,0,1.53-3.12,4,4,0,0,0-.36-3.13,5.73,5.73,0,0,0,2.43-4,4.83,4.83,0,0,0-1.73-4l2.52-3a1.72,1.72,0,0,0-2.42-2.41h-.18L279,537.78c-1,1.14-.08,3.43,1.67,2.87.87-.3,1.15,1,.77,1.64-.59,1.14-2.09,1.81-3.18,2.37-1.59.82-.75,3.16.86,3.2h.44l.3.12h0a4.76,4.76,0,0,1-.26.89,13.8,13.8,0,0,1-.85,1.43,5.41,5.41,0,0,1-.55.62l-.27.26-.16.11a1.76,1.76,0,0,0-.56,2.41h0a1.72,1.72,0,0,0,1,.73,9.42,9.42,0,0,1,1.14.47A6,6,0,0,1,281.58,552.27Zm-2.3-4.55v.06h0Z" transform="translate(-175.37 -113.08)" fill="blue" stroke="blue" stroke-miterlimit="10"/>
      <path d="M427.59,605.25a6.33,6.33,0,0,1,4.68-1.07l-1-2.57a18.93,18.93,0,0,0-3.84,12.88c.42,5.32,2.23,10.54,3.51,15.73l8.2,31.9,4.69,18.35c.56,2.19,3.94,1.26,3.38-.93l-7.79-30.82c-2.6-10.2-5.48-20.37-7.79-30.64-1.17-5.33-.63-10.37,2.76-14.79a1.78,1.78,0,0,0-.63-2.34h0a3,3,0,0,0-.41-.18,9.92,9.92,0,0,0-7.33,1.41c-1.88,1.24-.13,4.29,1.77,3.05Z" transform="translate(-175.37 -113.08)" fill="blue" stroke="blue" stroke-miterlimit="10"/>
      <path d="M442.62,681.11A61.93,61.93,0,0,0,446.83,701c1.17,3.13,2.43,6.2,3.74,9.25,1.09,2.56,2.06,5.45,4.13,7.41s5.17,2.46,8.1,2.43a3.75,3.75,0,0,0,3.33-1.25c.9-1.17.83-3.19.93-4.69a56.83,56.83,0,0,0-2.19-19.71,118.76,118.76,0,0,0-8.58-21.24c-1-2-4.06-.24-3,1.78,5.23,10.38,9.94,21.56,10.54,33.33a43.2,43.2,0,0,1-.38,8.43c.07-.42.84,0,0-.22a3.7,3.7,0,0,0-.94,0h-1.64a5.66,5.66,0,0,1-3.51-1.35c-1.76-1.63-2.57-4.3-3.52-6.44-1.17-2.79-2.34-5.58-3.39-8.41a58.7,58.7,0,0,1-4.23-19.2,1.76,1.76,0,0,0-3.52,0h-.08Z" transform="translate(-175.37 -113.08)" fill="blue" stroke="blue" stroke-miterlimit="10"/>
      <path d="M554.55,671.28v-.21a6.8,6.8,0,0,1-.19-2.06l-39.28-6.12-26.22-4.09-6.34-1a14.38,14.38,0,0,0-6.09-.19,14,14,0,0,0-4.35,2.46c-1.58,1.17-3.16,2.34-4.79,3.52a121.91,121.91,0,0,1-23.6,12.88c-2.06.84-1.17,4.24.94,3.39h0a125.65,125.65,0,0,0,20.75-10.78c3.25-2.09,6.27-4.44,9.37-6.68a6.85,6.85,0,0,1,4.57-1.57c2.34.17,4.59.69,6.87,1l51.3,8,17.17,2.71A10.71,10.71,0,0,1,554.55,671.28Z" transform="translate(-175.37 -113.08)" fill="blue" stroke="blue" stroke-miterlimit="10"/>
      <path d="M578.11,665.73l1,.57a32.2,32.2,0,0,1,2.34-2.74l-1.57-.87C577.92,661.6,576.15,664.66,578.11,665.73Z" transform="translate(-175.37 -113.08)" fill="blue" stroke="blue" stroke-miterlimit="10"/>
      <path d="M432.67,605.82c5,.64,9.76-1.48,14.06-3.75q7-3.72,14.38-6.75a127.16,127.16,0,0,1,15.34-5c4.9-1.26,10.24-1.71,14.86-3.88a40.5,40.5,0,0,0,6.11-4.1c1.78-1.27,3.8-2.62,6.08-2a1.77,1.77,0,0,0,.94-3.4c-4.44-1.17-7.93,1.76-11.27,4.23a18.71,18.71,0,0,1-6.32,3.25c-2.52.7-5.12,1.1-7.66,1.67A129.61,129.61,0,0,0,449,597c-5.08,2.6-10.31,6.08-16.27,5.33-2.24-.28-2.21,3.23,0,3.51Z" transform="translate(-175.37 -113.08)" fill="blue" stroke="blue" stroke-miterlimit="10"/>
      <path d="M297.54,672.59a39.11,39.11,0,0,0-3.87-9.59c-1.84-3.59-3.74-7.15-5.33-10.84-2.86-6.51-4.54-13.54-3.07-20.57a6.87,6.87,0,0,1-3.32-1.4c-2.95,12.47,3.44,24.3,9,35.24,2.5,4.85,4.69,10.32,3.19,15.84a11.68,11.68,0,0,1-4.69,6.69,66.83,66.83,0,0,1-8.44,5.26,12.12,12.12,0,0,1-8.89,1.1,34,34,0,0,1-8.51-4.35,46.15,46.15,0,0,1-7-5.78,48.57,48.57,0,0,1-6.58-7.38c-.84-1.26-1.61-2.57-2.46-3.83-.24-.37-.51-.73-.79-1.08a1.48,1.48,0,0,1-.31-.25,10,10,0,0,1-1.59-2.12l-.2-.26a16.72,16.72,0,0,1-2.06-5,27.26,27.26,0,0,1-1.17-5.52,25.7,25.7,0,0,1,0-3.51,25.09,25.09,0,0,1,1-9.59c.29-3,.57-6,.86-9.07.7-7.17,1.05-14.45,2.49-21.53a23.64,23.64,0,0,1,4.2-10.38.66.66,0,0,1,.1-.43,36.15,36.15,0,0,1,1.64-4l.7-1.47a3.24,3.24,0,0,1,.27-.6c-5.13,2.61-8,7.59-9.5,13-1.65,6.13-2.05,12.5-2.65,18.74-.77,8-1.52,16-2.34,24a28.68,28.68,0,0,0,1.17,11.16,29.68,29.68,0,0,0,2.13,5.38,43.68,43.68,0,0,0,2.94,3.83c1,1.45,1.88,3,2.86,4.41a36.57,36.57,0,0,0,3.42,4.13,62.78,62.78,0,0,0,7.29,7.11,41.24,41.24,0,0,0,8.2,5.37c3.08,1.54,6.11,3,9.65,2.84a20.82,20.82,0,0,0,9.37-3.24c1.39-.82,2.75-1.72,4.09-2.63a25.8,25.8,0,0,0,4.5-3.42C297.94,684.57,298.81,678.45,297.54,672.59Z" transform="translate(-175.37 -113.08)" fill="blue" stroke="blue" stroke-miterlimit="10"/>
      <path d="M235.47,479.64c.52,5.86,1,12-1.76,17.43-2.05,4-5.18,7.34-8.2,10.64s-6.13,6.67-8.2,10.67c-2.47,4.89-2.72,10.06-1.81,15.38,1,5.86,3.12,11.56,2.59,17.57-.47,5.33-2.89,10.3-5.47,14.9-2.68,4.8-5.73,9.44-8,14.48a91.26,91.26,0,0,0-5.56,18c-3.21,14.66-5.95,29.44-9,44.17-.45,2.21,2.94,3.16,3.38.94,2.7-13.3,5.36-26.59,8.07-39.83a121.55,121.55,0,0,1,4.85-18.28c2-5.41,5.06-10.31,8-15.23,2.7-4.69,5.36-9.55,6.59-14.85,1.31-5.7.45-11.2-.84-16.81s-2.6-11.14-.59-16.62c1.53-4.14,4.56-7.56,7.48-10.77,3.51-3.82,7.2-7.59,9.6-12.2,3.16-6.09,2.92-12.74,2.34-19.38-.18-2.24-3.7-2.26-3.51,0Z" transform="translate(-175.37 -113.08)" fill="blue" stroke="blue" stroke-miterlimit="10"/>
      <path d="M223.84,623.52a166.15,166.15,0,0,0-23.12,10.86,34.72,34.72,0,0,0-9.49,7.56,49.23,49.23,0,0,0-6,9.54c-6.74,13.18-10.45,28.41-9.07,43.34a58,58,0,0,0,7.23,23.55,1.76,1.76,0,0,0,3-1.71c-7-12.3-8.37-26.94-5.85-40.68a82.07,82.07,0,0,1,6.5-20.09c3.17-6.77,6.94-13,13.35-17.07a135.37,135.37,0,0,1,24.44-11.91c2.08-.81,1.17-4.21-.94-3.4Z" transform="translate(-175.37 -113.08)" fill="blue" stroke="blue" stroke-miterlimit="10"/>
      <path d="M243.1,638.18a4.92,4.92,0,0,1,.21-1.32,76,76,0,0,0-16.47,3.45A92.58,92.58,0,0,0,214.38,645a19.81,19.81,0,0,0-8.93,7.56,1.76,1.76,0,0,0,3,1.78h0c1.85-3.19,5-5.1,8.28-6.6a95.82,95.82,0,0,1,12.06-4.35,71.86,71.86,0,0,1,14.06-2.92A22,22,0,0,0,243.1,638.18Z" transform="translate(-175.37 -113.08)" fill="blue" stroke="blue" stroke-miterlimit="10"/>
      <path d="M461.17,714.76c-12,8.2-24.05,16.22-37.6,21.67a253.56,253.56,0,0,1-42.17,12.38c-28.92,6.14-58.48,8.69-87.85,11.83l-46,4.91c-7.71.82-15.43,1.92-23.16,2.34a29.78,29.78,0,0,1-18.57-4.68C194.72,756,189.49,742.8,188,730.09a75.69,75.69,0,0,1,6.09-39.45,59.52,59.52,0,0,1,11.12-17.18,50.29,50.29,0,0,1,14.06-9.8c7.12-3.51,14.71-6.09,21.94-9.37a28.07,28.07,0,0,1,.08-3.78c-5.86,2.76-12,5-17.81,7.46a72.7,72.7,0,0,0-15.17,8.33,51.14,51.14,0,0,0-13.13,15,79.21,79.21,0,0,0-11.12,39.47c-.14,13.5,3,27.84,11.81,38.33a36,36,0,0,0,14.87,10.54c6.87,2.56,14,1.83,21.09,1.07l47.46-5.06c30.39-3.25,61-5.76,91.08-11.15a300.22,300.22,0,0,0,44-11,167.8,167.8,0,0,0,20.27-8.2,176.51,176.51,0,0,0,19.21-11.36c3-2,6-4.07,9-6.13C464.8,716.52,463,713.46,461.17,714.76Z" transform="translate(-175.37 -113.08)" fill="blue" stroke="blue" stroke-miterlimit="10"/>
      <path d="M228.42,659.51c-4.1,6.9-11.63,10.63-17.7,15.52a31.2,31.2,0,0,0-7.89,9,35.1,35.1,0,0,0-3.92,12.58,84.28,84.28,0,0,0-.32,15.48c.12,2.25,3.63,2.27,3.51,0-.42-8.55-.63-17.88,3.52-25.67,3.72-7.11,10.82-11,17-15.71a34,34,0,0,0,8.94-9.37,1.76,1.76,0,0,0-2.76-2.19,1.69,1.69,0,0,0-.24.41h0Z" transform="translate(-175.37 -113.08)" fill="blue" stroke="blue" stroke-miterlimit="10"/>
      <path d="M241.3,653.71a74.26,74.26,0,0,0-18.11,8.42c-1.88,1.24-.12,4.29,1.78,3a70.52,70.52,0,0,1,16.63-7.8C241.44,656.13,241.34,654.92,241.3,653.71Z" transform="translate(-175.37 -113.08)" fill="blue" stroke="blue" stroke-miterlimit="10"/>
      <path d="M246.45,671.69a9.57,9.57,0,0,1-2.1-3.19,98.34,98.34,0,0,0-10.82,23.21,94.45,94.45,0,0,0-3.31,14.3c-.34,2.21,3,3.16,3.38.94a95.51,95.51,0,0,1,12.89-35.27Z" transform="translate(-175.37 -113.08)" fill="blue" stroke="blue" stroke-miterlimit="10"/>
      <path d="M595.68,412.82c15.73,1.4,32.09,9.94,35.75,26.51a24.46,24.46,0,0,1-.52,12.76c-.69,2.16,2.71,3.09,3.39.94,2.57-8.2.93-17.12-3.42-24.39-4.58-7.62-12-12.88-20.28-16a57.37,57.37,0,0,0-14.92-3.26C593.42,409.13,593.42,412.64,595.68,412.82Z" transform="translate(-175.37 -113.08)" fill="blue" stroke="blue" stroke-miterlimit="10"/>
      <path d="M634.47,449.68c4.44,1.82,6.41,6.87,7.52,11.15,1.34,5.13,2.35,10.15,4.93,14.83,2.55,4.5,5.86,8.53,8.27,13.11a51.36,51.36,0,0,1,5.19,32c-.36,2.22,3,3.18,3.39.94a55.32,55.32,0,0,0-4.34-32.21c-2.34-5.12-5.85-9.51-8.73-14.3a31.39,31.39,0,0,1-3.52-7.62c-.82-2.77-1.31-5.63-2.08-8.42-1.5-5.42-4.34-10.61-9.77-12.88-2.09-.86-3,2.54-.94,3.39Z" transform="translate(-175.37 -113.08)" fill="blue" stroke="blue" stroke-miterlimit="10"/>
      <path d="M662,522.93c3.79,3.51,3.94,8.82,4,13.62,0,5.19-.2,10.67,2,15.5,1.25,2.74,3.38,4.44,5.54,6.44,2.67,2.47,2.94,5.7,3.17,9.15.57,8,1.17,16.21-.07,24.2-1.17,7.55-3.91,15-9.2,20.61-1.56,1.64.92,4.14,2.48,2.49,10.94-11.62,11.51-28.28,10.54-43.34-.22-3.61-.12-7.62-1.38-11.06a11.36,11.36,0,0,0-2.74-4.25,39.83,39.83,0,0,1-3.87-3.59c-3.39-4.2-3-10.34-3-15.41,0-6-.31-12.58-5-16.88-1.68-1.52-4.17,1-2.49,2.48Z" transform="translate(-175.37 -113.08)" fill="blue" stroke="blue" stroke-miterlimit="10"/>
      <path d="M679.82,590.42a82.86,82.86,0,0,1,6.95,39.1c-.29,4.44-1.07,8.87-.83,13.33a21.72,21.72,0,0,0,1.17,6.38c.73,2,1.8,3.88,2.57,5.86,1.61,4.11,1.05,8.46,1.08,12.76a19.12,19.12,0,0,0,3.16,11.4c2.22,3.19,5.23,5.74,7.35,9a22.7,22.7,0,0,1,.41,23.68,1.76,1.76,0,0,0,3,1.77,26.27,26.27,0,0,0,2.11-22.05,30.24,30.24,0,0,0-6.25-9.89c-2.78-3.1-5.49-6.13-6.1-10.43s.21-8.57-.33-12.88c-.57-4.5-3.34-8.13-4.28-12.5s-.22-9.29.21-13.84a86.6,86.6,0,0,0,.22-13.57,87.53,87.53,0,0,0-7.44-30c-.91-2.06-4-.27-3,1.78Z" transform="translate(-175.37 -113.08)" fill="blue" stroke="blue" stroke-miterlimit="10"/>
      <path d="M653.46,688.26c8,.17,16.15-1,24.09.39,6.25,1.07,12.64,3.69,16.4,9.05,1.28,1.84,4.34.09,3-1.78-4.1-5.85-10.71-9.16-17.57-10.54-8.55-1.66-17.28-.5-25.91-.68a1.76,1.76,0,0,0,0,3.52Z" transform="translate(-175.37 -113.08)" fill="blue" stroke="blue" stroke-miterlimit="10"/>
      <path d="M650,704.32c19.55-.65,40.48,2.61,55.3,16.47,1.65,1.55,4.13-.94,2.48-2.48-15.52-14.54-37.29-18.19-57.78-17.5C647.67,700.89,647.67,704.4,650,704.32Z" transform="translate(-175.37 -113.08)" fill="blue" stroke="blue" stroke-miterlimit="10"/>
      <path d="M653.46,713.14c19.12-3.13,36.48,9,46.09,24.67,1.17,1.93,4.22.16,3-1.77a59.77,59.77,0,0,0-20.23-20.56,44.8,44.8,0,0,0-29.8-5.85c-2.23.36-1.29,3.75.92,3.38Z" transform="translate(-175.37 -113.08)" fill="blue" stroke="blue" stroke-miterlimit="10"/>
      <path d="M650.73,713.48c8.67,5.06,15.87,12.09,22.92,19.12,3.52,3.51,7.28,7.12,10,11.38A37.13,37.13,0,0,1,689,757.7c.38,2.23,3.77,1.28,3.38-.94a39.33,39.33,0,0,0-5.66-14.56,73.43,73.43,0,0,0-10.21-11.71c-7.37-7.38-14.92-14.75-24-20a1.76,1.76,0,0,0-2.19,2.76,1.69,1.69,0,0,0,.41.24Z" transform="translate(-175.37 -113.08)" fill="blue" stroke="blue" stroke-miterlimit="10"/>
      <path d="M702.27,714.2c2.61,6.32,5.27,13.21,2.1,19.84-1.36,2.83-3.12,5.43-4.21,8.39a32,32,0,0,0-1.65,9.51c-.33,6.56.16,13.19-2.69,19.3-2.52,5.38-6.56,9.83-10.78,13.94-2.34,2.34-4.84,5.1-7.75,6.75a4.42,4.42,0,0,1-4.22.41,2.23,2.23,0,0,1-1.4-2.82h0c.75-1.92-2.19-3-3.21-1.36-6.11,9.61-12.46,19.47-22.18,25.77a170.71,170.71,0,0,1-16.55,9l-17.68,9c-6.38,3.27-12.66,6.79-19.69,8.37-2.2.49-1.26,3.87.94,3.38,6.27-1.38,12-4.34,17.65-7.25L629.46,827c5.86-3,11.86-5.78,17.45-9.24a56,56,0,0,0,13.31-11.57A152.2,152.2,0,0,0,671.56,790l-3.26-1.37c-1.17,2.84.82,5.77,3.36,7,3.08,1.49,6.41.26,9-1.65a73.06,73.06,0,0,0,7.61-7,67.59,67.59,0,0,0,6.83-7.71,36.07,36.07,0,0,0,4.88-8.8,34.4,34.4,0,0,0,1.89-10.73c.17-3.81,0-7.65.54-11.43A29.43,29.43,0,0,1,706.32,738c2.07-3.78,3.51-7.63,3.09-12a43.19,43.19,0,0,0-3.61-12.74c-.85-2.06-4.25-1.17-3.38.94Z" transform="translate(-175.37 -113.08)" fill="blue" stroke="blue" stroke-miterlimit="10"/>
      <path d="M631.38,708.34h.09c-1.43,4.16-6,6.11-9.88,7.37a94.16,94.16,0,0,1-16.16,3.71,97.63,97.63,0,0,1-34-1.17c-1.84-.39-3.25,2.34-1.36,3.21a54.13,54.13,0,0,1,29.16,37.41,190.73,190.73,0,0,1,2.65,20.63c1.37,13.66,2.34,27.61,0,41.21-.8,4.61-1.79,11.06-6.1,13.88-4.88,3.18-9.49-3.68-11.72-7.23-6.45-10.54-7.94-23.33-15-33.58-1.26-1.85-4.32-.1-3,1.78a47.22,47.22,0,0,1,4.19,7.64,1.24,1.24,0,0,1,.17.23,5.1,5.1,0,0,1,.71,1.8c1.35,3.26,2.49,6.6,3.68,9.93a12.46,12.46,0,0,1,1.48,4,64.08,64.08,0,0,0,4.08,8.87c2.59,4.55,6.8,10.82,12.66,10.91,5.44.1,8.8-5.23,10.42-9.77a51.21,51.21,0,0,0,2.12-9.7,106.76,106.76,0,0,0,1-11,169.65,169.65,0,0,0-.57-21.74c-.6-7.41-1.33-14.84-2.34-22.25a65.42,65.42,0,0,0-5.17-18.75,57.5,57.5,0,0,0-18.83-22.67,100.61,100.61,0,0,0,19.63.42c9-.69,18.49-2.27,26.78-5.86,3.83-1.68,7.21-4.32,8.61-8.4C635.5,707.09,632.07,706.21,631.38,708.34Z" transform="translate(-175.37 -113.08)" fill="blue" stroke="blue" stroke-miterlimit="10"/>
      <path d="M594.21,839.84,587,833.07a1.76,1.76,0,0,0-2.49,2.49h0l7.19,6.74a1.78,1.78,0,0,0,2.67-2.35Z" transform="translate(-175.37 -113.08)" fill="blue" stroke="blue" stroke-miterlimit="10"/>
      <path d="M669.16,764a190.77,190.77,0,0,1-.13,26.73c-.17,2.26,3.35,2.24,3.51,0a190.77,190.77,0,0,0,.13-26.73C672.53,761.69,669,761.68,669.16,764Z" transform="translate(-175.37 -113.08)" fill="blue" stroke="blue" stroke-miterlimit="10"/>
      <path d="M570.81,798.33a39.36,39.36,0,0,0,22.91-12.47c5.6-6.45,9.25-15.47,8-24.11a13.57,13.57,0,0,0-5.27-9.45c-3.64-2.46-8.37-2-12.11,0-4,2.11-6.82,5.86-9.44,9.49s-5.29,7.59-6.2,12.09c-1.83,9,4.45,18.36,13.59,19.78,2.21.34,3.17-3,.94-3.38a13.53,13.53,0,0,1-11.37-13.78c.25-4,2.35-7.53,4.49-10.72a43.32,43.32,0,0,1,7.17-8.69c2.72-2.34,6.89-4,10.33-2.24,2.79,1.43,4,4.69,4.45,7.64,1,7-2,14.74-6.45,20.17A36.15,36.15,0,0,1,569.91,795c-2.22.39-1.28,3.78.93,3.39Z" transform="translate(-175.37 -113.08)" fill="blue" stroke="blue" stroke-miterlimit="10"/>
      <path d="M581.53,755.76c.37-8.41.33-18.22-6.8-24.08-3.35-2.75-7.42-4.39-10.9-6.94a1.69,1.69,0,0,1-.35-.41c-.1.22,0,.28.16.16a6,6,0,0,1,1.57-.27c1.17-.14,2.25-.25,3.37-.36,2.44-.21,4.89-.34,7.35-.37a1.76,1.76,0,1,0,0-3.52c-2.64,0-5.27.18-7.91.43-2,.19-4.8.11-6.56,1.25a3.35,3.35,0,0,0-.94,4.64h0a1.26,1.26,0,0,0,.34.42c1.5,1.85,4.11,2.91,6.11,4.08,4.17,2.44,7.89,4.87,9.64,9.6s1.58,10.21,1.35,15.34c-.09,2.26,3.42,2.26,3.51,0Z" transform="translate(-175.37 -113.08)" fill="blue" stroke="blue" stroke-miterlimit="10"/>
      <path d="M576.48,821.23a8.22,8.22,0,0,1-.5,2.35,5.23,5.23,0,0,1,.84.37l1,.79.15.17a7,7,0,0,0,.74-1.92,16,16,0,0,0-.36-7.78,1.79,1.79,0,0,0-2.22-1.22h0a1.84,1.84,0,0,0-1.1,1A11.39,11.39,0,0,1,576.48,821.23Z" transform="translate(-175.37 -113.08)" fill="blue" stroke="blue" stroke-miterlimit="10"/>
      <path d="M545.81,790.49a2.5,2.5,0,0,1,.54-.13c1.38-.19,2.77-.47,4.16-.72l-2.78-2C546,786.32,544.36,789.1,545.81,790.49Z" transform="translate(-175.37 -113.08)" fill="blue" stroke="blue" stroke-miterlimit="10"/>
      <path d="M565.15,795.79h0l.24-.89h0l.62-.63h0l.91-.29h0l.45.07h0l.41.17h0l.37.28h0l.28.36h0l.17.41v.86l-.17.42h0l-.27.36h0l-.35.28h0l-.41.17H567l.92.07,1,.11,2.07.19a1.76,1.76,0,0,0,1.25-3,2.22,2.22,0,0,0-1.25-.52l-3.51-.33a2.86,2.86,0,0,0-1.09,0,1.89,1.89,0,1,0,.87,3.68h0a2,2,0,0,0,1.17-.87,2.06,2.06,0,0,0,.24-.91A1.74,1.74,0,0,0,567,794a1.91,1.91,0,0,0-1.26.52,2,2,0,0,0-.5,1.24Z" transform="translate(-175.37 -113.08)" fill="blue" stroke="blue" stroke-miterlimit="10"/>
      <path d="M571.7,780.78a1.74,1.74,0,0,0-2.34.61c-2,3.27-6.2,3.73-9.66,4.09a53.9,53.9,0,0,1-12.88.29,1.73,1.73,0,0,0-1.76,1.75,1.83,1.83,0,0,0,1.77,1.76c1.45.14,2.93.2,4.39.23a24.38,24.38,0,0,1,6.6-.46,4.81,4.81,0,0,1,.76.12c.94-.1,1.87-.21,2.81-.36,4.27-.53,8.65-1.74,11-5.66A1.75,1.75,0,0,0,571.7,780.78Z" transform="translate(-175.37 -113.08)" fill="blue" stroke="blue" stroke-miterlimit="10"/>
      <path d="M603.88,795.92a62.67,62.67,0,0,1-11.94-.21,25.24,25.24,0,0,1-5.73-1.52,27,27,0,0,0-5.56-2c-2.22-.37-3.16,3-.94,3.39a31.13,31.13,0,0,1,6,2.16l.93.31.6.19a26.58,26.58,0,0,0,4.23.92,67.26,67.26,0,0,0,12.45.29C606.09,799.37,606.1,795.85,603.88,795.92Z" transform="translate(-175.37 -113.08)" fill="blue" stroke="blue" stroke-miterlimit="10"/>
      <path d="M559.37,722.4c-4.94-.45-10.73-.95-14.63-4.37-2.13-1.85-3.3-4.51-5.39-6.4-1.87-1.66-4.22-2.92-5.29-5.28-.92-2.05-3.94-.27-3,1.78,1.17,2.67,3.73,4.11,5.86,6,2.34,2,3.51,5,6,6.9,4.69,3.68,10.79,4.38,16.52,4.9,2.25.2,2.24-3.31,0-3.51Z" transform="translate(-175.37 -113.08)" fill="blue" stroke="blue" stroke-miterlimit="10"/>
      <path d="M468.74,702.28c6.65-1.59,15.44-5,21.57-.13a1.81,1.81,0,0,0,2.49,0,1.76,1.76,0,0,0,0-2.48c-7.43-5.86-16.75-2.74-25-.77C465.6,699.41,466.54,702.81,468.74,702.28Z" transform="translate(-175.37 -113.08)" fill="blue" stroke="blue" stroke-miterlimit="10"/>
      <path d="M477.24,695.76a31,31,0,0,0-4.14-14.57,71.71,71.71,0,0,0-9.1-11.72c-1.51-1.68-4,.81-2.48,2.49a70,70,0,0,1,8.34,10.54,27.72,27.72,0,0,1,3.86,13.18c.07,2.25,3.59,2.26,3.52,0Z" transform="translate(-175.37 -113.08)" fill="blue" stroke="blue" stroke-miterlimit="10"/>
      <path d="M535,707c-3-3.51-7.32-5.39-11.45-7.31a34,34,0,0,1-6.32-3.59c-2.12-1.58-4-3.45-6.05-5.1-4.07-3.28-8.82-5.5-12.56-9.18a112.22,112.22,0,0,1-8.69-10.41c-3.18-4-6.65-7.79-11.12-10.36a1.76,1.76,0,0,0-1.78,3h0c7.84,4.51,12.13,12.89,18.21,19.31,3.51,3.7,7.83,6,12,9s7.56,6.82,12.18,9.21,9.73,3.89,13.13,7.92c1.45,1.73,3.94-.77,2.48-2.49Z" transform="translate(-175.37 -113.08)" fill="blue" stroke="blue" stroke-miterlimit="10"/>
      <path d="M440.82,748.28a70.63,70.63,0,0,1-13.43-1.71,1.79,1.79,0,0,0-2.16,1.17,1.76,1.76,0,0,0,1.18,2.16,77.21,77.21,0,0,0,14.36,1.83,1.76,1.76,0,0,0,0-3.52Z" transform="translate(-175.37 -113.08)" fill="blue" stroke="blue" stroke-miterlimit="10"/>
      <path d="M411.64,765.71a39.44,39.44,0,0,0,9.09,2.08c3.15.34,6.33-.14,9.47.22,2.94.34,5.64,1.88,8.46,2.69a31.72,31.72,0,0,0,9.49,1.17,1.76,1.76,0,0,0,.27-3.51h-.27a29.23,29.23,0,0,1-9.06-1.17c-2.8-.87-5.43-2.23-8.36-2.6s-6,0-8.93-.2a35.17,35.17,0,0,1-9.23-2c-2.14-.75-3.05,2.64-.93,3.39Z" transform="translate(-175.37 -113.08)" fill="blue" stroke="blue" stroke-miterlimit="10"/>
      <path d="M547.38,787.07a91.5,91.5,0,0,0-21.16,1.32l-1,.15-2.43.39q-8.31,1.5-16.76,2.23a5.37,5.37,0,0,1-1.9.35H501.3c-.95,0-1.88.12-2.82.17a131.07,131.07,0,0,1-24.24-1.42,86,86,0,0,1-20.09-5.09c-6.3-2.65-12-6.45-15.22-12.26-1-1.84-4.07-.21-3,1.64,6.26,11.18,20.43,15.74,33,18.14a141,141,0,0,0,25.2,2.31h.14a14.67,14.67,0,0,1,6-.56,8.72,8.72,0,0,1,1.74.38,142.31,142.31,0,0,0,16.6-1.82c9.49-1.51,19-3.35,28.67-2.6C549.64,790.54,549.62,787.31,547.38,787.07Z" transform="translate(-175.37 -113.08)" fill="blue" stroke="blue" stroke-miterlimit="10"/>
      <path d="M369.75,756c1,1.65.36,3.67-.17,5.37a22.86,22.86,0,0,1-2.52,5.86c-2.43,3.71-5.34,7.11-7.59,11s-3.29,8.29-4.68,12.51-3.14,8.69-5,12.89A128.27,128.27,0,0,1,343.5,816c-1.22,2.08-2.51,4.13-3.86,6.13a25,25,0,0,1-4.08,5.29c-2.72,2.34-6.59,2.8-10,3.11A106.71,106.71,0,0,0,314,831.68c-5.86,1.17-11.25,4.89-12.65,10.94-1.35,5.86,1,11.72,4.68,16.14a14,14,0,0,0,1.61,1.75,6.46,6.46,0,0,0,3.31,1.17,68,68,0,0,0,21.8,1.17,53.62,53.62,0,0,0,14.2-3.12c4.25-1.7,7.44-5.25,11.71-6.83,4-1.48,8.35-1.75,12-4a17.24,17.24,0,0,0,5.86-6.65c3.15-5.86,4.5-12.53,6.06-18.94.33-1.33.67-2.66,1.06-4l-2.94.77a14.24,14.24,0,0,0,3.51,2.34,1.8,1.8,0,0,0,2.44-.69h0a1.43,1.43,0,0,0,.14-.34l2.76-7L387,815.45a3.86,3.86,0,0,0,4.68-.59c1.49-1.31,1.67-4,1.77-5.85.22-3.79-.74-7.88,2.13-10.9l-1.24.52c11.12-1.31,20-7.65,27.56-15.6a1.77,1.77,0,0,0,0-2.49h0a1.78,1.78,0,0,0-1.66-.44,43.21,43.21,0,0,1-16.16,1.4l.89,3.27a45.4,45.4,0,0,1,8.79-3.89,1.77,1.77,0,0,0-.93-3.4,23.22,23.22,0,0,1-7.93.38l1.51,2.63a12.08,12.08,0,0,1,4.49-4.43c1.67-.95.73-3.07-.87-3.27l-5.71-.72,1.7,2.23a209.51,209.51,0,0,1,12.33-28.5c1.06-2-2-3.77-3-1.77a213.67,213.67,0,0,0-12.67,29.28,1.78,1.78,0,0,0,1.25,2.17h0a.94.94,0,0,0,.41,0l5.71.72-.89-3.28a15.69,15.69,0,0,0-5.77,5.7,1.81,1.81,0,0,0,.68,2.43h0a1.67,1.67,0,0,0,.84.22,26.66,26.66,0,0,0,8.86-.49l-.93-3.4a50.45,50.45,0,0,0-9.63,4.25,1.77,1.77,0,0,0,.88,3.28,45.91,45.91,0,0,0,17.1-1.53l-1.71-2.93c-5.86,6.17-12.64,11.71-21.09,13.82-2.05.52-4.53.28-5.94,2a10.8,10.8,0,0,0-2.34,5.55,50.08,50.08,0,0,0-.13,6c0,.53-.28,5.15-1.17,4.52a1.77,1.77,0,0,0-2.41.67h0a1.46,1.46,0,0,0-.16.36l-2.76,7,2.58-1a10.47,10.47,0,0,1-2.84-1.69,1.72,1.72,0,0,0-2.43-.1h0a1.62,1.62,0,0,0-.49.81c-1.75,5.85-2.74,12-4.87,17.79a24.14,24.14,0,0,1-4.28,7.71c-2.49,2.75-6,3.51-9.47,4.39a30.92,30.92,0,0,0-5.86,2,43.46,43.46,0,0,0-5.47,3.51c-3.86,2.71-8.2,3.89-12.88,4.69a64.81,64.81,0,0,1-14.31,1.06,57.65,57.65,0,0,1-7.19-.63c-1.17-.16-2.34-.37-3.51-.61a7.26,7.26,0,0,1-2.7-.75,12.47,12.47,0,0,1-2.78-3.51,16.11,16.11,0,0,1-1.74-3.74,12.45,12.45,0,0,1-.37-7.2c1.59-5.94,7.75-8,13.26-8.53,6.78-.68,15.22,0,20.53-5.25a35.85,35.85,0,0,0,3.92-5.25c1.32-1.93,2.56-3.91,3.74-5.85a123.3,123.3,0,0,0,6.2-12.18c1.81-4,3.44-8.2,4.93-12.32.74-2.07,1.44-4.14,2.12-6.24a38.94,38.94,0,0,1,2.2-6.1c2-3.86,4.77-7.19,7.25-10.72a23.62,23.62,0,0,0,3-5.52,29.68,29.68,0,0,0,1.66-5.69,7.83,7.83,0,0,0-.85-5.22,1.77,1.77,0,0,0-2.46-.37,1.73,1.73,0,0,0-.58,2.09Z" transform="translate(-175.37 -113.08)" fill="blue" stroke="blue" stroke-miterlimit="10"/>
      <path d="M594,844.1a8.06,8.06,0,0,1,3.34-1.27,2.28,2.28,0,0,0-.09-.63c-.27-2.21-3.8-2.25-3.52,0C593.79,842.83,593.9,843.47,594,844.1Z" transform="translate(-175.37 -113.08)" fill="blue" stroke="blue" stroke-miterlimit="10"/>
      <path d="M477.76,249.17q1.39-5.58,2.62-11.22a1.78,1.78,0,0,0-1.17-2.16,201,201,0,0,1-28-6.76c-4.38-1.39-9-2.83-13.65-2.49a22.74,22.74,0,0,0-10.71,4.1c-3.51,2.34-6.81,5.13-10.84,6.5-2.13.73-1.17,4.12.93,3.4,4.51-1.54,8.12-4.55,12.06-7.1a22,22,0,0,1,6.18-3,18.34,18.34,0,0,1,8.4.09c5.75,1.17,11.3,3.38,17,4.87s11.71,2.77,17.68,3.76L477.1,237c-.8,3.75-1.67,7.5-2.63,11.21a1.77,1.77,0,0,0,3.39.94Z" transform="translate(-175.37 -113.08)" fill="blue" stroke="blue" stroke-miterlimit="10"/>
      <path d="M417.12,242.14a81.5,81.5,0,0,1,29.46-.58,65.2,65.2,0,0,1,14.05,4.3c4.43,1.88,8.82,3.77,13.68,4.08,2.26.14,2.25-3.37,0-3.51-5.05-.33-9.64-2.71-14.24-4.59A63.55,63.55,0,0,0,446,237.9a87.88,87.88,0,0,0-29.78.86c-2.22.42-1.28,3.8.93,3.38Z" transform="translate(-175.37 -113.08)" fill="blue" stroke="blue" stroke-miterlimit="10"/>
      <g>
        <path d="M513.76,252.57l.34-3.07a4.44,4.44,0,0,1,.16-1.4c.14-.23.23-.23.56-.32a41.72,41.72,0,0,1,5.86-1c4-.58,8-1,12-1.31a168.63,168.63,0,0,1,24,0c2.26.16,2.25-3.35,0-3.51a165.66,165.66,0,0,0-27.37.29c-4.51.42-9,1-13.5,1.79-1.66.29-3.51.45-4.49,2.09a7.17,7.17,0,0,0-.61,2.81l-.4,3.63c-.25,2.24,3.27,2.22,3.51,0Z" transform="translate(-175.37 -113.08)" fill="blue" stroke="blue" stroke-miterlimit="10"/>
        <path d="M513,256.94a186.44,186.44,0,0,1,41.64-.59c2.25.22,2.24-3.29,0-3.51a187,187,0,0,0-41.64.58C510.82,253.7,510.75,257.23,513,256.94Z" transform="translate(-175.37 -113.08)" fill="blue" stroke="blue" stroke-miterlimit="10"/>
      </g>
      <path d="M505.87,280.8a90.07,90.07,0,0,0,33.49,3.44c2.24-.19,2.26-3.7,0-3.51a87.2,87.2,0,0,1-32.56-3.32c-2.17-.65-3.1,2.74-.94,3.39Z" transform="translate(-175.37 -113.08)" fill="blue" stroke="blue" stroke-miterlimit="10"/>
      <path d="M508.07,279.63a24.9,24.9,0,0,1,8.9-4.36,45.15,45.15,0,0,1,5.15-1.17,24.41,24.41,0,0,1,5.58-.68c3.38.16,6.87,2.34,9.69,4.09a20.35,20.35,0,0,1,2.12,1.45c.57.48,1.06,1.17,1.65,1.6l.24.3c.51-.83.56-1.17.14-1a4.76,4.76,0,0,0-1.17.34c-1.11.29-2.22.56-3.34.82-2.2.5-1.28,3.88.93,3.38,1.86-.42,5-.66,6.31-2.21,1.53-1.83-.19-3.81-1.55-5.09a25.69,25.69,0,0,0-5.35-3.65,41.92,41.92,0,0,0-6.11-2.86c-4.38-1.48-9.45-.14-13.79,1a31.34,31.34,0,0,0-11.85,5.6c-1.77,1.43.74,3.9,2.49,2.5Z" transform="translate(-175.37 -113.08)" fill="blue" stroke="blue" stroke-miterlimit="10"/>
      <path d="M512.78,271.43c4.48-2.17,10.13-4.69,15.23-3.8a40.68,40.68,0,0,1,6.76,2,13.77,13.77,0,0,1,5.68,3.62c1.5,1.7,4-.79,2.48-2.48a16.74,16.74,0,0,0-6.36-4.19,38.26,38.26,0,0,0-8.2-2.42c-6-.92-12.16,1.68-17.4,4.23-2,1-.26,4,1.76,3Z" transform="translate(-175.37 -113.08)" fill="blue" stroke="blue" stroke-miterlimit="10"/>
      <path d="M517.54,274.75a7.36,7.36,0,0,0-.4,3.54,4.19,4.19,0,0,0,2.15,2.83,14.35,14.35,0,0,0,3.27,1.71,11.63,11.63,0,0,0,3.89.5,7.46,7.46,0,0,0,3.69-.77,6.51,6.51,0,0,0,2.36-2.36c1.18-2,1.58-4.72-.13-6.54a1.78,1.78,0,0,0-2.51,2.52h0l.09.14c-.07-.17-.09-.14,0,0v.61a7.21,7.21,0,0,1-.31,1c.12-.29-.12.21-.12.21l-.28.46c-.25.4.18-.14-.15.2l-.37.37c-.32.29.18,0-.2.14,0,0-.48.25-.19.13a6.07,6.07,0,0,1-2.36.22,7,7,0,0,1-2.48-.37,11.7,11.7,0,0,1-2.06-1.11l-.52-.33c-.26-.16,0,.08-.22-.16l-.11-.14c.07.09.08.09,0,0s0-.11,0,0v-.11a3.64,3.64,0,0,1,0-.66,9.8,9.8,0,0,1,.32-1.18,1.77,1.77,0,0,0-3.42-.94Z" transform="translate(-175.37 -113.08)" fill="blue" stroke="blue" stroke-miterlimit="10"/>
      <path d="M524.79,278.11a1.76,1.76,0,0,0,0-3.51h0a1.76,1.76,0,1,0-.27,3.51Z" transform="translate(-175.37 -113.08)" fill="blue" stroke="blue" stroke-miterlimit="10"/>
      <path d="M430.17,263.71c9.46,6.64,21.4,7.33,32.54,6.15,2.22-.24,2.26-3.75,0-3.52-10.55,1.17-21.77.65-30.78-5.67C430.08,259.37,428.31,262.42,430.17,263.71Z" transform="translate(-175.37 -113.08)" fill="blue" stroke="blue" stroke-miterlimit="10"/>
      <path d="M430.9,262.17a19.23,19.23,0,0,1,16.75-4.37,25,25,0,0,1,8.37,3.45c2.42,1.55,5.21,3.64,6.33,6.38.86,2.06,4.26,1.17,3.4-.94a18.48,18.48,0,0,0-7-7.81,27.92,27.92,0,0,0-10.2-4.47,22.92,22.92,0,0,0-20.17,5.27C426.8,261.19,429.35,263.72,430.9,262.17Z" transform="translate(-175.37 -113.08)" fill="blue" stroke="blue" stroke-miterlimit="10"/>
      <path d="M438.29,258.66a22.39,22.39,0,0,0,.37,4.25,6.62,6.62,0,0,0,1.32,3.4,6.31,6.31,0,0,0,3.19,1.71,21,21,0,0,0,3.86.73,13.94,13.94,0,0,0,7.56-1.17,5.41,5.41,0,0,0,2.63-2.41c.66-1.35.26-2.71.43-4.13a1.76,1.76,0,0,0-3.52,0h0c-.08.77.27,1.87,0,2.57a2.71,2.71,0,0,1-1.46,1,11.1,11.1,0,0,1-5.59.61,15.12,15.12,0,0,1-2.66-.54,4,4,0,0,1-1.76-.7,4.93,4.93,0,0,1-.62-2.34,16.73,16.73,0,0,1-.18-3,1.76,1.76,0,1,0-3.52,0Z" transform="translate(-175.37 -113.08)" fill="blue" stroke="blue" stroke-miterlimit="10"/>
      <path d="M446.13,263.4a1.76,1.76,0,1,0-1.76-1.76,1.76,1.76,0,0,0,1.76,1.76Z" transform="translate(-175.37 -113.08)" fill="blue" stroke="blue" stroke-miterlimit="10"/>
      <path d="M465.34,258.54a20.43,20.43,0,0,0-13.15-9.19c-6.59-1.52-13.42-.22-19.73,1.87-2.14.7-1.17,4.1.93,3.39,5.55-1.83,11.6-3.19,17.44-2a17.11,17.11,0,0,1,11.45,7.67,1.76,1.76,0,0,0,3-1.77Z" transform="translate(-175.37 -113.08)" fill="blue" stroke="blue" stroke-miterlimit="10"/>
      <path d="M495.6,158.43c-10,6.71-21.6,10.57-31.93,16.57a90.78,90.78,0,0,0-23.24,20.3c-13.53,16.4-22.42,35.87-30.82,55.17-2.5,5.73-5,11.47-7,17.41A76.45,76.45,0,0,0,398.89,287a142.74,142.74,0,0,0,1.76,35.45,92,92,0,0,0,11.24,30c5.86,10.1,14.06,18.33,22.37,26.41,6.88,6.7,13.91,13.92,23.28,17,4.86,1.58,10.1,2,15.23,2.53a58.33,58.33,0,0,0,16-.07,41.7,41.7,0,0,0,15.4-6.32c4.69-3,8.75-7.2,13-10.91,6.65-5.86,13.28-12.5,17-20.68A64.69,64.69,0,0,1,538,353c2.65-4.32,5.21-8.7,7.49-13.23a74.27,74.27,0,0,0,5.24-13.5,41.67,41.67,0,0,1,1.62-4.59,50.94,50.94,0,0,0,4.46-15.23,59.46,59.46,0,0,0-.19-10.92,59.42,59.42,0,0,1,.68-12.57c3.39-25.14,6.1-51-2.34-75.55a75.71,75.71,0,0,0-17.37-29,60.57,60.57,0,0,0-27.49-16.14,50.32,50.32,0,0,0-15.41-1.48c-2.25.14-2.26,3.66,0,3.52,21.72-1.37,41.09,12.78,51.25,31.18,11.71,21.26,12.37,46.2,9.91,69.78-.68,6.58-1.57,13.14-2.46,19.7a49.89,49.89,0,0,0-.32,11.06,53.8,53.8,0,0,1,.1,10.54,49.72,49.72,0,0,1-4.25,13.83c-1.41,3.27-2.1,6.75-3.3,10.09-2.61,7.28-6.74,14.05-10.76,20.64-3.09,5.05-5,10.61-8.62,15.33A87.1,87.1,0,0,1,515.11,378c-2.1,1.86-4.24,3.69-6.32,5.57a53.49,53.49,0,0,1-6.28,5.16,39,39,0,0,1-15,6,57.92,57.92,0,0,1-15.45-.13c-4.8-.52-9.8-.94-14.38-2.61a40.29,40.29,0,0,1-11.95-7.17c-3.67-3.11-7-6.61-10.45-9.93a168.32,168.32,0,0,1-11.86-12.33,85.13,85.13,0,0,1-16-28.11,106.69,106.69,0,0,1-5.15-31,144.64,144.64,0,0,1,.35-18.85,75.34,75.34,0,0,1,4.17-18.21c3.72-10.42,8.48-20.6,13.2-30.62a219,219,0,0,1,14.72-26.94A108.7,108.7,0,0,1,454.28,186a80.62,80.62,0,0,1,12.55-8.84c5.07-2.89,10.41-5.26,15.69-7.73a109.29,109.29,0,0,0,14.9-8.07c1.88-1.24.12-4.29-1.76-3Z" transform="translate(-175.37 -113.08)" fill="blue" stroke="blue" stroke-miterlimit="10"/>
      <path d="M551.86,330.38a48.76,48.76,0,0,0-1-7c-.47-2.21-3.85-1.28-3.38.93v.06c2,9.37.34,18.82-2.13,27.89s-5.78,18.26-7.76,27.65a226.11,226.11,0,0,0-3.83,29.43c-.78,10.07-1.4,20.15-2.08,30.24l-4.16,61.62c-1.17,18.16-1.36,37.6-9.23,54.4A51,51,0,0,1,508.16,570l-.27.36A24.71,24.71,0,0,1,504,574a3.77,3.77,0,0,1-1.53.71,33.22,33.22,0,0,1-19.91,6.45,8.51,8.51,0,0,1-1.43-.07,126.67,126.67,0,0,0,20.1-18.55,36.24,36.24,0,0,0,1.86-3.68c.31-.74.6-1.49.87-2.24a1.49,1.49,0,0,0-2.07-.27,1.15,1.15,0,0,0-.27.27,125.59,125.59,0,0,1-25.9,24,1.79,1.79,0,0,0-.57,2.46h0a1.65,1.65,0,0,0,1,.75c15.93,3.65,31.52-5.76,40.54-18.45,10.68-15,12.33-34.49,13.51-52.27q2.2-31.44,4.32-63.06l2.14-31.76c.69-10.23,1.41-20.48,3.07-30.6,1.6-9.84,4.52-19.26,7.38-28.79C550,349.66,552.46,340.13,551.86,330.38Z" transform="translate(-175.37 -113.08)" fill="blue" stroke="blue" stroke-miterlimit="10"/>
      <path d="M550.26,650.92a200.35,200.35,0,0,1-13-19.51,12.73,12.73,0,0,1-3.62-5.42h0a1.66,1.66,0,0,1-.19-.48v-.09a2.35,2.35,0,0,1,0-.53c0-.23-.08-.47-.1-.7s-.12-.2-.17-.3a4.54,4.54,0,0,1-.44-1.18c-6.53-13.6-10.31-28.27-7.78-43.34a114.92,114.92,0,0,1,5.62-19.58c2.34-6.76,4.69-13.52,6.47-20.46s3.21-13.89,4.53-20.89a207.18,207.18,0,0,0,3.51-21.6,60.89,60.89,0,0,0-3-22.78c-2.2-7.3-5-14.45-6.25-22-.37-2.22-3.77-1.29-3.38.93h0c2.34,13.47,9.37,25.91,9.23,39.82-.11,7.4-1.73,14.69-3.08,21.92s-2.77,14.37-4.51,21.52A210.39,210.39,0,0,1,528,556.4a142.75,142.75,0,0,0-6.15,19.91c-2.56,12.73-.91,25.77,3.52,37.89a116.29,116.29,0,0,0,8.2,17.69,2.1,2.1,0,0,1,1.82,2.07,4.34,4.34,0,0,0,0,.51,6.91,6.91,0,0,0,.37,1.17c2.91,4.86,6.08,9.57,9.37,14.15-5.93-.93-11.13-4.93-14.49-9.88a29.2,29.2,0,0,1-2.25-3.86,14.32,14.32,0,0,1-3.72-3.92,25.16,25.16,0,0,1-3-5.66l-.1-.26a5.92,5.92,0,0,1-.79-1.07c1.57,6.28,3.68,12.47,7.56,17.64,4.77,6.36,12.13,11.21,20.33,10.71a1.77,1.77,0,0,0,1.56-2.57Z" transform="translate(-175.37 -113.08)" fill="blue" stroke="blue" stroke-miterlimit="10"/>
      <path d="M621.28,622c-11.62-12-12.39-29.61-10.76-45.27.23-2.25-3.28-2.22-3.52,0-1.73,16.63-.49,35.14,11.8,47.76C620.36,626.12,622.85,623.66,621.28,622Z" transform="translate(-175.37 -113.08)" fill="blue" stroke="blue" stroke-miterlimit="10"/>
      <path d="M570.94,601.14c-7-22-6-45.42-8-68.14a183.49,183.49,0,0,0-2.6-19.25c-.43-2.22-3.82-1.28-3.4.93,4.41,22.6,2.93,45.8,6.35,68.51a120.7,120.7,0,0,0,4.29,18.87c.68,2.15,4.08,1.17,3.38-.93Z" transform="translate(-175.37 -113.08)" fill="blue" stroke="blue" stroke-miterlimit="10"/>
      <path d="M402.09,331.64l-4.69,18.11a52,52,0,0,1-6.19,15.14,152,152,0,0,1-8.87,12.66A42.9,42.9,0,0,1,371.09,388a1.77,1.77,0,0,0,1.8,3h0c7.18-4.32,12.28-11,17-17.79a93,93,0,0,0,7-11.07,63.58,63.58,0,0,0,4.33-12.88l4.29-16.74c.55-2.19-2.84-3.13-3.4-.94Z" transform="translate(-175.37 -113.08)" fill="blue" stroke="blue" stroke-miterlimit="10"/>
      <path d="M340.46,333.51a119.65,119.65,0,0,1-41.65,40.78,1.76,1.76,0,0,0,1.37,3.24,1.52,1.52,0,0,0,.41-.24h0a123.87,123.87,0,0,0,42.87-42.05,1.74,1.74,0,0,0-3-1.77Z" transform="translate(-175.37 -113.08)" fill="blue" stroke="blue" stroke-miterlimit="10"/>
      <path d="M398.89,229.49a151.8,151.8,0,0,0-11.37,49.69c-.34,5.86-.21,11.83-.18,17.75a108.7,108.7,0,0,1-1,17.57,78.16,78.16,0,0,1-3.8,14.5,114.81,114.81,0,0,1-14.32,26.32,326.84,326.84,0,0,1-21.91,26.94c-1.48,1.69,1,4.18,2.49,2.48,13.46-15.35,27.22-31.26,35.3-50.24a84.52,84.52,0,0,0,6.64-31c.17-6-.08-12,0-18a146.73,146.73,0,0,1,11.51-55.05c.86-2.09-2.53-3-3.4-.94Z" transform="translate(-175.37 -113.08)" fill="blue" stroke="blue" stroke-miterlimit="10"/>
      <path d="M370.64,256.76a113.4,113.4,0,0,1-1.37,53.88A110.75,110.75,0,0,1,359,336a244.64,244.64,0,0,1-15.22,23c-6.07,8.52-12.16,17-17.12,26.09-1.08,2,2,3.77,3,1.78,9-16.65,21.69-30.87,31.18-47.19A117.63,117.63,0,0,0,376.56,287a116,116,0,0,0-2.51-31.2c-.49-2.22-3.88-1.28-3.4.92Z" transform="translate(-175.37 -113.08)" fill="blue" stroke="blue" stroke-miterlimit="10"/>
      <path d="M644.65,820.45a57,57,0,0,0,21.69,40.19,53.07,53.07,0,0,0,11.46,6.86,1.75,1.75,0,0,0,2.34-.68h0a1.79,1.79,0,0,0,.21-.79,65.18,65.18,0,0,0-.42-12.49,1.76,1.76,0,1,0-3.51-.26,1.13,1.13,0,0,0,0,.26c-1.17,9.13,9.37,15.1,16.15,18.74a81.24,81.24,0,0,0,27.53,8.78c1.45.18,2-1.61,1.51-2.65l-6.35-13.72L712.92,867a80.09,80.09,0,0,0,51.54,9c1.4-.23,1.54-2,.77-2.94l-7.38-8.42-1.17,3A101.09,101.09,0,0,0,792,866c2.21-.49,1.27-3.88-.93-3.38a98.27,98.27,0,0,1-34.36,1.54c-1.65-.22-2.12,2-1.24,3l7.37,8.47.77-2.93a76.27,76.27,0,0,1-48.86-8.6,1.77,1.77,0,0,0-2.34.88,1.79,1.79,0,0,0,0,1.47l6.35,13.71,1.52-2.63a76.55,76.55,0,0,1-24.9-7.79,54.49,54.49,0,0,1-10.43-6.6c-2.85-2.43-5.4-5.56-4.89-9.53h-3.52a65.91,65.91,0,0,1,.4,12.48l2.65-1.52a53.59,53.59,0,0,1-28.84-31.63,50.09,50.09,0,0,1-2.55-12.4c-.18-2.24-3.69-2.26-3.52,0Z" transform="translate(-175.37 -113.08)" fill="blue" stroke="blue" stroke-miterlimit="10"/>
      <path d="M679.23,794.32a214.46,214.46,0,0,0,36.87,25.6l-.63-2.34a1.87,1.87,0,0,1-2,.84l-.47,3.45q17.58.81,35.15,2.94l-1.53-2.65a3.65,3.65,0,0,1-4.54,2.1l-.47,3.44a220.61,220.61,0,0,1,36.7-1.29V822.9a25.15,25.15,0,0,0-10.67,2.24,1.75,1.75,0,0,0-.64,2.34h0a2.21,2.21,0,0,0,.61.61l12.56,6.42-.35-2.77-3.18,2.91a1.78,1.78,0,0,0,.07,2.51h0a1.79,1.79,0,0,0,1.18.49l36.21,3.76c1.49.15,3,.23,4.49.46,1,.14,1.92.39,2.06,1.47.29,2.21-2,3.42-3.75,3.91-2.55.73-5.24,1-7.84,1.52a82,82,0,0,0-8.08,2,121.58,121.58,0,0,0-18,6.78,1.77,1.77,0,0,0-.59,2.43,1.7,1.7,0,0,0,1,.78,62.86,62.86,0,0,0,20.34,2l-.89-3.27a15.23,15.23,0,0,1-13.18,2.21c-2.17-.66-3.1,2.74-.93,3.38a18.5,18.5,0,0,0,15.89-2.55c1.3-.93,1-3.4-.89-3.28a59.75,59.75,0,0,1-19.38-1.93l.42,3.21a113.42,113.42,0,0,1,17.92-6.65c3-.84,6.07-1.55,9.14-2.14,2.78-.53,5.75-.73,8.32-2a7,7,0,0,0,4-5.7,5,5,0,0,0-3.52-5.31,21.06,21.06,0,0,0-4.25-.62l-5.13-.47-10.34-1.06-23-2.35,1.25,3,3.17-2.92a1.76,1.76,0,0,0,0-2.48,1.31,1.31,0,0,0-.35-.27l-11.9-6.38v3a17.23,17.23,0,0,1,8.29-1.77,1.76,1.76,0,0,0,0-3.52,221.21,221.21,0,0,0-36.66,1.29,1.78,1.78,0,0,0-.47,3.52h0a7.13,7.13,0,0,0,8.52-3.7,1.8,1.8,0,0,0-.72-2.43,1.88,1.88,0,0,0-.8-.22q-17.49-2.15-35.14-2.94a1.77,1.77,0,1,0-.47,3.51h0a5.48,5.48,0,0,0,6-2.45,1.77,1.77,0,0,0-.62-2.41,208.25,208.25,0,0,1-36.2-25c-1.71-1.47-4.21,1-2.49,2.48Z" transform="translate(-175.37 -113.08)" fill="blue" stroke="blue" stroke-miterlimit="10"/>
      <path d="M428,745.94a17.08,17.08,0,0,1-9.65-2.34,1.74,1.74,0,0,0-1.72,3,20.72,20.72,0,0,0,11.43,2.8,1.76,1.76,0,0,0,.27-3.51h-.27Z" transform="translate(-175.37 -113.08)" fill="blue" stroke="blue" stroke-miterlimit="10"/>
      <path d="M456.67,727.75a81.51,81.51,0,0,0-8.59-2.85,1.75,1.75,0,0,0-2.2,1.16h0a1.73,1.73,0,0,0,1.15,2.17h.19a80.93,80.93,0,0,1,8.6,2.85,1.73,1.73,0,0,0,2.15-1.17h0a1.8,1.8,0,0,0-1.17-2.17Z" transform="translate(-175.37 -113.08)" fill="blue" stroke="blue" stroke-miterlimit="10"/>
      <path d="M580.23,306.57c-3.13,30.26-8.47,60.45-8.2,91a173,173,0,0,0,5.56,44.08A124.79,124.79,0,0,0,585,461.92c2.94,6.3,6.33,12.38,9.64,18.51,7.16,13.27,14.73,27.62,14,43.15-.1,2.26,3.41,2.26,3.52,0,.65-13.64-4.89-26.53-11-38.41-6.47-12.53-13.8-24.59-18.23-38-9.44-28.74-8.28-59.53-5.22-89.23,1.77-17.14,4.21-34.21,6-51.34.24-2.25-3.28-2.23-3.51,0Z" transform="translate(-175.37 -113.08)" fill="blue" stroke="blue" stroke-miterlimit="10"/>
      <path d="M281.45,552.49a1.77,1.77,0,0,0,.19-2,1.83,1.83,0,0,0-2.42-.64l-4.68,2.78a1.76,1.76,0,0,0,.91,3.4l.21-.07.13-.05.21-.09a1,1,0,0,0,.28-.16h0l4.39-2.61A4.82,4.82,0,0,1,281.45,552.49Z" transform="translate(-175.37 -113.08)" fill="blue" stroke="blue" stroke-miterlimit="10"/>
      <path d="M274.42,553l-9.76,6.82a1.76,1.76,0,0,0,1.79,3h0L276.2,556a1.76,1.76,0,0,0-1.78-3Z" transform="translate(-175.37 -113.08)" fill="blue" stroke="blue" stroke-miterlimit="10"/>
      <path d="M280.83,553.25a5.34,5.34,0,0,0-4.55-.28,1.83,1.83,0,0,0-1.17,2.17,1.75,1.75,0,0,0,2.17,1.17,3.45,3.45,0,0,1,.83-.25h.27l.61.16A5.63,5.63,0,0,1,280.83,553.25Z" transform="translate(-175.37 -113.08)" fill="blue" stroke="blue" stroke-miterlimit="10"/>
      <path d="M606.71,688.38c-2.45-2.71-3.59-6.18-4.58-9.64a68.29,68.29,0,0,0-3.51-10.33c-3.28-7-8.74-12.7-14.28-17.95-1.64-1.55-4.14.93-2.48,2.49h0a97.18,97.18,0,0,1,8.62,9.07,7.88,7.88,0,0,1,3.12,4.42,36,36,0,0,1,2.45,4.69c2.85,6.61,3.16,14.22,8.2,19.78C605.7,692.5,608.22,690.05,606.71,688.38Z" transform="translate(-175.37 -113.08)" fill="blue" stroke="blue" stroke-miterlimit="10"/>
      <path d="M586.53,773.6a1.76,1.76,0,1,0-1.76-1.76,1.76,1.76,0,0,0,1.76,1.76Z" transform="translate(-175.37 -113.08)" fill="blue" stroke="blue" stroke-miterlimit="10"/>
      <path d="M587.28,769.25c-.42-.54-1.07-1.42-1.57-2.19s-1-1.6-1.48-2.45-.89-1.69-1.27-2.55c0-.12-.11-.24-.16-.34s-.09-.24,0-.1c-.1-.22-.18-.45-.28-.67-.18-.47-.35-.93-.51-1.4a1.76,1.76,0,0,0-3.39.94,37.48,37.48,0,0,0,6.21,11.24,1.76,1.76,0,0,0,2.48,0,1.8,1.8,0,0,0,0-2.48Z" transform="translate(-175.37 -113.08)" fill="blue" stroke="blue" stroke-miterlimit="10"/>
      <path d="M587.34,771.59h.4c-.48-.82-1-.82-1.47,0h-.19l-.56-.44a2.93,2.93,0,0,0-.65.51,1.77,1.77,0,0,0-.27,2.13,1.84,1.84,0,0,0,.63.64,14.7,14.7,0,0,0,1.38.68h.3a3,3,0,0,0,.73-.12,2.68,2.68,0,0,0,2.05-2.17v-.55a2.23,2.23,0,0,0-.24-.49,1.75,1.75,0,0,0-.52-.53l-.31-.21a3.56,3.56,0,0,0-5,1.85,1.64,1.64,0,0,0,.19,1.26,1.81,1.81,0,0,0,2.33.59l.35-.26a1.71,1.71,0,0,0,.46-.72h0l-.18.38a1.27,1.27,0,0,1,.2-.31l-.27.32a1.38,1.38,0,0,1,.31-.28l-.35.25a1.7,1.7,0,0,1,.44-.24l-.42.16a2.42,2.42,0,0,1,.45-.1h-.46a1.19,1.19,0,0,1,.46,0l-.46-.07a1.86,1.86,0,0,1,.39.1l-.42-.16.24.11-.36-.24.08.07-.28-.33a.06.06,0,0,1,0,.06l-.18-.39V772l.23-.42-.12.21.27-.36a1.45,1.45,0,0,1-.21.22l.35-.27-.3.16.42-.17a1,1,0,0,1-.33.09l.46-.07a.38.38,0,0,0-.34.22h.47a.58.58,0,0,0-.34-.31l.42.18-.15-.08.35,2.75.17-.15-.35.27.27-.15-.42.17.33-.33H587a.57.57,0,0,0,.69.25,1.1,1.1,0,0,0,.65-.21,1.74,1.74,0,0,0,.81-1,1.81,1.81,0,0,0-.17-1.35c-.25-.38-1.64-.81-1.64-.81Z" transform="translate(-175.37 -113.08)" fill="blue" stroke="blue" stroke-miterlimit="10"/>
      <path d="M590.86,773.6a66.07,66.07,0,0,0,8.57-5,1.74,1.74,0,0,0-1.71-3,66.18,66.18,0,0,1-8.58,5,1.73,1.73,0,0,0,1.72,3Z" transform="translate(-175.37 -113.08)" fill="blue" stroke="blue" stroke-miterlimit="10"/>
      <path d="M586.82,770.08l-2.13.86a3,3,0,0,0-.86.52,2.44,2.44,0,0,0-.36,3,2.12,2.12,0,0,0,.47.6,3.17,3.17,0,0,0,1.08.63,4.37,4.37,0,0,0,1.29.22,2.32,2.32,0,0,0,1.89-.66,2,2,0,0,0,.32-.91v-1.07a1.9,1.9,0,0,1,.11-.39,8.11,8.11,0,0,0,.14-.86,3.75,3.75,0,0,0-.09-.82,2.32,2.32,0,0,0-.32-.76,2.74,2.74,0,0,0-.9-.86,1.5,1.5,0,0,0-.71-.21,1.2,1.2,0,0,0-.75,0,1.88,1.88,0,0,0-1.12.79,1.64,1.64,0,0,0-.21,1.36l.21.42a2,2,0,0,0,.66.64h0l-.39-.27.14.12-.29-.36.11.18-.18-.41a1.28,1.28,0,0,1,.07.28v-.47a3.53,3.53,0,0,1,0,.46l.08-.47a3.26,3.26,0,0,1-.23.81L585,772l-.08.11.29-.35-.07.07.38-.27h.32l.43,1.17h-.11l.47-.48a2,2,0,0,1-.69,0l.47.07a2,2,0,0,1-.53-.14l.42.18a1.3,1.3,0,0,1-.26-.14l.37.27-.17-.15.28.35a.51.51,0,0,1-.12-.23l.17.43a.39.39,0,0,1-.06-.21l-.38.46V773l1.17.47v-.14l-1,.42a.09.09,0,0,1,0-.1L586,774l.12-.13-.35.28a.94.94,0,0,1,.26-.14l-.42.17,1.92-.77a1.26,1.26,0,0,0,.6-.3,1.61,1.61,0,0,0,.65-1.17,1.08,1.08,0,0,0,0-.71,1.89,1.89,0,0,0-.8-1l-.43-.18a1.83,1.83,0,0,0-.93,0Z" transform="translate(-175.37 -113.08)" fill="blue" stroke="blue" stroke-miterlimit="10"/>
      <path d="M306.74,627.72a33.79,33.79,0,0,0,14.06,6.06c1.85.32,4,.32,5.44-1.17a3.62,3.62,0,0,0,1-2.65c0-.44-1-2.76-.77-3a17.17,17.17,0,0,1,1.87.37,9.79,9.79,0,0,0,3,.31,13.19,13.19,0,0,0,5.41-1.8c3.35-1.84,6.57-4.76,10.65-4,2.25.41,4.53,1.27,6.83.71a6.57,6.57,0,0,0,2.88-1.6c.85-.77,1.52-1.87,2.65-2.26,2.08-.73,4.61.42,6.77.39,2.61,0,4.41-1.54,6.77-2.35,2.12-.72,4.38-.07,6.48.46a18.15,18.15,0,0,0,6.54.87c2.49-.28,4.09-1.67,6.09-3s4.69-1.09,7.2-1.17A56.17,56.17,0,0,0,432.13,603c1.81-1.33,0-4.37-1.78-3a52.93,52.93,0,0,1-28.11,10.27c-2.49.16-5-.09-7.5.2s-4.2,1.57-6.25,2.95c-3.77,2.56-8.38-.22-12.43-.56a11.58,11.58,0,0,0-6.4,1.56,7.09,7.09,0,0,1-3.25,1.05,19,19,0,0,1-3.36-.36c-2.35-.31-4.57-.28-6.47,1.17-.81.66-1.4,1.56-2.24,2.19a4.07,4.07,0,0,1-3.33.45c-2.24-.42-4.37-1.1-6.67-.76a15.09,15.09,0,0,0-5.22,2c-2.93,1.65-6.14,4.52-9.74,3.72-2.08-.45-4.68-1-6,1.17a4.09,4.09,0,0,0-.19,3.25c.2.7.91,1.6.07,1.93a5.9,5.9,0,0,1-3-.3,34.58,34.58,0,0,1-4-1.17,31.73,31.73,0,0,1-7.64-4.19c-1.84-1.32-3.59,1.73-1.78,3Z" transform="translate(-175.37 -113.08)" fill="blue" stroke="blue" stroke-miterlimit="10"/>
      <path d="M568.47,794.27a27.51,27.51,0,0,0-5.23-7.46,1.75,1.75,0,0,0-2.48,2.48,19.7,19.7,0,0,1,1.44,1.58c.13.14.23.3.35.44a.65.65,0,0,0,.15.18c-.07,0-.18-.24,0,0s.44.59.65.89a24.49,24.49,0,0,1,2.13,3.72,1.73,1.73,0,0,0,3-1.71Z" transform="translate(-175.37 -113.08)" fill="blue" stroke="blue" stroke-miterlimit="10"/>
    </g>
    <path d="M301.75,452.2a8.25,8.25,0,0,0,.35,3.12,2.82,2.82,0,0,0,2.26,1.94,1.49,1.49,0,0,0,.8-.2,2,2,0,0,0,.8-1.17,4.52,4.52,0,0,0,.25-1.79,2,2,0,0,0-.9-1.5,3.07,3.07,0,0,0-2.58.23.91.91,0,0,0-.37.24c-.31.36.08.9.48,1.17a6,6,0,0,0,1.6.81.94.94,0,0,0,.47,0,.74.74,0,0,0,.39-.35,2.35,2.35,0,0,0,.23-2,1.86,1.86,0,0,0-1.57-1.17,2.91,2.91,0,0,0-2.25,1.5" transform="translate(-175.37 -113.08)" fill="blue" stroke="blue" stroke-miterlimit="10"/>
    <path d="M360.89,461.4l-.42,1.32a6.28,6.28,0,0,0-.41,1.91,2.32,2.32,0,0,0,.66,1.77,2,2,0,0,0,2,.36,3,3,0,0,0,1.59-1.42,3.3,3.3,0,0,0,.33-2.57,2.51,2.51,0,0,0-1.86-1.73,1.17,1.17,0,0,0-.76.11.87.87,0,0,0-.36.44,1.83,1.83,0,0,0,.1,2.05,1.17,1.17,0,0,0,1.65.16h0a1,1,0,0,0,.19-.21,1.91,1.91,0,0,0,.15-.88,2.16,2.16,0,0,0-.25-1.17,1.41,1.41,0,0,0-1.17-.5,3.51,3.51,0,0,0-1.18.36,1.84,1.84,0,0,0-1,.8c-.31.67.19,1.42.65,2a3.72,3.72,0,0,0,1.74,1.42,2.44,2.44,0,0,0,2.34-.71,5.86,5.86,0,0,0,1.25-2.16.87.87,0,0,0,.06-.45,1.21,1.21,0,0,0-.2-.3,6.28,6.28,0,0,0-3.51-1.77,3.09,3.09,0,0,1,2,1,4.68,4.68,0,0,1,.95,2.34,3.51,3.51,0,0,1-.29,2.23,2.77,2.77,0,0,1-2.35,1.17,1.29,1.29,0,0,1-1-.28,1.3,1.3,0,0,1-.38-.71,11.79,11.79,0,0,1-.24-3.65,2.68,2.68,0,0,1,.62-2.05,2.78,2.78,0,0,0-2.76,2,5.19,5.19,0,0,0,.4,3.59,3.84,3.84,0,0,0,1.42,1.85,1.85,1.85,0,0,0,2.19-.07" transform="translate(-175.37 -113.08)" fill="blue" stroke="blue" stroke-miterlimit="10"/>
    <path d="M301.52,453.45a2.59,2.59,0,0,1,1.4-1.74,2.73,2.73,0,0,1,2.24,0,3.51,3.51,0,0,0-3,.77,2.6,2.6,0,0,0,.26,3.12" transform="translate(-175.37 -113.08)" fill="blue" stroke="blue" stroke-miterlimit="10"/>
    <path d="M447.21,260.87a2.5,2.5,0,0,0,.46,2.34,1.92,1.92,0,0,0,2.34.46,2.68,2.68,0,0,0,1-2.65c-.11-1.17-.88-2.48-2-2.34s-1.61,1.64-1.74,2.85a1.45,1.45,0,0,0,.13,1c.19.27.54.36.81.56s.37.68.08.82a5.43,5.43,0,0,1-1.26-3.68,1.4,1.4,0,0,0-1,1.7h0a2.34,2.34,0,0,0,1.48,1.62,4.54,4.54,0,0,0,2.5.24" transform="translate(-175.37 -113.08)" fill="blue" stroke="blue" stroke-miterlimit="10"/>
    <path d="M524.68,278.17l.1-3.07c-.54-.34-1,.53-1.07,1.17a2.9,2.9,0,0,0,.64,2.62,1.89,1.89,0,0,0,2.58-.58,2.58,2.58,0,0,0-.85-3.51,3.36,3.36,0,0,0-.54-.26l.92-.15" transform="translate(-175.37 -113.08)" fill="blue" stroke="blue" stroke-miterlimit="10"/>
    <path d="M452.77,495.86a232.09,232.09,0,0,0,27.63,22.71c7.62,5.42,20.46,9.09,24.49,18.21" transform="translate(-175.37 -113.08)" fill="blue" stroke="blue" stroke-miterlimit="10"/>
    <path d="M454,497a7.27,7.27,0,0,0-2.68-3.08l-4.41-3.37a36.79,36.79,0,0,0-5.47-3.71" transform="translate(-175.37 -113.08)" fill="blue" stroke="blue" stroke-miterlimit="10"/>
    <path d="M435.86,506.39a4.12,4.12,0,0,0,2.16-3.28c.24-1.35.15-2.74.45-4.08.78-3.42,4.13-6.32,3.39-9.76" transform="translate(-175.37 -113.08)" fill="blue" stroke="blue" stroke-miterlimit="10"/>
    <path d="M573.42,678.55a42.31,42.31,0,0,0,7.18-17.1" transform="translate(-175.37 -113.08)" fill="blue" stroke="blue" stroke-miterlimit="10"/>
    <path d="M527.22,637.09c-1.07-1.59-3.07-3.52-4.12-5.17-.53-.81-1.83-2.71-2.34-3.51-.74-1.17-1.62-2.35-2.35-3.52" transform="translate(-175.37 -113.08)" fill="blue" stroke="blue" stroke-miterlimit="10"/>
    <path d="M539.23,637.19c-.87-2.24-2.79-4.41-4.39-6.49-1.17-1.51-2.24-2.84-2.35-4.68" transform="translate(-175.37 -113.08)" fill="blue" stroke="blue" stroke-miterlimit="10"/>
    <path d="M553.51,670.74a64.37,64.37,0,0,0,15.06.7" transform="translate(-175.37 -113.08)" fill="blue" stroke="blue" stroke-miterlimit="10"/>
    <path d="M577.16,671.62a11.25,11.25,0,0,0,9.37-1.62,33.85,33.85,0,0,0,7-6.68" transform="translate(-175.37 -113.08)" fill="blue" stroke="blue" stroke-miterlimit="10"/>
    <path d="M558.19,650.42q.36,6.52,1.36,13c.13.84.49,1.87,1.34,1.89s1.17-.87,1.45-1.61a114.53,114.53,0,0,0,5.11-36.31" transform="translate(-175.37 -113.08)" fill="blue" stroke="blue" stroke-miterlimit="10"/>
    <path d="M249.77,601.73l-3.67,4" transform="translate(-175.37 -113.08)" fill="blue" stroke="blue" stroke-miterlimit="10"/>
    <path d="M360.45,462.3a4,4,0,0,0,.63,3.84,3,3,0,0,0,3.51.87,4.14,4.14,0,0,0,1.94-5.23,5.34,5.34,0,0,0-1.78-2.34,3.71,3.71,0,0,0-3.06-.61,2.73,2.73,0,0,0-1.74,1.78c-.16.45-.3.91-.44,1.37a7.15,7.15,0,0,0-.5,3.51,3.19,3.19,0,0,0,3,2.68,2.82,2.82,0,0,0,2.73-1.95,2.58,2.58,0,0,0,0-1.35,1.79,1.79,0,0,0-2.16-1.23h0a1.69,1.69,0,0,0-1,.81,4.12,4.12,0,0,0-.23,1.35v.08l1.17-.47v-.15l-1-.42-.07.13c-.11.23.26-.28.12-.17s.33-.16.18-.12l-.16.09.41-.18-.28.09h.63l-.22-.08.41.18-.21-.1c.24.19.3.23.17.11l-.08-.08c-.13-.12.26.4.08.09a2,2,0,0,1-.14-.25l.19.42a1.29,1.29,0,0,1,0-.48v.45a2.51,2.51,0,0,1-.11-.72l-.07.47a10.22,10.22,0,0,1,.46-1.64c.16-.53.32-1.07.51-1.58l-.17.42.12-.24c0,.11-.59.51-.31.38l-.42.17.25-.07-.47.23h.35l-.46-.23a3.28,3.28,0,0,1,.63.19l-.41-.18.43.24c.23.15-.39-.33-.09-.06l.18.18c.1.11.23.36-.07-.11l.14.2c.09.15.18.31.69.48v-.44c-.34.26-.27.53-.22.82l-.07-.47a2.73,2.73,0,0,1,0,.7l.07-.47a3.28,3.28,0,0,1-.19.68l.18-.42-.13.26-.1.14.14-.18-.21.21c.25-.17.3-.22.14-.12l-.15.09.42-.18c-.1.05-.32-.16-.32-.16h.12l.47.33a1.39,1.39,0,0,1-.33-.1l.43.18-.25-.12h0v-.07c-.09-.13-.06-.08.14.15l-.13-.22.18.42c-.09-.18,1-.56,1-.56v.55s-1.16-.46,0-.69v.47c-1.1-.2-1.05-.39-1-.58a1.76,1.76,0,0,0-1.17-2.16,1.82,1.82,0,0,0-2.17,1.23Z" transform="translate(-175.37 -113.08)" fill="blue" stroke="blue" stroke-miterlimit="10"/>
    <path d="M301.36,451.32a6.79,6.79,0,0,0-1.17,2.06,4.38,4.38,0,0,0-.23,2,3.17,3.17,0,0,0,.23,1.09,3.79,3.79,0,0,0,2.41,2.34,3.51,3.51,0,0,0,3.76-.77,4.7,4.7,0,0,0,.77-4.48,4.36,4.36,0,0,0-1.68-2.34,3.3,3.3,0,0,0-2.8-.4,1.91,1.91,0,0,0-1,.81,1.75,1.75,0,0,0-.17,1.36,1.69,1.69,0,0,0,.81,1,1.62,1.62,0,0,0,1.34.18l.31-.07-.47.06h.37l-.46-.06a1.62,1.62,0,0,1,.43.12l-.42-.19a3.87,3.87,0,0,1,.43.27l-.35-.28.33.32-.28-.35c.11.18.22.36.31.54l-.17-.42a5.68,5.68,0,0,1,.27,1v-.47a6.61,6.61,0,0,1,0,1.09l.07-.47a3,3,0,0,1-.17.58l.18-.42a1.87,1.87,0,0,1-.22.39l.27-.36a2.23,2.23,0,0,1-.26.27l.35-.28a1.45,1.45,0,0,1-.34.2l.42-.18a1.19,1.19,0,0,1-.42.11l.47-.06a2.53,2.53,0,0,1-.55,0l.45.06a2.46,2.46,0,0,1-.53-.15l.42.17a2.94,2.94,0,0,1-.55-.3l.36.27a2.22,2.22,0,0,1-.38-.37l.29.35a1.66,1.66,0,0,1-.29-.48l.18.43a2.31,2.31,0,0,1-.16-.64l.07.47a2.49,2.49,0,0,1,0-.77l-.07.47a3.86,3.86,0,0,1,.25-1l-.17.42a4.31,4.31,0,0,1,.57-1l-.27.36h0a1.77,1.77,0,0,0,0-2.49,1.87,1.87,0,0,0-1.24-.51,1.76,1.76,0,0,0-1.24.51Z" transform="translate(-175.37 -113.08)" fill="blue" stroke="blue" stroke-miterlimit="10"/>
    <path d="M322.07,508.16c-5.55-1-11.94-.44-15.52,4.49a9,9,0,0,0,1.5,12.64,9.09,9.09,0,0,0,1,.71,19.9,19.9,0,0,0,8.54,2.45,71.75,71.75,0,0,0,9.81,1,8.43,8.43,0,0,0,7.15-3.43,10.15,10.15,0,0,0,1.71-7.1,11,11,0,0,0-7.14-9.25c-1.61-.61-3.37-.77-4.93-1.51-2-.95-3.83,2.08-1.78,3s4.27,1.09,6.23,2.06a7.93,7.93,0,0,1,3.51,3.79c1.44,3.24.59,8.2-3.51,8.82-2.34.37-4.83-.2-7.11-.48a56.29,56.29,0,0,1-7.54-1.17c-3.8-1-7.24-4-5.45-8.2,2.07-4.84,8-5.37,12.52-4.54,2.21.41,3.16-3,.94-3.38Z" transform="translate(-175.37 -113.08)" fill="blue" stroke="blue" stroke-miterlimit="10"/>
    <path d="M299.56,540.84c8.33.07,14.92-5.39,20.51-11l-3-1.24a26.37,26.37,0,0,0,7,19.16c1.54,1.66,4-.83,2.48-2.48a22.88,22.88,0,0,1-6.08-16.68,1.75,1.75,0,0,0-1.77-1.73h0a1.71,1.71,0,0,0-1.19.49c-4.9,4.9-10.66,10-18,9.93a1.76,1.76,0,0,0,0,3.52Z" transform="translate(-175.37 -113.08)" fill="blue" stroke="blue" stroke-miterlimit="10"/>
    <path d="M447.3,260.94l-.36.95a1.16,1.16,0,0,0,0,.69,1.18,1.18,0,0,0,.21.66,1,1,0,0,0,.44.49,1.3,1.3,0,0,0,.6.32l.47.07a1.76,1.76,0,0,0,.89-.25l.35-.27a2,2,0,0,0,.46-.78l.36-.94a1.19,1.19,0,0,0,0-.7,1.42,1.42,0,0,0-.21-.66,1.59,1.59,0,0,0-.44-.49,1.93,1.93,0,0,0-.6-.32H449a1.75,1.75,0,0,0-.89.24l-.35.28A1.75,1.75,0,0,0,447.3,260.94Z" transform="translate(-175.37 -113.08)" fill="blue" stroke="blue" stroke-miterlimit="10"/>
    <path d="M447.22,261.63l-.07.08.35-.28-.1.07.42-.62h.55l.43.18a.45.45,0,0,1-.19-.11l.35.27a.58.58,0,0,1-.18-.17l.27.35a.69.69,0,0,1-.1-.19l.17.41a.49.49,0,0,1,0-.17v.91s-.08-.24,0-.36v.46a3.38,3.38,0,0,1,.31-1.17,2.33,2.33,0,0,0-1-2.71,2.62,2.62,0,0,0-1.25-.36,2.72,2.72,0,0,0-2.45,1.48,2.66,2.66,0,0,0-.33.82,3.36,3.36,0,0,0,0,1.34,2.78,2.78,0,0,0,.31.83,3.15,3.15,0,0,0,.54.77,3.79,3.79,0,0,0,1.11.88,3.15,3.15,0,0,0,2.34.39,2.57,2.57,0,0,0,1.54-1.18,3.74,3.74,0,0,0,.46-1.6,3.93,3.93,0,0,0,0-.84,5.08,5.08,0,0,0-.15-.95,2.64,2.64,0,0,0-2.61-1.89,4.16,4.16,0,0,0-1.7.4,4.08,4.08,0,0,0-1.17.85,3.55,3.55,0,0,0-.88,1.54,3.87,3.87,0,0,0-.12.68,1.5,1.5,0,0,0,0,.3,3,3,0,0,0,1.48,2.49l.22.1a3.32,3.32,0,0,0,.59.24,2.59,2.59,0,0,0,.83.1,2.65,2.65,0,0,0,1.91-.81,1.87,1.87,0,0,0,.51-1.25,1.75,1.75,0,0,0-1.74-1.76h0a1.88,1.88,0,0,0-1.24.52l-.12.12.35-.27-.2.11.42.42h.2c-.09-.57-.19-.57-.29-.59l.47.07a1.33,1.33,0,0,1-.34-.1l.42.18a1.09,1.09,0,0,1-.33-.19l.35.27a1.36,1.36,0,0,1-.24-.24l.27.36a.92.92,0,0,1-.16-.27l.18.42a.9.9,0,0,1-.08-.28l.07.47c0-.13,0-.27.33-.4v.47c-.31-.14-.27-.28-.21-.41l-.18.42a1.51,1.51,0,0,1,.25-.42l-.29.35a2.65,2.65,0,0,1,.41-.41l-.35.27a2.55,2.55,0,0,1,.59-.31l-.41.18c.13-.07.41.16.41.16h-.53s.21-.29.31-.25l-.41-.19.22.14-.35-.28.13.14-.27-.36a.54.54,0,0,1,.1.2l-.17-.43c0,.15.08.3-.42.45V261a.8.8,0,0,1,.52,1l.07-.47a2.17,2.17,0,0,1-.13.5l.18-.42a1.35,1.35,0,0,1-.15.26l.27-.35-.16.15.36-.28a.56.56,0,0,1-.17.09l.42.64h.53c-.13-.82-.25-.85-.36-.91l.42.18a2.73,2.73,0,0,1-.66-.39l.37.28a1.76,1.76,0,0,1-.44-.42l.28.35a1.9,1.9,0,0,1-.23-.39l.18.43c-.05-.13-.13-.39-.13-.39v.59a1.42,1.42,0,0,1,.11-.33l-.17.42a1.05,1.05,0,0,1,.17-.29l-.28.36a1.88,1.88,0,0,1,.24-.25l-.35.28a1,1,0,0,1,.24-.14l-.42.18h0L447,261h.21l-.41.48.15.09-.35-.27.1.09-.28-.36.07.11.27-.42v-.22l-.38-.47c-.07.4-.29.76-.4,1.17a3,3,0,0,0,.19,2.24,2.61,2.61,0,0,0,1.57,1.25,2.76,2.76,0,0,0,.63.1,2.05,2.05,0,0,0,.6-.07,2.21,2.21,0,0,0,1-.61,2,2,0,0,0,.52-1.26,1.76,1.76,0,0,0-1.77-1.75,1.73,1.73,0,0,0-1.23.51Z" transform="translate(-175.37 -113.08)" fill="blue" stroke="blue" stroke-miterlimit="10"/>
    <path d="M523.6,274.18a4.21,4.21,0,0,0-1.26,3.18,3.13,3.13,0,0,0,.58,1.75,3.64,3.64,0,0,0,1.69,1.31,2.59,2.59,0,0,0,2.19-.17,2.33,2.33,0,0,0,1-1.32,4.79,4.79,0,0,0,.11-1,11.06,11.06,0,0,0,0-1.41,6.55,6.55,0,0,0-.51-1.94,4,4,0,0,0-1-1.3,3.77,3.77,0,0,0-1.73-.89,2,2,0,0,0-1.36.17,1.74,1.74,0,0,0-.67,2.34,1.77,1.77,0,0,0,1.09.84l.5.16-.42-.18a3.18,3.18,0,0,1,.64.38l-.36-.28a4.34,4.34,0,0,1,.52.53l-.28-.36a3.62,3.62,0,0,1,.41.68l-.19-.41a3.58,3.58,0,0,1,.2.71l-.07-.47a2.91,2.91,0,0,1,0,.59l.07-.45a2.54,2.54,0,0,1-.13.45l.18-.42c0,.1-.11.19-.17.28l.28-.35-.17.19.35-.28a1,1,0,0,1-.22.14l.42-.18-.25.07.47-.43h-.31l.46.43-.31-.08.42.18a1.51,1.51,0,0,1-.35-.2l.36.27a1.12,1.12,0,0,1-.33-.32l.27.35a3.72,3.72,0,0,1-.27-.48l.18.42a5.6,5.6,0,0,1-.33-1.4l.07.47a1.41,1.41,0,0,1,0-.41l-.07.47a1,1,0,0,1,0-.24l-.18.42a.17.17,0,0,1,0-.1l-.26.35.12-.13-.35,1.17h.26l-.41-1.17h.14l-.46,1.17h.12l-.47-.72h0l-.42-.18h0a1.86,1.86,0,0,0,1.35.18,1.77,1.77,0,0,0,1.23-2.14h0a1.83,1.83,0,0,0-.81-1,2.34,2.34,0,0,0-1-.28,2.74,2.74,0,0,0-.64.08,2.34,2.34,0,0,0-1.36,1.07,3.51,3.51,0,0,0-.18,2.45,3.87,3.87,0,0,0,1.95,3,2.9,2.9,0,0,0,2.34.22,2.52,2.52,0,0,0,1.1-.68,3.08,3.08,0,0,0,.69-1.17,4.15,4.15,0,0,0-.39-3.42,4.69,4.69,0,0,0-3-2.25l-.94,3.39a2.42,2.42,0,0,1,.46.13l-.42-.18a3.3,3.3,0,0,1,.41.23l-.36-.28c.15.14.3.29.44.44l-.28-.37a4.5,4.5,0,0,1,.39.67l-.18-.42a4.27,4.27,0,0,1,.22.87v-.47a9.55,9.55,0,0,1,0,2l-.28-.45v.17l.51-.42-.07.11.27-.35h0l.35-1.34H525l.42,1.17h0l.47-.21a.9.9,0,0,1-.32-.09l.42.19a1.38,1.38,0,0,1-.33-.2l.36.27a2,2,0,0,1-.29-.29l.27.37a2,2,0,0,1-.23-.4l.18.41a1.16,1.16,0,0,1-.12-.45l.06.47a1.46,1.46,0,0,1,0-.51l-.06.45a1.86,1.86,0,0,1,.16-.57l-.17.42a3.18,3.18,0,0,1,.38-.64l-.28.35.2-.24a1.75,1.75,0,0,0-2.34-2.56l-.08.08Z" transform="translate(-175.37 -113.08)" fill="blue" stroke="blue" stroke-miterlimit="10"/>
    <path d="M437.15,508.16l.68-2.87.35-1.43.18-.72c.12-.36.08-.34-.12.07l-.89.24a4,4,0,0,1,1,.41,3.23,3.23,0,0,0,1.69.1,3.82,3.82,0,0,0,2.42-1.86A5,5,0,0,0,443,499a7.66,7.66,0,0,1-.22-2.82c.19-.63.79-.4,1.34-.69a3,3,0,0,0,1.47-2.69,8.19,8.19,0,0,0-2.45-5.92,1.75,1.75,0,1,0-2.48,2.48h0a4.83,4.83,0,0,1,1.41,2.69,3,3,0,0,0,0,.6v.17s.3,0,.43-.48c-.18-.18-1.17.35-1.34.42-2.2,1.31-2,3.85-1.73,6a3.16,3.16,0,0,1,0,1.3.42.42,0,0,1-.1.28c-.16.38-.25,0,.15.13-1.17-.35-2-1-3.21-.31s-1.37,1.87-1.65,3l-.85,3.89c-.52,2.2,2.86,3.14,3.4.94Z" transform="translate(-175.37 -113.08)" fill="blue" stroke="blue" stroke-miterlimit="10"/>
    <path d="M442.1,490.77c2.17,3,4.44,6.15,7.69,8.09a11.06,11.06,0,0,0,10.31.79l-2.59-2a8.21,8.21,0,0,0,5.2,10,8.94,8.94,0,0,0,2.86.38c.77,0,1.9-.15,2.12.68a11.45,11.45,0,0,0,.5,2.91,4.23,4.23,0,0,0,1.64,1.74,13.06,13.06,0,0,0,4.78,1.32,8.33,8.33,0,0,1,2.13.59c1,.5,1.27,1.49,1.77,2.35,2.35,4.2,7.3,5.49,11.1,7.93,5.08,3.25,9.13,7.83,13.13,12.3,1.51,1.68,4-.81,2.48-2.49a86.91,86.91,0,0,0-10.65-10.54,38.64,38.64,0,0,0-6.09-3.94,24.64,24.64,0,0,1-5.52-3.23c-1.6-1.46-2-3.75-3.81-5a10.74,10.74,0,0,0-4.56-1.53c-.88-.14-2.8-.18-3.29-1.1s0-2-.35-2.83a3.75,3.75,0,0,0-2-2.1c-1.94-.89-4.28,0-6.09-1.17a4.69,4.69,0,0,1-2-5.24,1.8,1.8,0,0,0-1.34-2.15,1.87,1.87,0,0,0-1.25.16c-5.6,2.54-10.4-3.75-13.19-7.61-1.31-1.82-4.36-.07-3,1.77Z" transform="translate(-175.37 -113.08)" fill="blue" stroke="blue" stroke-miterlimit="10"/>
    <path d="M286.58,632.32c.16-1.59.34-3.6,1.47-4.83.54-.58,1.31-.82,1.89-1.36a3.39,3.39,0,0,0,1.05-2.34,9.4,9.4,0,0,0,0-1.3v-.37c0-.44,0-.47-.09-.13.75-.33,1.56-.19,2.34-.69a5.14,5.14,0,0,0,1.92-4.38c0-.91-.26-1.81-.22-2.71,0-1.17.8-1.73,1.49-2.61a18.6,18.6,0,0,0,2.75-5.14c1.48-4,3.16-8.53,3-12.81-.09-2.25-3.6-2.26-3.51,0a20.35,20.35,0,0,1-1.17,6.78c-.59,1.93-1.17,3.89-1.9,5.76a16.21,16.21,0,0,1-1.43,2.7c-.55.79-1.3,1.43-1.81,2.24-1.17,1.89-.64,3.72-.64,5.79,0,.41,0,1.17-.35,1.48s-.9.11-1.25.19a3.52,3.52,0,0,0-1.35.61,3.09,3.09,0,0,0-1.17,2.23c0,.56.31,1.74,0,2.17s-1.39.86-1.79,1.25a6.63,6.63,0,0,0-1.46,2.13,16.24,16.24,0,0,0-1.18,5.32c-.23,2.24,3.3,2.22,3.52,0Z" transform="translate(-175.37 -113.08)" fill="blue" stroke="blue" stroke-miterlimit="10"/>
    <path d="M532.29,574.2c8.87,15.53,10.87,33.65,17.18,50.15a80,80,0,0,0,6.47,13.37c1.17,1.92,4.22.16,3-1.77-9.37-15.23-11.55-33.37-17.57-50a88.39,88.39,0,0,0-6.11-13.53,1.76,1.76,0,0,0-3,1.77Z" transform="translate(-175.37 -113.08)" fill="blue" stroke="blue" stroke-miterlimit="10"/>
    <path d="M578.58,662.2c-2.35,6.35-5.94,12.25-9.11,18.21-1.06,2,2,3.78,3,1.77,3.31-6.23,7-12.4,9.45-19a1.75,1.75,0,0,0-3.38-.94h0Z" transform="translate(-175.37 -113.08)" fill="blue" stroke="blue" stroke-miterlimit="10"/>
    <path d="M553.51,672a15.69,15.69,0,0,0,7.23,1.53l8.2.42a1.76,1.76,0,0,0,0-3.51l-7.61-.39c-2-.1-4.21,0-6-1.09a1.76,1.76,0,0,0-1.78,3h0Z" transform="translate(-175.37 -113.08)" fill="blue" stroke="blue" stroke-miterlimit="10"/>
    <path d="M577.43,672.24A20.17,20.17,0,0,0,593.72,666c1.54-1.65-1-4.14-2.49-2.48a16.75,16.75,0,0,1-13.83,5.23,1.75,1.75,0,0,0-1.75,1.75h0A1.8,1.8,0,0,0,577.43,672.24Z" transform="translate(-175.37 -113.08)" fill="blue" stroke="blue" stroke-miterlimit="10"/>
    <path d="M519.41,628a20.55,20.55,0,0,0,6.72,10,1.78,1.78,0,0,0,2.48,0,1.76,1.76,0,0,0,0-2.48,16.18,16.18,0,0,1-2-1.88c-.31-.33-.6-.65-.88-1h0l-.18-.24c-.15-.2-.29-.4-.43-.61a15.12,15.12,0,0,1-1.35-2.34c-.11-.22-.21-.45-.31-.68s-.07-.14,0,0l-.14-.34c-.18-.45-.33-.89-.47-1.34a1.76,1.76,0,1,0-3.47.59,1.16,1.16,0,0,0,0,.18h0a.22.22,0,0,0,0,.16Z" transform="translate(-175.37 -113.08)" fill="blue" stroke="blue" stroke-miterlimit="10"/>
    <path d="M537.82,632.18c-.83-1.5-1.61-3-2.34-4.56-.35-.76-.7-1.52-1-2.34-.18-.38-.34-.76-.5-1.17h0l-.15-.33-.26-.67a1.83,1.83,0,0,0-2.17-1.17,1.77,1.77,0,0,0-1.17,2.17,87.67,87.67,0,0,0,4.68,9.84,1.76,1.76,0,0,0,3-1.78h-.09Z" transform="translate(-175.37 -113.08)" fill="blue" stroke="blue" stroke-miterlimit="10"/>
    <g>
      <path d="M408.12,387.05a33,33,0,0,0,12.24-25.56" transform="translate(-175.37 -113.08)" fill="blue" stroke="blue" stroke-miterlimit="10"/>
      <path d="M409.36,388.56a34.83,34.83,0,0,0,12.72-26.8,1.76,1.76,0,1,0-3.51-.27,1.22,1.22,0,0,0,0,.27,31.53,31.53,0,0,1-11.71,24.32c-1.76,1.41.73,3.9,2.48,2.48Z" transform="translate(-175.37 -113.08)" fill="blue" stroke="blue" stroke-miterlimit="10"/>
    </g>
    <path d="M468.62,454.16a67.41,67.41,0,0,0,27.11,2.69c7.42-.8,15.53-2.56,20.17-9,1.32-1.83-1.73-3.59-3-1.77-4.09,5.65-12.32,6.85-18.74,7.38a64.82,64.82,0,0,1-24.6-2.72c-2.16-.68-3.09,2.72-.93,3.39Z" transform="translate(-175.37 -113.08)" fill="blue" stroke="blue" stroke-miterlimit="10"/>
    <g>
      <path d="M265.89,561.58a7,7,0,0,0-3.66,2.95c-.67,1.44.15,3.61,1.74,3.6.46-.08.92-.13,1.39-.17,1.17.1,1.8,1.74,1.33,2.87a6.56,6.56,0,0,1-2.55,2.57,44.7,44.7,0,0,0-12.89,14c1.06.74,2.46,0,3.65-.5s3-.44,3.23.82a2.6,2.6,0,0,1-.43,1.53L247.87,607" transform="translate(-175.37 -113.08)" fill="blue" stroke="blue" stroke-miterlimit="10"/>
      <path d="M265,560.54c-2.68,1.35-5.5,3.58-4.52,7a4,4,0,0,0,2.74,2.73c.33.08,1.84-.11,1.9,0,.34.34-.54,1.17-.7,1.28a48.48,48.48,0,0,1-4,3A44.75,44.75,0,0,0,249.8,587a1.78,1.78,0,0,0,.64,2.35,4.1,4.1,0,0,0,2.91.44c.94-.2,1.78-.82,2.72-1h.72c-.24-.55-.41-.56-.54-.06l-.28.51c-.65,1.17-1.32,2.34-2,3.51l-7.58,13.79c-1.09,2,1.94,3.76,3,1.78l9.24-16.8c1-1.87,2.17-4.47-.3-5.86a4.79,4.79,0,0,0-3.12-.34c-.76.16-2.34,1.29-3.08.91l.62,2.41a42.19,42.19,0,0,1,6.24-8.2,44.39,44.39,0,0,1,4-3.63c1.24-1,2.66-1.82,3.83-2.89,2-1.83,2.6-5.45-.15-6.94a4.44,4.44,0,0,0-2.28-.28c-.5,0-.52.16-.66-.42-.34-1.36,2.08-2.34,3-2.79,2-1,.25-4-1.77-3Z" transform="translate(-175.37 -113.08)" fill="blue" stroke="blue" stroke-miterlimit="10"/>
    </g>
    <g>
      <path d="M284.79,637.55c3.21,2,7.39.54,10.86-1l2.69-1.17c4.14-1.82,8.46-3.77,11.14-7.4" transform="translate(-175.37 -113.08)" fill="blue" stroke="blue" stroke-miterlimit="10"/>
      <path d="M284,639.08c4.84,2.83,10.31,0,14.88-2s9.11-4.15,12.23-8.2a1.76,1.76,0,0,0-3-1.77c-2.49,3.27-6.51,5-10.16,6.62-3.43,1.51-8.41,4.51-12.13,2.34a1.76,1.76,0,0,0-1.78,3h0Z" transform="translate(-175.37 -113.08)" fill="blue" stroke="blue" stroke-miterlimit="10"/>
    </g>
    <g>
      <path d="M557.8,829.64c-.47,1.68-1.54,3.1-3.34,2.76a1.8,1.8,0,0,0-2.15,1.32h0a1.76,1.76,0,0,0,.17,1.25,4.5,4.5,0,0,1-2.34,5.86,4.38,4.38,0,0,1-2.72.27,1.78,1.78,0,0,0-2.16,1.29h0a1.83,1.83,0,0,0,0,.87,8.24,8.24,0,0,1-.2,3.24,2.8,2.8,0,0,1-.48,1.17,3.05,3.05,0,0,1-.65-.43,1.78,1.78,0,0,0-2.42.62h0a11.77,11.77,0,0,0-1.17,3.52c-.34,2.21,3,3.16,3.39.93h0a9.4,9.4,0,0,1,.26-1.17,3.5,3.5,0,0,0,3.94-2.14,10.32,10.32,0,0,0,.9-4.17,8,8,0,0,0,7.26-6.23,7.87,7.87,0,0,0,.12-2.78,6.3,6.3,0,0,0,4.33-3.58,10.19,10.19,0,0,0,.9-3A7.63,7.63,0,0,1,557.8,829.64Z" transform="translate(-175.37 -113.08)" fill="blue" stroke="blue" stroke-miterlimit="10"/>
      <path d="M464.35,842.32v-.08c-8.68.18-17.36.27-26-.12-4.4-.2-8.81-.52-13.19-1-4.59-.48-9.1-1.29-13.65-2a31.18,31.18,0,0,0-18.42,2.63c-5.86,3-9.76,8.83-8.75,15.5.58,3.78,2.34,7.22,3.67,10.77.33.88.64,1.78.9,2.68a11.24,11.24,0,0,0,.69,2.68,5.29,5.29,0,0,0,2.34,1.52c1,.49,2,.92,3,1.34,7.21,2.9,15.22,3.75,22.88,3.85a31.38,31.38,0,0,0,8.89-1.7c.14-.75.32-1.49.53-2.22a8.63,8.63,0,0,1-1.09-.35H426a20.86,20.86,0,0,1-2.5-.18,22.71,22.71,0,0,1-5.23.94c-8.69,0-17.91-1.17-25.66-5.29a49.81,49.81,0,0,0-3.05-8.64c-1.17-2.93-2.34-6.19-1.8-9.38.93-5.25,6.08-8.52,10.84-9.86a30.08,30.08,0,0,1,7.9-1,66.41,66.41,0,0,1,9.74,1.17,199.88,199.88,0,0,0,23.17,2.25c8.31.33,16.64.25,24.95.07a1.76,1.76,0,0,0,.27-3.51h-.27Z" transform="translate(-175.37 -113.08)" fill="blue" stroke="blue" stroke-miterlimit="10"/>
      <path d="M516.76,869c-6,4.87-13.91,5.44-21.34,5.64l-23.33.11a5.88,5.88,0,0,1-.15,3.75,75.6,75.6,0,0,0,11.46.19c4.16-.31,8.31-.43,12.49-.55,8.34-.24,16.66-1.17,23.36-6.65C521,870.2,518.45,867.67,516.76,869Z" transform="translate(-175.37 -113.08)" fill="blue" stroke="blue" stroke-miterlimit="10"/>
      <path d="M523.14,872.29a89.62,89.62,0,0,0,19.64-10.09,1.79,1.79,0,0,0,.55-2.47,1.72,1.72,0,0,0-1-.75,36.46,36.46,0,0,0-9.68-1.39l1.26,3a36.44,36.44,0,0,1,17.17-9.89,1.76,1.76,0,0,0,1.18-2.19h0a1.14,1.14,0,0,0-.15-.36l-1.8-2.8c-1.17-1.9-4.26-.13-3,1.78l1.79,2.79,1-2.58a40,40,0,0,0-18.75,10.79,1.79,1.79,0,0,0,.07,2.52h0a1.91,1.91,0,0,0,1.18.48,31.69,31.69,0,0,1,8.77,1.17l-.42-3.22a85.35,85.35,0,0,1-18.74,9.74c-2.11.79-1.18,4.18.93,3.4Z" transform="translate(-175.37 -113.08)" fill="blue" stroke="blue" stroke-miterlimit="10"/>
      <path d="M495.69,790.71l-3,4.52a17.11,17.11,0,0,1,4.76-.83l.85-1.27,1.41-2.06A33.73,33.73,0,0,1,495.69,790.71Z" transform="translate(-175.37 -113.08)" fill="blue" stroke="blue" stroke-miterlimit="10"/>
      <path d="M581.47,775.5a14.93,14.93,0,0,1,3.45.47l.41-3.37c.27-2.24-3.24-2.21-3.51,0Z" transform="translate(-175.37 -113.08)" fill="blue" stroke="blue" stroke-miterlimit="10"/>
      <path d="M569.1,825.94l.06-.1c.22-.31.57-.77.82-1.07l.08-.08.11-.09a10.35,10.35,0,0,1,1.06-.82l.2-.12c.36-.16.88-.4,1.25-.53h.17l.84-.11a6.19,6.19,0,0,0,2.34-3.19,3.54,3.54,0,0,0-.52-2.91c-.47-.68-1.28-1.17-1.5-2-.45-1.71,1.29-3.78,2.34-5l.91-1.1a5.66,5.66,0,0,1-1.41-2.84,4.86,4.86,0,0,1-.23-.91,26,26,0,0,0-4.58,6.64,5.42,5.42,0,0,0,.71,6.08c.21.26.7.58.8.88.23.68-.87,1.4-1.42,1.85a18.8,18.8,0,0,1-10.93,4.1c-2.25.1-2.26,3.62,0,3.51l-.11.11A22.42,22.42,0,0,0,569.1,825.94Z" transform="translate(-175.37 -113.08)" fill="blue" stroke="blue" stroke-miterlimit="10"/>
    </g>
    <g>
      <path d="M427.2,880.53h.08c4.45,0,8.76,1.8,12.71,3.9a1.7,1.7,0,0,0,1,.29c1-.1,1-1.6.67-2.57l4.44,1.79a3.13,3.13,0,0,0,1.7.31,1,1,0,0,0,.89-1.1l0-.16a66.79,66.79,0,0,0,7.78,3.35l.35-3.14a1.08,1.08,0,0,1,.29-.75c.31-.25.74-.11,1.11,0l6.57,2.92a1.13,1.13,0,0,0,.65.14c.88-.23,0-1.56.2-2.45s1-1.08,1.75-1.17a13.75,13.75,0,0,1,5.92.22c.52.13,1.18.25,1.48-.18a1.12,1.12,0,0,0,.16-.78v-2.88Z" transform="translate(-175.37 -113.08)" fill="blue" stroke="blue" stroke-miterlimit="10"/>
      <path d="M477.34,875.45c0-3.43-5.35-3.44-5.33,0,0,.33.06.65.07,1a15.7,15.7,0,0,0-2.27-.21,12.85,12.85,0,0,0-4,.45,4.38,4.38,0,0,0-2.85,2.46l-1.28-.56a14.64,14.64,0,0,0-4.29-1.61c-2.26-.17-3.16,1.24-3.56,3-1.47-.62-2.92-1.26-4.34-2a2.69,2.69,0,0,0-3.38.67c-.47-.16-.93-.37-1.38-.54l-3-1.19a2.11,2.11,0,0,0-1.67,0,1.68,1.68,0,0,1-.55.51l-.37.15a3.6,3.6,0,0,0-.56.89c-.41-.2-.81-.39-1.19-.62a41,41,0,0,0-4-1.5,23.79,23.79,0,0,0-8.16-1.19,2.76,2.76,0,0,0-1.59,4.89h0a2.28,2.28,0,0,1,.82-.09,3.39,3.39,0,0,1,.83.16,5.4,5.4,0,0,1,.9.45,23.63,23.63,0,0,1,10.44,3c1.86.94,4.1,2.06,5.93.27a4.14,4.14,0,0,0,.34-.48,9.9,9.9,0,0,0,3.73,1,3.9,3.9,0,0,0,2.23-.57c2,.94,4.12,1.8,6.23,2.56,1.81.65,3.21-1,3.39-2.58v-.64l1.83.8a13.77,13.77,0,0,0,4.25,1.61,3.22,3.22,0,0,0,3.29-2.24v-1.65a11.73,11.73,0,0,1,2.37,0c1.18.08,2.37.58,3.56.55a3.5,3.5,0,0,0,3.25-2.26A13.06,13.06,0,0,0,477.34,875.45Z" transform="translate(-175.37 -113.08)" fill="blue" stroke="blue" stroke-miterlimit="10"/>
    </g>
    <g>
      <path d="M463.88,844.16l22.86-9.82a27.82,27.82,0,0,0-7.18-3.51c.95-1.57,3.12-1.72,4.9-2.22s3.68-2.34,2.68-3.9a4,4,0,0,0,4-.5c1-1,.47-3.19-.93-3.12l8.05-4.21c.85-.45,1.77-1,2-1.9a8.54,8.54,0,0,0-.08-2.2,5.82,5.82,0,0,1,1.82-3.67,93.72,93.72,0,0,1,18.79-16.77" transform="translate(-175.37 -113.08)" fill="blue" stroke="blue" stroke-miterlimit="10"/>
      <path d="M465.14,846.43l22.9-9.85c1.95-.84,1.46-3.59,0-4.56a31.85,31.85,0,0,0-7.82-3.76l1.57,3.88c.37-.52,1.61-.6,2.15-.73a9.27,9.27,0,0,0,3.29-1.25c2.34-1.6,3.51-4.17,2.15-6.81l-3,3.88c2.8.77,6.63.28,7.6-3a4.4,4.4,0,0,0-2.67-5.61h0a4,4,0,0,0-1.17-.25l1.33,4.92,5.54-2.9a17.41,17.41,0,0,0,4.57-2.79,4.64,4.64,0,0,0,1.24-2.44c.15-.85-.17-1.65-.06-2.47.19-1.39,1.86-2.75,2.75-3.74a91.7,91.7,0,0,1,16.57-14.4c2.79-1.9.15-6.47-2.67-4.56a98.66,98.66,0,0,0-16.93,14.47c-2.34,2.53-5.4,5.35-4.91,9.12.06.4,0,.68.14.45a1.9,1.9,0,0,1-.66.38c-.89.49-1.8,1-2.7,1.42l-5.54,2.9c-2.46,1.29-1.17,4.77,1.33,4.91.26,0-1.26-.36-1.18-.88a1.56,1.56,0,0,1,.32-.52c0,.16-1.32-.12-1.48-.16a2.66,2.66,0,0,0-3.22,1.93,2.63,2.63,0,0,0,.25,1.94c.09-.63.07-.84-.08-.62l-.07.08c.16,0-.93.6-.82.56-.67.25-1.43.31-2.12.5a7.39,7.39,0,0,0-4.45,3,2.64,2.64,0,0,0,1,3.6h0a2.48,2.48,0,0,0,.58.25,26.87,26.87,0,0,1,6.56,3.23V832l-22.9,9.81a2.63,2.63,0,0,0-1,3.58v0a2.7,2.7,0,0,0,3.61,1Z" transform="translate(-175.37 -113.08)" fill="blue" stroke="blue" stroke-miterlimit="10"/>
    </g>
    <g>
      <path d="M516.29,872.75a9.58,9.58,0,0,0,3.79-1.17l6-2.71c-1.36-.17-2.65.61-4,.74-.7.07-1.4,0-2.1,0-1.54.21-2.84,1.36-4.38,1.44" transform="translate(-175.37 -113.08)" fill="blue" stroke="blue" stroke-miterlimit="10"/>
      <path d="M516.29,874.51a14,14,0,0,0,5.52-1.74l5.11-2.34a1.76,1.76,0,0,0,.81-2,1.87,1.87,0,0,0-1.69-1.29,8.45,8.45,0,0,0-3.07.49c-.23.07-.47.14-.7.19a.18.18,0,0,1-.23-.13.13.13,0,0,1,0-.06H520.5a21.11,21.11,0,0,0-3,1l-.61.28-.31.13h0a6.45,6.45,0,0,0-.62.21l-.31.07h0a1.76,1.76,0,0,0,0,3.52h0a9,9,0,0,0,3.08-.92l.61-.28c-.27.12.14,0,.19-.07l.64-1.54h.38s2.06,1.3,3.06,1.07c.46-.11.91-.28,1.38-.38.07,0,.73-.12.4-.1a4.09,4.09,0,0,1,.7,0l-.89-3.26-4.74,2.15-1.17.55-.53.24-.28.11a8.09,8.09,0,0,1-1.08.37,2.23,2.23,0,0,0-.55.42h-.47s-1.75.49-1.75,1.46a1.75,1.75,0,0,0,1.74,1.76h0Z" transform="translate(-175.37 -113.08)" fill="blue" stroke="blue" stroke-miterlimit="10"/>
    </g>
  </g>
</svg>
