<svg id="Warstwa_1" data-name="Warstwa 1" xmlns="http://www.w3.org/2000/svg" viewBox="0 0 1002.99 1009.89">
  <rect width="1002.99" height="1009.89" fill="#fff"/>
  <g>
    <g id="Warstwa_1-2" data-name="Warstwa 1-2">
      <path d="M507,72.25c-18.46-.8-37.67.39-54.51,8.57C444,85,436.45,91,429,97s-14.44,11.62-21.15,18a118.41,118.41,0,0,0-18.17,21.35c-5.51,8.5-9.94,17.69-14.57,26.67l-29.35,56.75c-9.47,18.33-19.29,36.52-27.47,55.48-1,2.25-1.93,4.53-2.84,6.82s2.73,3.22,3.62,1c7.5-18.71,17.1-36.54,26.37-54.45L374.18,173c4.66-9,9.15-18.13,14.1-27a111.26,111.26,0,0,1,16.59-22.73,221,221,0,0,1,20.36-18.46c7.24-5.92,14.41-12,22.37-17C465.37,76.76,486.52,75.08,507,76c2.43.1,2.41-3.66,0-3.78Z" fill="#fff200" stroke="#fff200" stroke-miterlimit="10"/>
      <path d="M316.21,280.87c-6.29,7.37-12.87,14.56-19.45,21.68-6.21,6.73-12.56,13.33-19.35,19.47a144.24,144.24,0,0,1-21.76,16.51c-4,2.44-8.25,4.43-12.16,7a57.5,57.5,0,0,0-10.61,9.58c-6.95,7.39-13.71,15.07-17.39,24.66-.87,2.27,2.77,3.22,3.62,1,3.22-8.43,9.26-15.35,15.32-21.87,3.22-3.42,6.28-7.05,10.24-9.65s8.18-4.6,12.18-7c15.35-9.25,28.34-21.81,40.49-34.79,7.29-7.82,14.51-15.76,21.44-23.86,1.57-1.84-1.07-4.5-2.67-2.66Z" fill="#fff200" stroke="#fff200" stroke-miterlimit="10"/>
      <path d="M506.43,75.61c17.47,2.38,35.75,5,51.46,13.64a61,61,0,0,1,20.37,18.43,307.66,307.66,0,0,1,17.15,26.72,117.78,117.78,0,0,1,11.93,30,230.39,230.39,0,0,1,5.3,33.13c2.14,22.21,1.73,44.55.89,66.82s-2.14,44.77-1.92,67.17c0,2.83.08,5.68.15,8.53a1.89,1.89,0,0,0,3.76.29,1.4,1.4,0,0,0,0-.29c-.61-22.81.56-45.6,1.49-68.38s1.61-45.64-.12-68.4c-1.68-22-5-44.74-15-64.68-4.89-9.76-11-18.84-17-27.88-5.49-8.24-11.47-15.76-19.7-21.34-14.94-10.24-33.39-13.82-51-16.4l-6.64-1a2,2,0,0,0-2.33,1.25,1.87,1.87,0,0,0,1.25,2.31Z" fill="#fff200" stroke="#fff200" stroke-miterlimit="10"/>
      <path d="M611.43,337.81c0,9.2-2.51,17.95-5.44,26.59-2.71,7.89-5.73,15.74-6.78,24.08a58.65,58.65,0,0,0,4.29,29.87c2,4.81,4.45,9.44,6.61,14.2s4.29,9.74,6,14.73a110.37,110.37,0,0,1,7,34.31,1.89,1.89,0,0,0,3.77,0c-.49-21.06-8.5-40.63-17.49-59.34a64.85,64.85,0,0,1-5.57-15.07,59.68,59.68,0,0,1-1.07-15.49c.46-8.3,3.44-16.24,6.15-24,3.38-9.65,6.28-19.47,6.36-29.8a1.89,1.89,0,0,0-3.78,0h0Z" fill="#fff200" stroke="#fff200" stroke-miterlimit="10"/>
      <path d="M623.79,479.39c2.52,8.1-1.68,16.33-4.18,23.86a106.09,106.09,0,0,0-4.56,24.66c-.36,4.29-.57,8.64-.74,13a110.72,110.72,0,0,0-.13,13,33.09,33.09,0,0,0,3.12,11.79,111.18,111.18,0,0,0,6.1,10.72c17,27.8,39.67,56,39.51,90.29-.08,14.53-5.28,33-20.59,38.32-2.28.8-1.25,4.44,1,3.65,13.42-4.64,20.61-18.64,22.6-32,2.52-16.67-1.4-33.43-7.94-48.75-6.76-15.82-16.49-30.14-25.73-44.56-2.35-3.69-4.68-7.38-6.93-11.12a61.22,61.22,0,0,1-5.94-11.34,36.61,36.61,0,0,1-1.53-12.87c.09-4.42.3-8.86.53-13.28.53-9.81,1.54-19.65,4.45-29.08,2.71-8.79,7.5-17.88,4.63-27.25-.71-2.31-4.36-1.33-3.64,1Z" fill="#fff200" stroke="#fff200" stroke-miterlimit="10"/>
      <path d="M504.3,549.31c.74-1.76,1.35-3.54,2-5.36a115.19,115.19,0,0,1,3.43-16.65c4.63-17,9.9-33.75,12.3-51.27a151.12,151.12,0,0,0,1.41-25.86q-.6-13-2.5-25.86c-2.8-19.35-6.58-38.77-5.75-58.43.1-2.42-3.67-2.41-3.77,0h0c-.74,17.58,2.2,35,4.83,52.34,2.66,17.58,4.63,35.09,2.7,52.83s-7.08,35.16-12,52.37c-2.39,8.44-4.52,17.07-4.79,25.88v4.2A38.25,38.25,0,0,0,504.3,549.31Z" fill="#fff200" stroke="#fff200" stroke-miterlimit="10"/>
      <path d="M525.49,622.69c-4.39-5.36-7-12-8.79-18.61-2.21-8-3.76-16.17-5.42-24.25q-1.42-6.68-2.84-13.35c-.22-.88-.39-1.76-.56-2.63a25.1,25.1,0,0,1-2,1.69,4.21,4.21,0,0,1-1.35.69c.65,3.27,1.41,6.5,2.15,9.74,2,9.37,3.77,18.84,6.2,28.12,2.15,8.15,5.36,16.08,11,22.51a1.79,1.79,0,0,0,2.51.09,1.86,1.86,0,0,0,.54-1A29.67,29.67,0,0,1,525.49,622.69Z" fill="#fff200" stroke="#fff200" stroke-miterlimit="10"/>
      <path d="M528.27,627.93a25.48,25.48,0,0,1-2.28-4c-1.77,0-3,2.59-1.08,3.41,1.47.65,2.92,1.32,4.37,2A6.31,6.31,0,0,0,528.27,627.93Z" fill="#fff200" stroke="#fff200" stroke-miterlimit="10"/>
      <path d="M570.82,648c-10.25-6.11-20.37-12.43-31-18v.08a13.38,13.38,0,0,0,.4,1.37c.65,1.42,1.5,2.72,2.22,4.09l.11.22c8.91,4.93,17.58,10.28,26.36,15.5a1.88,1.88,0,1,0,2.37-2.93h0a1.5,1.5,0,0,0-.47-.28h0Z" fill="#fff200" stroke="#fff200" stroke-miterlimit="10"/>
      <path d="M574.37,652a8.33,8.33,0,0,0-1.55-4.74c-1.07-1.71-2.14-3.4-3.28-5-2.14-3.3-4.45-6.5-6.81-9.65-4.54-6.06-9.56-11.68-14.41-17.47a43,43,0,0,1-6.37-9.65,50.27,50.27,0,0,1-3.43-10.44c-.85-3.59-1.46-7.22-2.07-10.87a39.44,39.44,0,0,1-.74-12.4c1-7.06,5.16-13.13,8.92-19a119.14,119.14,0,0,0,10.28-19.68,191.61,191.61,0,0,0,7-21.57c2-7.5,4.1-15.23,5.52-22.95a48.3,48.3,0,0,0,.8-12.87,104.6,104.6,0,0,0-2.42-13.48q-3.06-13.63-7.36-27c-.74-2.3-4.38-1.32-3.63,1q3.76,11.86,6.68,24c1.81,7.76,3.69,15.58,2.79,23.58-.88,7.67-3.22,15.29-5,22.76a221.92,221.92,0,0,1-6.7,22,107.94,107.94,0,0,1-9.78,20c-3.77,5.93-8,11.79-10,18.58-2.14,7.5-.51,15.26.87,22.76,1.26,7.14,3.05,14.35,6.81,20.64a67.1,67.1,0,0,0,7.7,10.05c2.75,3.15,5.48,6.28,8.08,9.65s5.36,7.07,7.92,10.72c1.26,1.73,2.37,3.49,3.53,5.26s3,3.78,2.9,5.76c-.11,2.42,3.66,2.41,3.76,0Z" fill="#fff200" stroke="#fff200" stroke-miterlimit="10"/>
      <path d="M591,572.31a65.35,65.35,0,0,1-1.38-18.92,114.79,114.79,0,0,1,3.5-18.83c2.79-11.22,6.1-22.44,5.91-34.1-.18-11.09-3.4-22.61-12-30-1.82-1.58-4.49,1.07-2.66,2.67,7.43,6.43,10.41,16.16,10.82,25.73.5,11.31-2.51,22.19-5.31,33.05-3.06,12-5.36,24-3.45,36.45s6.75,23.86,10.83,35.62c3.64,10.53,6.78,21.76,6.13,32.95A127.7,127.7,0,0,0,577,592c-1.55-1.71-3.76.46-2.94,2.28,3.15,7.27,6.28,14.53,9.48,21.81,2.88,6.67,5.61,13.58,6.17,20.89,1.07,14.33-5,28-11.79,40.18a15.34,15.34,0,0,1-1.08,1.78,84.38,84.38,0,0,0,4.69-41c-1.48-11-5.55-21-10.29-31S561,586.55,559.73,575.3c-1.5-12.87,1-26.3-4.12-38.6a2,2,0,0,0-2.32-1.32,1.9,1.9,0,0,0-1.25,2.33l-.08.12c4.45,10.72,2.95,22.4,3.65,33.68S560.29,593,565.13,603c4.71,9.79,9.65,19.45,11.79,30.13A80.88,80.88,0,0,1,575,672.2v.31a7.08,7.08,0,0,1-1.54,4.55,81.32,81.32,0,0,1-9.65,18.51,1.89,1.89,0,0,0,.72,2.58h0a1.82,1.82,0,0,0,1.39.18,15.21,15.21,0,0,0,7.34-6.28c2-2.95,3.77-6.09,5.59-9.15.86-1.42,1.68-2.87,2.51-4.29.34-6.43,3.62-12.32,8.1-17.15a61.11,61.11,0,0,0,4.19-21c0-7.84-2.14-15.25-5.14-22.43-1.76-4.29-3.59-8.5-5.45-12.74a124.05,124.05,0,0,1,19.3,40.74,1.91,1.91,0,0,0,2.41,1.21h0a1.92,1.92,0,0,0,1.21-1.21C612.07,620.15,596.25,596.63,591,572.31Z" fill="#fff200" stroke="#fff200" stroke-miterlimit="10"/>
      <path d="M598.47,608.42c9.33,11.64,19,23.68,23.58,38.1a49.66,49.66,0,0,1,2.36,21.94c-.95,6.75-3.77,13.08-6.56,19.29-3.22,7-6.56,14.15-7.7,21.88a1.87,1.87,0,0,0,.49,1.84c2.93,2.3,6,.51,8.57-1.46a47.59,47.59,0,0,0,7.51-7.37,110.23,110.23,0,0,0,11.37-17.58c3.61-6.61,6.89-13.61,8-21.15a47.62,47.62,0,0,0-2.39-21.73c-2.75-8.27-7-15.94-11.23-23.49a1.89,1.89,0,0,0-3.21,1.9c6.57,11.64,13.71,24.32,13.5,38.14-.08,6.85-2.31,13.38-5.28,19.5A141.19,141.19,0,0,1,627.87,695a61.24,61.24,0,0,1-6.43,8.11,41.8,41.8,0,0,1-4,3.65c-.6.48-3.21,2.81-4.07,2.14l.48,1.83c2.15-14.29,11.79-26.09,14.13-40.3,2.51-15.25-3-30.42-11-43.2a228.26,228.26,0,0,0-15.83-21.44c-1.5-1.9-4.15.78-2.66,2.67Z" fill="#fff200" stroke="#fff200" stroke-miterlimit="10"/>
      <path d="M642.41,676a74.91,74.91,0,0,1-2.8,31.8c-.72,2.3,2.92,3.3,3.65,1A77.43,77.43,0,0,0,646.19,676C645.89,673.6,642.12,673.58,642.41,676Z" fill="#fff200" stroke="#fff200" stroke-miterlimit="10"/>
      <path d="M216,383.07a75.26,75.26,0,0,0,42.57-8.49,1.87,1.87,0,0,0,.64-2.57h0a1.93,1.93,0,0,0-1.58-.92,17.91,17.91,0,0,1-7.5-2.14l-.95,3.51,16.33-.76a1.89,1.89,0,0,0,1.84-1.95h0a1.87,1.87,0,0,0-.51-1.25,33.73,33.73,0,0,0-12.11-9.19l-.93,3.5,12.57-.65a1.88,1.88,0,0,0,1.85-1.94h0a2,2,0,0,0-.51-1.25l-14.85-13.4L251,348.72a130.23,130.23,0,0,1,28.51,11.43,1.91,1.91,0,0,0,2.59-.72h0a2.06,2.06,0,0,0,.18-1.4l-4-11.94-3.2,1.82,14.92,16c2.27,2.43,4.52,4,7.93,4s7-.15,10.56-.18a428.13,428.13,0,0,1,43.27,2q12.27,1.19,24.51,3.13a1.93,1.93,0,0,0,2.32-1.25,54.89,54.89,0,0,1,6.92-17l-3.52-1c0,6,8.16,9.32,12.34,5l-3.15-1.83c-1.26,3.6,1.9,6.43,4.91,7.5a13.16,13.16,0,0,1,4.57,2.31c1.38,1.25,2.5,2.87,3.76,4.22a44.37,44.37,0,0,0,9.13,6.43c3.06,1.78,6.09,3.59,9.07,5.49,11.64,7.44,22.87,16.22,31.23,27.34a67.67,67.67,0,0,1,10.61,20.54c.71,2.32,4.35,1.32,3.63-1-4-12.94-12-24.1-21.79-33.34a140.77,140.77,0,0,0-16.08-12.92c-5.81-4-12-7.43-17.95-11.19a29.07,29.07,0,0,1-4.84-3.62c-1.51-1.43-2.67-3.15-4.18-4.58a14.47,14.47,0,0,0-5.26-2.94c-1.26-.48-3.88-1.43-3.22-3.31a1.9,1.9,0,0,0-3.14-1.83c-1.89,1.92-5.9.34-5.9-2.37a2,2,0,0,0-1.95-1.85,1.85,1.85,0,0,0-1.55.89A58.34,58.34,0,0,0,375,370.5l2.32-1.31q-20.9-3.27-42.08-4.53Q324.62,364,314,364c-3.59,0-7.17,0-10.72.08-3.12,0-6.81.85-9.29-1.47-2.77-2.59-5.25-5.58-7.83-8.35l-8.41-9a1.91,1.91,0,0,0-2.69,0,1.89,1.89,0,0,0-.46,1.77l3.88,12,2.78-2.15a134.58,134.58,0,0,0-29.35-11.79,1.91,1.91,0,0,0-2.3,1.36h0a1.9,1.9,0,0,0,.46,1.78l14.8,13.38,1.33-3.21-12.56.65c-1.68.1-2.77,2.69-.94,3.52A31.5,31.5,0,0,1,264,371.1l1.34-3.21-16.33.77c-1.77.08-2.7,2.59-.95,3.49a22,22,0,0,0,9.52,2.56l-.91-3.53a71.67,71.67,0,0,1-40.67,8c-2.4-.23-2.38,3.54,0,3.78Z" fill="#fff200" stroke="#fff200" stroke-miterlimit="10"/>
      <path d="M432.54,497.61c-.18-1.23-.26-2.47-.34-3.7-.74-.12-1.5-.22-2.25-.29a1.85,1.85,0,0,0-1.86,1.85l.12,7.83a39.75,39.75,0,0,1-6.78-.91c-2-.43-3.4,2.39-1.45,3.39.75.38-.36,1.41-1,1.54-1.73.36-3.81-.64-5.42-1.13s-3.41-1-5.09-1.55a5.86,5.86,0,0,1-3.72-3.07c-3.43-6.12-5.23-13.12-6.38-20a215.94,215.94,0,0,1-2.14-21.52c-.58-7.76-1.07-15.53-1.15-23.31a133.23,133.23,0,0,1,2.14-26.15c.47-2.34-3.13-3.34-3.58-1-3.48,17.92-2.2,36.2-.84,54.29A159.75,159.75,0,0,0,396,488.43a64.28,64.28,0,0,0,3.87,11.71,23.6,23.6,0,0,0,2.74,5,9.07,9.07,0,0,0,4.58,3c2.33.77,4.7,1.46,7.07,2.15,2.14.64,4.45,1.24,6.6.27a5.13,5.13,0,0,0,2.9-4A42.79,42.79,0,0,0,430,507a1.89,1.89,0,0,0,1.87-1.86l-.12-7.61Z" fill="#fff200" stroke="#fff200" stroke-miterlimit="10"/>
      <path d="M471.87,444.89q-1.69-8.17-3.75-16.28a2,2,0,0,0-2.44-1.29h0a1.89,1.89,0,0,0-1.28,2.23h0c1.28,4.77,2.31,9.57,3.33,14.38a7.42,7.42,0,0,1-3.28-.23,2,2,0,0,0-2.38,1.37,1.56,1.56,0,0,0-.06.47v1.24a7.93,7.93,0,0,0-5.23,3.64,7.52,7.52,0,0,0-1.15,3.82,14.09,14.09,0,0,0,.09,1.84h0a8.29,8.29,0,0,0-1.65-.22,6.44,6.44,0,0,0-2.14.24,8.57,8.57,0,0,0-3.7,2.48c-2.14,2.43-2.67,5.67-4.49,8.25s-5.19,3.15-7.73,4.69c-.39.23-.75.49-1.13.76a7.5,7.5,0,0,1,5.49,1.49,23.1,23.1,0,0,0,4-2.14,15.85,15.85,0,0,0,4.79-7,10.8,10.8,0,0,1,2.15-3.52,3.29,3.29,0,0,1,3.61-.91c3.31.71,4.87-1.88,4.76-4.85a5.12,5.12,0,0,1,.48-3.5,3.77,3.77,0,0,1,3.59-1.58,2,2,0,0,0,2-2v-.36a10.65,10.65,0,0,0,4.71-.66A2,2,0,0,0,471.87,444.89Z" fill="#fff200" stroke="#fff200" stroke-miterlimit="10"/>
      <path d="M215.77,379.51a153.13,153.13,0,0,0-31.24.26,1.89,1.89,0,1,0-.29,3.77h.29l13.35.48a17,17,0,0,0,2.85.15,1.71,1.71,0,0,1,.38.13l-.38-1a6.55,6.55,0,0,0-1.41.68c-1.89.88-3.77,1.75-5.64,2.71-6.56,3.42-12.93,8.58-14.55,16.08-.37,1.71,1.81,3.3,3.15,1.82a38.82,38.82,0,0,1,15.44-10.42l-1.79-3.11c-5.68,6.68-11.55,13.81-13.28,22.6a1.87,1.87,0,0,0,3.39,1.46,67.26,67.26,0,0,1,18.08-17.83l-2.52-.66c6.52,10-3.89,21.27-8,29.92a1.89,1.89,0,0,0,.71,2.58h0a1.65,1.65,0,0,0,.39.17c3,.92,4.55-1.57,6.93-2.76,1.25-.6,1.93.29,2.5,1.25a52.93,52.93,0,0,1,2.51,5.41q5.13,11.47,9.94,23.09,2.41,5.94,4.77,11.89a10.26,10.26,0,0,0,2.15,4.28c1.43,1.26,3.21.9,5,.53a46.82,46.82,0,0,0,17.4-7.93,47.8,47.8,0,0,0,14.34-16.61c1.07-2.14-2.15-4.06-3.22-1.91A44.26,44.26,0,0,1,228.91,469a10.49,10.49,0,0,1-2.28.53c-.89,0-.83-.35-1.18-1.25-.75-1.89-1.48-3.78-2.25-5.67Q221,457,218.59,451.34q-4.59-10.93-9.48-21.7c-1.26-2.85-2.81-6.94-6.5-7.17a6.26,6.26,0,0,0-4.08,1.51c-.83.6-2.05,1.92-2.95,1.65l1.14,2.76c4.81-10,15.55-22.15,8-33.72a1.89,1.89,0,0,0-2.5-.68,72.66,72.66,0,0,0-19.47,19.3l3.44,1.45c1.62-8.21,7-14.76,12.32-20.95,1.07-1.26.1-3.86-1.84-3.16a42.87,42.87,0,0,0-17.15,11.3l3.22,1.79c2-9.27,11.61-13.24,19.23-16.94,1.69-.82,3.22-2.43,2.28-4.42-.77-1.65-2.62-2-4.29-2.15-5.15-.24-10.31-.37-15.48-.56v3.77a152.75,152.75,0,0,1,31.2-.31c2.41.22,2.4-3.55,0-3.77Z" fill="#fff200" stroke="#fff200" stroke-miterlimit="10"/>
      <path d="M266.86,407.05a123.38,123.38,0,0,0-6.74,28.3,247.78,247.78,0,0,0-2.25,29.81A42.78,42.78,0,0,0,260,479.54c1.46,4.35,3.22,8.58,4.37,13,1.93,7.63,2.67,15.59,5.71,22.9a28.34,28.34,0,0,0,6.28,9.65,33.26,33.26,0,0,0,10.86,6.67c4.29,1.8,8.79,3.22,13.26,4.66A102.07,102.07,0,0,0,315,540.19c8.65,1.44,17.58,1.15,25.72-2.42a30.08,30.08,0,0,0,10.4-7.6,120.09,120.09,0,0,0,7.95-10.94A110.71,110.71,0,0,1,377.79,499c5.9-5,12.21-10.38,15.14-17.81a22.56,22.56,0,0,0,1.26-5.49c.29-2.41-3.49-2.39-3.76,0-.92,7.5-6.79,13.11-12.15,17.83-6.43,5.7-12.8,11.3-18.23,18-2.74,3.46-5.17,7.1-7.67,10.72a36.54,36.54,0,0,1-8.63,9.46c-6.7,4.66-15.07,6-23.1,5.36-9.34-.71-18.35-3.93-27.12-7A49.5,49.5,0,0,1,282.22,525a22.25,22.25,0,0,1-7.5-8.35c-3.47-6.61-4.29-14.22-5.9-21.44a85.19,85.19,0,0,0-3.41-11.57c-1.64-4.28-3.31-8.65-3.71-13.28a106.58,106.58,0,0,1,.37-16.08c.32-5.24.73-10.46,1.33-15.67a125,125,0,0,1,7.11-30.53c.86-2.28-2.78-3.22-3.65-1Z" fill="#fff200" stroke="#fff200" stroke-miterlimit="10"/>
      <path d="M301.67,444.72a10.38,10.38,0,0,0,.88-7.7,11.11,11.11,0,0,0-4.2-5.7c-4.41-3.22-10.05-3.14-15.32-2.86a1.92,1.92,0,0,0-1.88,1.88,1.89,1.89,0,0,0,1.83,1.83c4.22-.22,8.8-.55,12.56,1.76,3,1.87,4.59,5.51,2.81,8.8-1.14,2.14,2.14,4,3.21,1.9Z" fill="#fff200" stroke="#fff200" stroke-miterlimit="10"/>
      <path d="M280.75,431.77c-.4,4.6,0,9.88,4.42,12.56a13.42,13.42,0,0,0,6.68,1.62c2.78,0,5.6-.56,8.37-.14a2,2,0,0,0,2.33-1.32,1.94,1.94,0,0,0-1.26-2.3,39.1,39.1,0,0,0-7.8,0,12.4,12.4,0,0,1-5.66-.71c-3.77-1.63-3.54-6.16-3.22-9.65a1.88,1.88,0,0,0-1.88-1.88h0a2,2,0,0,0-1.89,1.88Z" fill="#fff200" stroke="#fff200" stroke-miterlimit="10"/>
      <path d="M344,452.33a14.61,14.61,0,0,1,8.14-9.83,10.74,10.74,0,0,1,11.79,2.42c1.65,1.79,4.29-.88,2.67-2.66a14.46,14.46,0,0,0-15.46-3.39,18.44,18.44,0,0,0-10.77,12.46,1.89,1.89,0,0,0,3.63,1Z" fill="#fff200" stroke="#fff200" stroke-miterlimit="10"/>
      <path d="M342,454.76a25.36,25.36,0,0,0,9.21,1.53,31.31,31.31,0,0,0,8.79-.76c5.18-1.45,9.55-6.72,7-12.15a1.83,1.83,0,1,0-3.18,1.83,4.3,4.3,0,0,1-1,4.37,8.76,8.76,0,0,1-5.58,2.62,38,38,0,0,1-7,.23,20.12,20.12,0,0,1-7.19-1.36,1.92,1.92,0,0,0-2.32,1.31A2,2,0,0,0,342,454.7Z" fill="#fff200" stroke="#fff200" stroke-miterlimit="10"/>
      <path d="M267.31,542.24A9.47,9.47,0,0,0,269,538.9a4.29,4.29,0,0,0-.38-3.36,6.16,6.16,0,0,0,2.6-4.28,5.17,5.17,0,0,0-1.85-4.29l2.7-3.22a1.84,1.84,0,0,0-2.6-2.58h-.19l-4.69,5.54c-1.07,1.22-.08,3.68,1.8,3.08.93-.32,1.23,1.07.82,1.75-.63,1.23-2.24,2-3.41,2.55-1.7.87-.8,3.38.92,3.43h.48l.32.12h0a5.29,5.29,0,0,1-.28,1,14.68,14.68,0,0,1-.91,1.53,6.28,6.28,0,0,1-.59.67l-.29.28-.17.11a1.88,1.88,0,0,0-.6,2.59h0a1.84,1.84,0,0,0,1.07.78,10.77,10.77,0,0,1,1.22.5A6.49,6.49,0,0,1,267.31,542.24Zm-2.46-4.87v.06h0Z" fill="#fff200" stroke="#fff200" stroke-miterlimit="10"/>
      <path d="M423.84,599a6.78,6.78,0,0,1,5-1.15l-1.07-2.75A20.29,20.29,0,0,0,423.67,609c.45,5.7,2.39,11.3,3.76,16.86l8.79,34.2,5,19.67c.6,2.35,4.22,1.35,3.62-1l-8.35-33c-2.78-10.93-5.87-21.83-8.35-32.84-1.25-5.72-.67-11.12,3-15.86a1.91,1.91,0,0,0-.67-2.51h0a4.17,4.17,0,0,0-.44-.19,10.62,10.62,0,0,0-7.86,1.51c-2,1.33-.14,4.6,1.9,3.27Z" fill="#fff200" stroke="#fff200" stroke-miterlimit="10"/>
      <path d="M440,680.37a66.4,66.4,0,0,0,4.52,21.32c1.25,3.36,2.6,6.65,4,9.92,1.17,2.74,2.21,5.84,4.42,7.94s5.55,2.64,8.69,2.61a4,4,0,0,0,3.57-1.34c1-1.26.89-3.42,1-5a60.83,60.83,0,0,0-2.34-21.13,127.66,127.66,0,0,0-9.2-22.77c-1.07-2.15-4.35-.26-3.22,1.91,5.61,11.12,10.66,23.11,11.3,35.73a45.45,45.45,0,0,1-.41,9c.08-.45.91,0,0-.23a4.18,4.18,0,0,0-1,0h-1.76a6,6,0,0,1-3.76-1.45c-1.89-1.75-2.76-4.61-3.78-6.9-1.25-3-2.51-6-3.63-9a63.08,63.08,0,0,1-4.54-20.58,1.89,1.89,0,0,0-3.77,0H440Z" fill="#fff200" stroke="#fff200" stroke-miterlimit="10"/>
      <path d="M560,669.83v-.23a7.41,7.41,0,0,1-.21-2.2l-42.11-6.57-28.1-4.38-6.8-1.07a15.31,15.31,0,0,0-6.53-.21,15.15,15.15,0,0,0-4.66,2.64c-1.7,1.26-3.39,2.51-5.14,3.77a129.88,129.88,0,0,1-25.3,13.81c-2.21.9-1.25,4.55,1,3.64h0a134.83,134.83,0,0,0,22.24-11.56c3.49-2.24,6.73-4.76,10-7.16a7.27,7.27,0,0,1,4.9-1.68c2.51.18,4.92.74,7.36,1.07l55,8.57,18.41,2.91A10.26,10.26,0,0,1,560,669.83Z" fill="#fff200" stroke="#fff200" stroke-miterlimit="10"/>
      <path d="M585.21,663.88l1.07.61a33.55,33.55,0,0,1,2.51-2.94l-1.69-.93C585,659.45,583.1,662.73,585.21,663.88Z" fill="#fff200" stroke="#fff200" stroke-miterlimit="10"/>
      <path d="M429.29,599.65c5.36.69,10.46-1.58,15.07-4a169.26,169.26,0,0,1,15.42-7.23A133.68,133.68,0,0,1,476.22,583c5.25-1.36,11-1.84,15.93-4.16a43.85,43.85,0,0,0,6.55-4.4c1.91-1.36,4.08-2.81,6.52-2.14a1.9,1.9,0,0,0,1-3.65c-4.76-1.25-8.5,1.89-12.08,4.54a20.22,20.22,0,0,1-6.78,3.48c-2.7.75-5.49,1.18-8.21,1.79a138.8,138.8,0,0,0-32.37,11.7c-5.44,2.78-11.05,6.51-17.44,5.71-2.4-.3-2.37,3.46,0,3.76Z" fill="#fff200" stroke="#fff200" stroke-miterlimit="10"/>
      <path d="M284.42,671.23A42,42,0,0,0,280.27,661c-2-3.85-4-7.66-5.71-11.62-3.07-7-4.87-14.51-3.29-22.05a7.39,7.39,0,0,1-3.56-1.5c-3.17,13.37,3.69,26.05,9.65,37.78,2.68,5.2,5,11.06,3.42,17a12.55,12.55,0,0,1-5,7.17,71.62,71.62,0,0,1-9.05,5.64,13,13,0,0,1-9.53,1.18,36.54,36.54,0,0,1-9.12-4.66,49.6,49.6,0,0,1-7.51-6.2,51.93,51.93,0,0,1-7-7.91c-.9-1.35-1.73-2.76-2.64-4.11-.26-.4-.55-.78-.85-1.16a1.64,1.64,0,0,1-.33-.26A10.5,10.5,0,0,1,228,668l-.22-.28a17.86,17.86,0,0,1-2.21-5.36,29.06,29.06,0,0,1-1.25-5.91,26.35,26.35,0,0,1,0-3.77,26.9,26.9,0,0,1,1.07-10.28c.31-3.21.61-6.43.92-9.72.75-7.69,1.13-15.49,2.67-23.08a25.35,25.35,0,0,1,4.51-11.13.73.73,0,0,1,.1-.46,38.23,38.23,0,0,1,1.76-4.29l.75-1.58a3.69,3.69,0,0,1,.29-.64c-5.5,2.8-8.58,8.14-10.18,13.94-1.77,6.57-2.2,13.4-2.84,20.09-.83,8.57-1.63,17.15-2.51,25.73a30.65,30.65,0,0,0,1.25,12,32.21,32.21,0,0,0,2.28,5.77,46.54,46.54,0,0,0,3.16,4.1c1.07,1.56,2,3.22,3.06,4.73a38,38,0,0,0,3.67,4.43,66.91,66.91,0,0,0,7.81,7.62,44.69,44.69,0,0,0,8.79,5.76c3.31,1.65,6.56,3.22,10.35,3a22.3,22.3,0,0,0,10.05-3.47c1.49-.88,2.94-1.84,4.38-2.82a26.91,26.91,0,0,0,4.82-3.67C284.85,684.08,285.78,677.52,284.42,671.23Z" fill="#fff200" stroke="#fff200" stroke-miterlimit="10"/>
      <path d="M217.88,464.38c.56,6.28,1.07,12.87-1.89,18.69-2.2,4.28-5.55,7.87-8.79,11.4s-6.57,7.15-8.79,11.44c-2.65,5.24-2.92,10.79-1.94,16.49,1.07,6.28,3.34,12.39,2.78,18.84-.51,5.71-3.1,11-5.87,16-2.87,5.15-6.14,10.12-8.57,15.52a97.32,97.32,0,0,0-6,19.3c-3.45,15.72-6.38,31.56-9.65,47.35-.49,2.37,3.15,3.39,3.62,1q4.34-21.39,8.65-42.7a130.1,130.1,0,0,1,5.2-19.6c2.15-5.8,5.43-11.05,8.58-16.32,2.89-5,5.74-10.24,7.06-15.92,1.41-6.11.48-12-.9-18s-2.79-11.94-.63-17.81c1.64-4.44,4.89-8.11,8-11.55,3.76-4.09,7.72-8.14,10.29-13.08,3.39-6.53,3.13-13.66,2.51-20.77-.19-2.41-4-2.43-3.76,0Z" fill="#fff200" stroke="#fff200" stroke-miterlimit="10"/>
      <path d="M205.41,618.63a178.8,178.8,0,0,0-24.79,11.64,37.29,37.29,0,0,0-10.17,8.1A52.83,52.83,0,0,0,164,648.6c-7.23,14.13-11.2,30.46-9.72,46.46a61.93,61.93,0,0,0,7.75,25.25,1.88,1.88,0,0,0,3.21-1.83c-7.5-13.19-9-28.88-6.27-43.61a88.21,88.21,0,0,1,7-21.54c3.4-7.26,7.44-13.94,14.31-18.3a145.59,145.59,0,0,1,26.2-12.77c2.23-.87,1.26-4.51-1-3.64Z" fill="#fff200" stroke="#fff200" stroke-miterlimit="10"/>
      <path d="M226.06,634.34a5.19,5.19,0,0,1,.22-1.41,80.71,80.71,0,0,0-17.65,3.7,98.17,98.17,0,0,0-13.36,5,21.16,21.16,0,0,0-9.57,8.1,1.89,1.89,0,0,0,3.21,1.91h0c2-3.42,5.36-5.47,8.88-7.08a102.19,102.19,0,0,1,12.93-4.66,77.32,77.32,0,0,1,15.07-3.13Q226,635.59,226.06,634.34Z" fill="#fff200" stroke="#fff200" stroke-miterlimit="10"/>
      <path d="M459.84,716.44c-12.86,8.79-25.78,17.39-40.31,23.23a270.55,270.55,0,0,1-45.21,13.27c-31,6.59-62.69,9.32-94.18,12.69l-49.31,5.26c-8.27.88-16.54,2.06-24.83,2.51a32,32,0,0,1-19.91-5c-11.9-7.73-17.5-21.88-19.1-35.5a81.16,81.16,0,0,1,6.53-42.3,63.65,63.65,0,0,1,11.92-18.41,53.69,53.69,0,0,1,15.07-10.51c7.63-3.76,15.77-6.53,23.52-10a30.43,30.43,0,0,1,.09-4.05c-6.28,3-12.87,5.36-19.1,8a78.43,78.43,0,0,0-16.26,8.93,54.76,54.76,0,0,0-14.07,16.08,85,85,0,0,0-11.93,42.31c-.15,14.48,3.22,29.85,12.67,41.1a38.56,38.56,0,0,0,15.94,11.3c7.36,2.74,15,2,22.61,1.14L264.86,771c32.58-3.49,65.39-6.18,97.64-12a320.56,320.56,0,0,0,47.17-11.79,179.2,179.2,0,0,0,21.73-8.79A189.36,189.36,0,0,0,452,726.28c3.22-2.14,6.44-4.36,9.65-6.57C463.73,718.33,461.8,715.05,459.84,716.44Z" fill="#fff200" stroke="#fff200" stroke-miterlimit="10"/>
      <path d="M210.32,657.21c-4.39,7.4-12.47,11.4-19,16.64a33.41,33.41,0,0,0-8.46,9.65A37.67,37.67,0,0,0,178.68,697a91.15,91.15,0,0,0-.34,16.6c.13,2.41,3.89,2.43,3.76,0-.45-9.17-.67-19.17,3.78-27.52,4-7.62,11.6-11.79,18.22-16.84a36.56,36.56,0,0,0,9.59-10.05,1.89,1.89,0,0,0-3-2.35,2.21,2.21,0,0,0-.26.44h0Z" fill="#fff200" stroke="#fff200" stroke-miterlimit="10"/>
      <path d="M224.13,651a79.65,79.65,0,0,0-19.42,9c-2,1.33-.12,4.6,1.91,3.22a75.41,75.41,0,0,1,17.83-8.37A38.53,38.53,0,0,1,224.13,651Z" fill="#fff200" stroke="#fff200" stroke-miterlimit="10"/>
      <path d="M229.65,670.27a10.28,10.28,0,0,1-2.25-3.42,105,105,0,0,0-11.6,24.88,100.81,100.81,0,0,0-3.55,15.33c-.36,2.37,3.22,3.39,3.62,1a102.39,102.39,0,0,1,13.82-37.81Z" fill="#fff200" stroke="#fff200" stroke-miterlimit="10"/>
      <path d="M604,392.75c16.87,1.5,34.4,10.65,38.33,28.42a26.25,26.25,0,0,1-.56,13.68c-.74,2.31,2.91,3.31,3.63,1,2.76-8.79,1-18.35-3.66-26.14-4.91-8.17-12.87-13.81-21.74-17.16a61.78,61.78,0,0,0-16-3.49C601.62,388.79,601.62,392.55,604,392.75Z" fill="#fff200" stroke="#fff200" stroke-miterlimit="10"/>
      <path d="M645.63,432.26c4.76,1.95,6.87,7.37,8.06,12,1.44,5.5,2.52,10.88,5.28,15.89,2.74,4.83,6.29,9.15,8.87,14.06a55,55,0,0,1,5.56,34.3c-.38,2.38,3.22,3.41,3.64,1A59.35,59.35,0,0,0,672.39,475c-2.51-5.49-6.28-10.19-9.36-15.33a33.69,33.69,0,0,1-3.78-8.17c-.88-3-1.4-6-2.23-9-1.61-5.82-4.65-11.38-10.47-13.81-2.24-.92-3.22,2.72-1,3.63Z" fill="#fff200" stroke="#fff200" stroke-miterlimit="10"/>
      <path d="M675.14,510.79c4.06,3.76,4.22,9.46,4.29,14.6,0,5.57-.22,11.44,2.14,16.62,1.34,2.94,3.63,4.76,5.94,6.9,2.86,2.65,3.15,6.11,3.4,9.81.61,8.58,1.25,17.38-.07,25.94-1.26,8.1-4.2,16.09-9.87,22.1-1.67,1.76,1,4.44,2.66,2.67C695.36,597,696,579.11,694.93,563c-.24-3.87-.13-8.17-1.48-11.86a12.14,12.14,0,0,0-2.94-4.56,43.1,43.1,0,0,1-4.15-3.85c-3.63-4.5-3.21-11.08-3.21-16.52,0-6.43-.33-13.48-5.36-18.09-1.8-1.63-4.47,1.07-2.67,2.66Z" fill="#fff200" stroke="#fff200" stroke-miterlimit="10"/>
      <path d="M694.24,583.14a88.79,88.79,0,0,1,7.46,41.92c-.32,4.76-1.15,9.51-.89,14.29a23.08,23.08,0,0,0,1.25,6.84c.78,2.14,1.93,4.16,2.75,6.28,1.73,4.41,1.13,9.07,1.16,13.68a20.52,20.52,0,0,0,3.39,12.22c2.38,3.42,5.61,6.16,7.88,9.65a24.34,24.34,0,0,1,.44,25.39,1.89,1.89,0,0,0,1,2.46,1.91,1.91,0,0,0,2.19-.56,28.2,28.2,0,0,0,2.26-23.64,32.48,32.48,0,0,0-6.7-10.61c-3-3.32-5.89-6.57-6.54-11.18s.22-9.19-.36-13.81c-.61-4.82-3.58-8.71-4.58-13.4s-.24-10,.22-14.83a92.18,92.18,0,0,0-7.74-46.71c-1-2.21-4.29-.29-3.22,1.91Z" fill="#fff200" stroke="#fff200" stroke-miterlimit="10"/>
      <path d="M666,688c8.57.18,17.31-1.07,25.82.42,6.7,1.15,13.55,4,17.58,9.7,1.37,2,4.66.1,3.22-1.91-4.4-6.27-11.48-9.82-18.84-11.3-9.16-1.77-18.52-.53-27.77-.72a1.89,1.89,0,1,0,0,3.77Z" fill="#fff200" stroke="#fff200" stroke-miterlimit="10"/>
      <path d="M662.28,705.25c21-.7,43.39,2.8,59.28,17.66,1.77,1.66,4.43-1,2.66-2.66-16.64-15.59-40-19.5-61.94-18.76C659.78,701.57,659.78,705.34,662.28,705.25Z" fill="#fff200" stroke="#fff200" stroke-miterlimit="10"/>
      <path d="M666,714.7c20.49-3.35,39.1,9.65,49.41,26.45,1.25,2.07,4.52.17,3.21-1.9a64.16,64.16,0,0,0-21.69-22A48.06,48.06,0,0,0,665,710.94c-2.39.39-1.39,4,1,3.63Z" fill="#fff200" stroke="#fff200" stroke-miterlimit="10"/>
      <path d="M663.06,715.07c9.29,5.42,17,13,24.57,20.5,3.77,3.76,7.8,7.63,10.72,12.2a39.86,39.86,0,0,1,5.74,14.71c.4,2.39,4,1.37,3.62-1a42.07,42.07,0,0,0-6.07-15.61A78.8,78.8,0,0,0,690.7,733.3c-7.91-7.91-16-15.81-25.73-21.44a1.9,1.9,0,0,0-2.66.31,1.88,1.88,0,0,0,.31,2.65,1.5,1.5,0,0,0,.44.26Z" fill="#fff200" stroke="#fff200" stroke-miterlimit="10"/>
      <path d="M718.31,715.84c2.8,6.78,5.65,14.16,2.25,21.27-1.45,3-3.34,5.82-4.51,9a34.24,34.24,0,0,0-1.77,10.19c-.35,7,.17,14.14-2.88,20.69-2.7,5.77-7,10.54-11.56,15-2.51,2.5-5.19,5.46-8.31,7.23a4.73,4.73,0,0,1-4.52.44,2.38,2.38,0,0,1-1.5-3h0c.8-2.06-2.35-3.22-3.44-1.46-6.55,10.3-13.36,20.87-23.78,27.63a184.29,184.29,0,0,1-17.74,9.65l-19,9.64c-6.84,3.51-13.57,7.28-21.11,9-2.36.52-1.35,4.15,1,3.62,6.72-1.48,12.87-4.65,18.92-7.77l19.85-10.11c6.28-3.22,12.71-6.2,18.7-9.91a60,60,0,0,0,14.27-12.4,161.79,161.79,0,0,0,12.16-17.36l-3.5-1.47c-1.25,3,.88,6.19,3.61,7.51,3.3,1.6,6.87.28,9.64-1.77a77.34,77.34,0,0,0,8.16-7.51,71.88,71.88,0,0,0,7.33-8.26,39.19,39.19,0,0,0,5.23-9.43,37,37,0,0,0,2-11.51c.19-4.08,0-8.2.58-12.25a31.5,31.5,0,0,1,4.19-11c2.22-4.06,3.77-8.18,3.32-12.87a46.51,46.51,0,0,0-3.87-13.66c-.91-2.21-4.56-1.25-3.63,1Z" fill="#fff200" stroke="#fff200" stroke-miterlimit="10"/>
      <path d="M642.31,709.56h.1c-1.53,4.46-6.43,6.55-10.59,7.9a101.72,101.72,0,0,1-17.33,4A104.59,104.59,0,0,1,578,720.18c-2-.42-3.48,2.51-1.45,3.44a58.05,58.05,0,0,1,31.26,40.11,205.46,205.46,0,0,1,2.84,22.12c1.47,14.64,2.51,29.6,0,44.18-.86,4.94-1.92,11.85-6.54,14.88-5.23,3.4-10.17-3.95-12.57-7.76-6.91-11.29-8.51-25-16.08-36-1.35-2-4.63-.1-3.21,1.91a51.28,51.28,0,0,1,4.49,8.19,1.44,1.44,0,0,1,.18.25,5.2,5.2,0,0,1,.76,1.93c1.45,3.49,2.67,7.08,3.95,10.65a13.32,13.32,0,0,1,1.59,4.28,67.56,67.56,0,0,0,4.37,9.51c2.78,4.88,7.29,11.6,13.57,11.7,5.83.11,9.44-5.61,11.17-10.48a54.27,54.27,0,0,0,2.27-10.39,113.69,113.69,0,0,0,1.08-11.8,183,183,0,0,0-.61-23.3c-.65-8-1.43-15.91-2.51-23.86a70.26,70.26,0,0,0-5.55-20.1,61.69,61.69,0,0,0-20.18-24.3,107.21,107.21,0,0,0,21,.45c9.65-.74,19.82-2.43,28.71-6.28,4.11-1.8,7.73-4.63,9.23-9C646.73,708.22,643.05,707.28,642.31,709.56Z" fill="#fff200" stroke="#fff200" stroke-miterlimit="10"/>
      <path d="M602.47,850.53l-7.73-7.25a1.89,1.89,0,1,0-2.67,2.67h0l7.71,7.22a1.91,1.91,0,0,0,2.86-2.52Z" fill="#fff200" stroke="#fff200" stroke-miterlimit="10"/>
      <path d="M682.82,769.23a206.12,206.12,0,0,1-.14,28.66c-.19,2.42,3.59,2.4,3.76,0a204.59,204.59,0,0,0,.14-28.66C686.43,766.75,682.64,766.74,682.82,769.23Z" fill="#fff200" stroke="#fff200" stroke-miterlimit="10"/>
      <path d="M577.38,806a42.16,42.16,0,0,0,24.56-13.37c6-6.91,9.92-16.58,8.58-25.84a14.55,14.55,0,0,0-5.65-10.13c-3.9-2.64-9-2.15-13,0-4.28,2.26-7.31,6.28-10.12,10.17s-5.67,8.14-6.64,13c-2,9.65,4.77,19.68,14.57,21.21,2.37.36,3.4-3.22,1-3.63a14.5,14.5,0,0,1-12.18-14.77c.26-4.29,2.51-8.07,4.81-11.49a46.16,46.16,0,0,1,7.69-9.32c2.91-2.51,7.38-4.29,11.07-2.4,3,1.53,4.29,5,4.77,8.19,1.07,7.5-2.14,15.8-6.91,21.62a38.76,38.76,0,0,1-23.52,13.23c-2.38.42-1.38,4.06,1,3.64Z" fill="#fff200" stroke="#fff200" stroke-miterlimit="10"/>
      <path d="M588.87,760.4c.4-9,.36-19.54-7.29-25.82-3.59-3-8-4.71-11.68-7.44a1.77,1.77,0,0,1-.38-.44c-.11.24,0,.3.17.17a6.51,6.51,0,0,1,1.69-.29c1.25-.15,2.41-.27,3.61-.38,2.62-.23,5.24-.37,7.88-.4a1.89,1.89,0,1,0,0-3.77c-2.83,0-5.65.19-8.48.46-2.15.2-5.15.12-7,1.34a3.58,3.58,0,0,0-1,5h0a1.33,1.33,0,0,0,.36.45c1.61,2,4.41,3.12,6.55,4.38,4.47,2.61,8.46,5.22,10.34,10.29s1.69,10.94,1.45,16.44c-.1,2.43,3.66,2.43,3.76,0Z" fill="#fff200" stroke="#fff200" stroke-miterlimit="10"/>
      <path d="M583.46,830.58a9.08,9.08,0,0,1-.54,2.52,5.6,5.6,0,0,1,.9.4l1.08.85.16.18a7.7,7.7,0,0,0,.79-2.06,17.08,17.08,0,0,0-.39-8.34,1.92,1.92,0,0,0-2.37-1.31h0a2,2,0,0,0-1.18,1.07A12.23,12.23,0,0,1,583.46,830.58Z" fill="#fff200" stroke="#fff200" stroke-miterlimit="10"/>
      <path d="M550.58,797.63a2.34,2.34,0,0,1,.58-.14c1.48-.21,3-.51,4.46-.77l-3-2.15C550.78,793.16,549,796.14,550.58,797.63Z" fill="#fff200" stroke="#fff200" stroke-miterlimit="10"/>
      <path d="M571.31,803.31h0l.26-.95h0l.66-.68h0l1-.31h0l.48.07h0l.44.19h0l.4.3h0l.3.38h0l.18.44v.92l-.18.45h0l-.29.39h0l-.38.3h0l-.44.18h-.42l1,.08,1.07.12,2.22.2a1.88,1.88,0,0,0,1.89-1.89,1.92,1.92,0,0,0-.55-1.33,2.33,2.33,0,0,0-1.34-.55l-3.76-.36a3.29,3.29,0,0,0-1.17,0,2,2,0,0,0,.93,4h0a2.16,2.16,0,0,0,1.26-.94,2.19,2.19,0,0,0,.26-1,1.87,1.87,0,0,0-1.79-1.91,2,2,0,0,0-1.36.56,2.18,2.18,0,0,0-.53,1.33Z" fill="#fff200" stroke="#fff200" stroke-miterlimit="10"/>
      <path d="M578.33,787.22a1.85,1.85,0,0,0-2.5.65c-2.15,3.51-6.65,4-10.36,4.39a58,58,0,0,1-13.81.31,1.86,1.86,0,0,0-1.89,1.82v.05a2,2,0,0,0,1.9,1.89c1.56.15,3.14.22,4.71.25a26.21,26.21,0,0,1,7.07-.5,7.37,7.37,0,0,1,.82.13c1-.1,2-.22,3-.38,4.58-.57,9.27-1.87,11.79-6.07A1.86,1.86,0,0,0,578.33,787.22Z" fill="#fff200" stroke="#fff200" stroke-miterlimit="10"/>
      <path d="M612.83,803.45a66.77,66.77,0,0,1-12.8-.23,26.76,26.76,0,0,1-6.14-1.63,28.64,28.64,0,0,0-6-2.14c-2.38-.4-3.39,3.22-1,3.63a33.36,33.36,0,0,1,6.43,2.32l1,.33.64.21a28.26,28.26,0,0,0,4.54,1,71.75,71.75,0,0,0,13.35.31C615.2,807.15,615.21,803.37,612.83,803.45Z" fill="#fff200" stroke="#fff200" stroke-miterlimit="10"/>
      <path d="M565.12,724.63c-5.3-.48-11.51-1-15.69-4.68-2.28-2-3.54-4.84-5.78-6.86-2-1.78-4.52-3.13-5.67-5.66-1-2.2-4.22-.29-3.21,1.9,1.25,2.87,4,4.41,6.28,6.44,2.51,2.14,3.76,5.36,6.43,7.39,5,4,11.57,4.7,17.71,5.26,2.41.21,2.4-3.55,0-3.77Z" fill="#fff200" stroke="#fff200" stroke-miterlimit="10"/>
      <path d="M468,703.06c7.12-1.7,16.55-5.36,23.12-.14a1.94,1.94,0,0,0,2.67,0,1.89,1.89,0,0,0,0-2.66c-8-6.28-18-2.93-26.8-.82C464.59,700,465.6,703.63,468,703.06Z" fill="#fff200" stroke="#fff200" stroke-miterlimit="10"/>
      <path d="M477.07,696.07a33.29,33.29,0,0,0-4.44-15.62,77,77,0,0,0-9.76-12.56c-1.61-1.8-4.28.87-2.65,2.67a75,75,0,0,1,8.94,11.3A29.7,29.7,0,0,1,473.29,696c.08,2.41,3.85,2.42,3.78,0Z" fill="#fff200" stroke="#fff200" stroke-miterlimit="10"/>
      <path d="M539,708.12c-3.22-3.76-7.85-5.78-12.28-7.83a36.82,36.82,0,0,1-6.77-3.85c-2.27-1.7-4.29-3.7-6.49-5.47-4.36-3.52-9.45-5.9-13.46-9.84A121.07,121.07,0,0,1,490.67,670c-3.41-4.29-7.13-8.35-11.92-11.11a1.88,1.88,0,0,0-2.47,1,1.9,1.9,0,0,0,.56,2.22h0c8.41,4.83,13,13.82,19.53,20.7,3.76,4,8.39,6.43,12.86,9.65s8.1,7.31,13.06,9.87,10.43,4.17,14.07,8.49c1.56,1.86,4.23-.82,2.66-2.67Z" fill="#fff200" stroke="#fff200" stroke-miterlimit="10"/>
      <path d="M438,752.38a75.89,75.89,0,0,1-14.39-1.84,1.92,1.92,0,0,0-2.32,1.26,1.87,1.87,0,0,0,1.27,2.31,83,83,0,0,0,15.39,2,1.89,1.89,0,0,0,0-3.78Z" fill="#fff200" stroke="#fff200" stroke-miterlimit="10"/>
      <path d="M406.74,771.06a41.81,41.81,0,0,0,9.75,2.23c3.37.37,6.78-.15,10.15.24,3.15.36,6.05,2,9.07,2.88a34.28,34.28,0,0,0,10.17,1.26,1.89,1.89,0,0,0,.29-3.77h-.29a31.26,31.26,0,0,1-9.71-1.25c-3-.93-5.82-2.39-9-2.79s-6.44,0-9.58-.21a37.69,37.69,0,0,1-9.89-2.15c-2.3-.8-3.27,2.83-1,3.64Z" fill="#fff200" stroke="#fff200" stroke-miterlimit="10"/>
      <path d="M552.26,794a97.94,97.94,0,0,0-22.68,1.42l-1.07.16-2.61.42q-8.91,1.6-18,2.39a5.88,5.88,0,0,1-2,.37h-3c-1,0-2,.13-3,.18a140.41,140.41,0,0,1-26-1.52,92.17,92.17,0,0,1-21.54-5.46c-6.75-2.84-12.86-6.91-16.31-13.14-1.07-2-4.37-.22-3.22,1.76,6.71,12,21.9,16.87,35.38,19.45a151.05,151.05,0,0,0,27,2.47h.15a15.88,15.88,0,0,1,6.43-.6,9.09,9.09,0,0,1,1.86.41,151.83,151.83,0,0,0,17.8-1.95c10.17-1.62,20.37-3.59,30.73-2.79C554.68,797.68,554.66,794.22,552.26,794Z" fill="#fff200" stroke="#fff200" stroke-miterlimit="10"/>
      <path d="M361.83,760.65c1.08,1.77.39,3.94-.18,5.76a24.43,24.43,0,0,1-2.7,6.28c-2.61,4-5.73,7.62-8.14,11.79s-3.52,8.89-5,13.42-3.37,9.31-5.36,13.81A137.78,137.78,0,0,1,333.69,825q-2,3.35-4.14,6.57a26.4,26.4,0,0,1-4.37,5.67c-2.92,2.51-7.06,3-10.72,3.33a114.24,114.24,0,0,0-12.39,1.24C295.78,843,290,847,288.51,853.51c-1.45,6.29,1.07,12.57,5,17.31a14.58,14.58,0,0,0,1.73,1.87A7,7,0,0,0,298.8,874a73.1,73.1,0,0,0,23.37,1.25,57.57,57.57,0,0,0,15.22-3.34c4.56-1.83,8-5.63,12.55-7.33,4.29-1.58,9-1.87,12.87-4.28a18.54,18.54,0,0,0,6.28-7.13c3.38-6.29,4.83-13.44,6.5-20.31.35-1.42.72-2.85,1.13-4.29l-3.15.83a15.4,15.4,0,0,0,3.77,2.51,1.93,1.93,0,0,0,2.61-.74h0a1.31,1.31,0,0,0,.15-.37l3-7.5-2.73,1.14a4.13,4.13,0,0,0,5-.64c1.6-1.4,1.79-4.28,1.9-6.27.24-4.06-.79-8.45,2.28-11.68l-1.32.55c11.92-1.4,21.44-8.2,29.54-16.72a1.9,1.9,0,0,0,0-2.67h0a1.9,1.9,0,0,0-1.78-.47,46.26,46.26,0,0,1-17.32,1.5l.95,3.51a48.59,48.59,0,0,1,9.42-4.17,1.9,1.9,0,0,0-1-3.65,25,25,0,0,1-8.5.41l1.61,2.82a13,13,0,0,1,4.82-4.75c1.79-1,.78-3.29-.93-3.51l-6.13-.77,1.83,2.39a223.2,223.2,0,0,1,13.22-30.55c1.13-2.15-2.15-4-3.22-1.9a229.44,229.44,0,0,0-13.58,31.39,1.91,1.91,0,0,0,1.34,2.33h0a1.09,1.09,0,0,0,.44,0l6.12.77-1-3.52a16.84,16.84,0,0,0-6.18,6.11,2,2,0,0,0,.73,2.61h0a1.75,1.75,0,0,0,.9.23,28.63,28.63,0,0,0,9.5-.52l-1-3.65a54.37,54.37,0,0,0-10.33,4.56,1.9,1.9,0,0,0,.95,3.52A49.31,49.31,0,0,0,417,790l-1.83-3.15c-6.29,6.62-13.55,12.56-22.61,14.82-2.2.56-4.86.3-6.37,2.14a11.67,11.67,0,0,0-2.51,5.95,55.34,55.34,0,0,0-.14,6.44c0,.56-.3,5.52-1.25,4.84a1.91,1.91,0,0,0-2.59.72h0a1.71,1.71,0,0,0-.17.39l-3,7.5,2.77-1.07a11.34,11.34,0,0,1-3.05-1.81,1.84,1.84,0,0,0-2.6-.11h0a1.75,1.75,0,0,0-.53.87c-1.87,6.27-2.93,12.86-5.22,19.07a25.85,25.85,0,0,1-4.59,8.27c-2.66,2.94-6.43,3.76-10.15,4.7a32.57,32.57,0,0,0-6.28,2.15,44.89,44.89,0,0,0-5.86,3.76c-4.14,2.9-8.8,4.17-13.81,5a69.83,69.83,0,0,1-15.34,1.13,62.18,62.18,0,0,1-7.71-.67c-1.26-.17-2.51-.4-3.76-.66a7.7,7.7,0,0,1-2.9-.8,13.42,13.42,0,0,1-3-3.76,17,17,0,0,1-1.86-4,13.29,13.29,0,0,1-.4-7.72c1.7-6.37,8.31-8.58,14.21-9.15,7.27-.73,16.32,0,22-5.62a39.12,39.12,0,0,0,4.21-5.63c1.41-2.07,2.74-4.19,4-6.27a133.43,133.43,0,0,0,6.64-13.06c1.94-4.29,3.69-8.79,5.29-13.21.79-2.22,1.54-4.44,2.27-6.69a41.16,41.16,0,0,1,2.36-6.54c2.14-4.14,5.11-7.71,7.77-11.49a25.54,25.54,0,0,0,3.22-5.92,32.31,32.31,0,0,0,1.78-6.1,8.43,8.43,0,0,0-.91-5.59,1.9,1.9,0,0,0-2.64-.4,1.84,1.84,0,0,0-.62,2.24Z" fill="#fff200" stroke="#fff200" stroke-miterlimit="10"/>
      <path d="M602.24,855.1a8.6,8.6,0,0,1,3.58-1.36,2.59,2.59,0,0,0-.09-.68c-.29-2.37-4.08-2.41-3.78,0C602,853.74,602.13,854.43,602.24,855.1Z" fill="#fff200" stroke="#fff200" stroke-miterlimit="10"/>
      <path d="M477.63,217.31q1.49-6,2.8-12a1.9,1.9,0,0,0-1.25-2.32,214.81,214.81,0,0,1-30-7.25c-4.69-1.49-9.65-3-14.63-2.67a24.51,24.51,0,0,0-11.48,4.4c-3.77,2.51-7.3,5.5-11.62,7-2.29.78-1.26,4.42,1,3.64,4.84-1.65,8.71-4.87,12.93-7.61a23.39,23.39,0,0,1,6.63-3.21,19.55,19.55,0,0,1,9,.09c6.17,1.26,12.12,3.63,18.23,5.22s12.55,3,19,4l-1.24-2.31c-.86,4-1.79,8-2.82,12a1.89,1.89,0,0,0,3.63,1Z" fill="#fff200" stroke="#fff200" stroke-miterlimit="10"/>
      <path d="M412.62,209.77a87.08,87.08,0,0,1,31.58-.62,69.56,69.56,0,0,1,15.06,4.61c4.75,2,9.46,4,14.67,4.37,2.42.15,2.41-3.61,0-3.76-5.42-.36-10.34-2.91-15.27-4.92a68.18,68.18,0,0,0-15.08-4.23,94.08,94.08,0,0,0-31.93.93c-2.38.45-1.37,4.07,1,3.62Z" fill="#fff200" stroke="#fff200" stroke-miterlimit="10"/>
      <g>
        <path d="M516.22,221l.36-3.29a4.75,4.75,0,0,1,.18-1.5c.15-.25.24-.25.6-.34a44.31,44.31,0,0,1,6.28-1.08c4.29-.62,8.57-1.07,12.86-1.4a181.11,181.11,0,0,1,25.73,0c2.42.17,2.41-3.59,0-3.76a176.36,176.36,0,0,0-29.34.31c-4.84.45-9.65,1.07-14.47,1.92-1.78.31-3.77.48-4.82,2.24a7.61,7.61,0,0,0-.65,3l-.43,3.89c-.27,2.4,3.51,2.38,3.76,0Z" fill="#fff200" stroke="#fff200" stroke-miterlimit="10"/>
        <path d="M515.4,225.64a200.2,200.2,0,0,1,44.65-.64c2.41.24,2.4-3.52,0-3.76a200.21,200.21,0,0,0-44.65.62C513.07,222.16,513,226,515.4,225.64Z" fill="#fff200" stroke="#fff200" stroke-miterlimit="10"/>
      </g>
      <path d="M507.76,251.21a96.41,96.41,0,0,0,35.9,3.69c2.41-.2,2.43-4,0-3.76a93.37,93.37,0,0,1-34.9-3.56c-2.33-.7-3.33,2.94-1,3.63Z" fill="#fff200" stroke="#fff200" stroke-miterlimit="10"/>
      <path d="M510.12,250a26.63,26.63,0,0,1,9.54-4.67,47.88,47.88,0,0,1,5.52-1.26,26.23,26.23,0,0,1,6-.73c3.63.17,7.37,2.51,10.39,4.39a22.15,22.15,0,0,1,2.27,1.55c.62.52,1.14,1.26,1.77,1.72l.26.32c.55-.89.6-1.26.15-1.07a5,5,0,0,0-1.25.36c-1.19.31-2.38.6-3.58.88-2.36.54-1.38,4.16,1,3.62,2-.45,5.36-.7,6.77-2.37,1.64-2-.21-4.08-1.66-5.45a27.76,27.76,0,0,0-5.74-3.92,45.34,45.34,0,0,0-6.55-3.06c-4.69-1.59-10.13-.15-14.78,1.07a33.67,33.67,0,0,0-12.71,6c-1.89,1.54.8,4.19,2.67,2.68Z" fill="#fff200" stroke="#fff200" stroke-miterlimit="10"/>
      <path d="M515.17,241.17c4.8-2.33,10.86-5,16.33-4.07a43.58,43.58,0,0,1,7.24,2.14,14.7,14.7,0,0,1,6.09,3.88c1.61,1.82,4.29-.85,2.66-2.66a17.92,17.92,0,0,0-6.82-4.49,40.72,40.72,0,0,0-8.79-2.59c-6.43-1-13,1.8-18.65,4.53-2.15,1.07-.28,4.29,1.89,3.22Z" fill="#fff200" stroke="#fff200" stroke-miterlimit="10"/>
      <path d="M520.27,244.73a7.89,7.89,0,0,0-.43,3.79,4.5,4.5,0,0,0,2.31,3,15.36,15.36,0,0,0,3.5,1.83,12.53,12.53,0,0,0,4.17.54,8.1,8.1,0,0,0,4-.83,7,7,0,0,0,2.53-2.53c1.26-2.14,1.69-5.06-.14-7a1.91,1.91,0,0,0-2.69,2.7h0l.1.15c-.08-.18-.1-.15,0,0v.66a8.3,8.3,0,0,1-.34,1.07c.13-.31-.12.22-.12.22l-.31.5c-.26.42.2-.15-.16.21l-.39.4c-.35.31.19,0-.22.15,0,0-.51.26-.2.14a6.55,6.55,0,0,1-2.53.23,7.53,7.53,0,0,1-2.66-.39,14.25,14.25,0,0,1-2.21-1.19l-.56-.36c-.27-.17,0,.09-.23-.17l-.12-.15c.08.1.09.1,0,0s0-.12,0,0v-.12a4.21,4.21,0,0,1,0-.71,11.17,11.17,0,0,1,.34-1.26,1.9,1.9,0,1,0-3.66-1Z" fill="#fff200" stroke="#fff200" stroke-miterlimit="10"/>
      <path d="M528,248.33a1.89,1.89,0,0,0,0-3.76h0a1.89,1.89,0,0,0-.29,3.76H528Z" fill="#fff200" stroke="#fff200" stroke-miterlimit="10"/>
      <path d="M426.61,232.89c10.14,7.12,22.94,7.86,34.88,6.6,2.38-.26,2.42-4,0-3.78-11.31,1.26-23.34.7-33-6.08C426.51,228.24,424.61,231.51,426.61,232.89Z" fill="#fff200" stroke="#fff200" stroke-miterlimit="10"/>
      <path d="M427.39,231.24a20.59,20.59,0,0,1,18-4.68,26.63,26.63,0,0,1,9,3.7c2.59,1.66,5.58,3.9,6.79,6.84.92,2.2,4.56,1.25,3.64-1a19.86,19.86,0,0,0-7.5-8.38,30.12,30.12,0,0,0-10.94-4.79,24.57,24.57,0,0,0-21.62,5.65C423,230.19,425.73,232.9,427.39,231.24Z" fill="#fff200" stroke="#fff200" stroke-miterlimit="10"/>
      <path d="M435.31,227.48a24.09,24.09,0,0,0,.4,4.56,7.11,7.11,0,0,0,1.41,3.64,6.78,6.78,0,0,0,3.42,1.83,22.57,22.57,0,0,0,4.14.79,15,15,0,0,0,8.11-1.26,5.85,5.85,0,0,0,2.82-2.58c.7-1.45.27-2.91.46-4.43a1.89,1.89,0,0,0-3.78,0h0c-.08.83.29,2,0,2.76a2.89,2.89,0,0,1-1.56,1.07,11.88,11.88,0,0,1-6,.65,16.29,16.29,0,0,1-2.86-.58,4.17,4.17,0,0,1-1.88-.75,5.26,5.26,0,0,1-.67-2.51,18.15,18.15,0,0,1-.19-3.21,1.89,1.89,0,0,0-3.77,0h0Z" fill="#fff200" stroke="#fff200" stroke-miterlimit="10"/>
      <path d="M443.72,232.56a1.89,1.89,0,1,0-1.89-1.89,1.88,1.88,0,0,0,1.89,1.89Z" fill="#fff200" stroke="#fff200" stroke-miterlimit="10"/>
      <path d="M464.31,227.35a21.88,21.88,0,0,0-14.1-9.85c-7.06-1.63-14.38-.24-21.15,2-2.29.75-1.25,4.4,1,3.64,5.95-2,12.43-3.42,18.7-2.15A18.36,18.36,0,0,1,461,229.22a1.89,1.89,0,0,0,3.22-1.9Z" fill="#fff200" stroke="#fff200" stroke-miterlimit="10"/>
      <path d="M496.75,120c-10.72,7.19-23.16,11.33-34.23,17.76a97.26,97.26,0,0,0-24.91,21.76c-14.51,17.59-24,38.46-33,59.15-2.68,6.14-5.36,12.3-7.51,18.66a82,82,0,0,0-4,20.5,153.18,153.18,0,0,0,1.89,38A98.52,98.52,0,0,0,407,328c6.28,10.82,15.07,19.65,24,28.31,7.38,7.18,14.91,14.92,25,18.22,5.21,1.7,10.83,2.15,16.33,2.72a62.74,62.74,0,0,0,17.15-.08,44.69,44.69,0,0,0,16.51-6.77c5-3.22,9.38-7.72,13.94-11.7,7.12-6.28,14.23-13.4,18.22-22.17a69.34,69.34,0,0,1,4.11-7.94c2.84-4.63,5.58-9.33,8-14.19A78.94,78.94,0,0,0,555.85,300a47.06,47.06,0,0,1,1.74-4.92,54.5,54.5,0,0,0,4.78-16.33,64.4,64.4,0,0,0-.2-11.7,63.34,63.34,0,0,1,.73-13.48c3.63-26.95,6.54-54.67-2.51-81a81.14,81.14,0,0,0-18.62-31.09,65,65,0,0,0-29.47-17.31,54.11,54.11,0,0,0-16.52-1.58c-2.42.15-2.43,3.92,0,3.77,23.28-1.47,44.05,13.7,54.94,33.43,12.55,22.79,13.26,49.53,10.62,74.81-.73,7.05-1.68,14.08-2.64,21.11a54.09,54.09,0,0,0-.34,11.86,57.66,57.66,0,0,1,.11,11.3,53.24,53.24,0,0,1-4.56,14.83c-1.51,3.5-2.25,7.23-3.54,10.81-2.79,7.81-7.22,15.07-11.53,22.13-3.31,5.42-5.36,11.38-9.24,16.44a93.62,93.62,0,0,1-11.93,12.37c-2.25,2-4.55,3.95-6.78,6a57.5,57.5,0,0,1-6.73,5.53,41.86,41.86,0,0,1-16.08,6.43,61.63,61.63,0,0,1-16.56-.14c-5.15-.55-10.51-1-15.42-2.79a43.07,43.07,0,0,1-12.81-7.69c-3.94-3.34-7.51-7.09-11.21-10.65a182.19,182.19,0,0,1-12.71-13.21,91.33,91.33,0,0,1-17.15-30.14,114.35,114.35,0,0,1-5.52-33.23,154.89,154.89,0,0,1,.37-20.21,81.12,81.12,0,0,1,4.47-19.52c4-11.17,9.09-22.09,14.15-32.83a234.79,234.79,0,0,1,15.78-28.88,116.89,116.89,0,0,1,21-24.48,86.3,86.3,0,0,1,13.46-9.47c5.43-3.1,11.16-5.64,16.82-8.29a117.73,117.73,0,0,0,16-8.65c2-1.33.13-4.6-1.88-3.22Z" fill="#fff200" stroke="#fff200" stroke-miterlimit="10"/>
      <path d="M557.06,304.37a51.25,51.25,0,0,0-1.07-7.51c-.5-2.37-4.12-1.37-3.62,1v.06c2.14,10.05.36,20.18-2.28,29.9s-6.2,19.58-8.32,29.65A242.5,242.5,0,0,0,537.66,389c-.84,10.79-1.5,21.6-2.23,32.41L531,487.49c-1.25,19.47-1.46,40.31-9.89,58.32a54.87,54.87,0,0,1-10.86,15.44l-.29.39a27.5,27.5,0,0,1-4.17,3.9,4.24,4.24,0,0,1-1.64.76,35.63,35.63,0,0,1-21.35,6.92,9.81,9.81,0,0,1-1.53-.08,135.86,135.86,0,0,0,21.55-19.89,38.24,38.24,0,0,0,2-3.94c.33-.79.64-1.6.93-2.4a1.59,1.59,0,0,0-2.22-.29,1.33,1.33,0,0,0-.29.29,134.58,134.58,0,0,1-27.76,25.73,1.9,1.9,0,0,0-.61,2.63h0a1.78,1.78,0,0,0,1.07.81C493,580,509.69,569.9,519.36,556.3c11.45-16.08,13.22-37,14.48-56q2.37-33.7,4.64-67.6l2.29-34.05c.74-11,1.51-22,3.29-32.8,1.72-10.55,4.85-20.65,7.91-30.87C555.07,325,557.71,314.82,557.06,304.37Z" fill="#fff200" stroke="#fff200" stroke-miterlimit="10"/>
      <path d="M555.35,648a216.43,216.43,0,0,1-13.94-20.91,13.74,13.74,0,0,1-3.88-5.81h0a1.93,1.93,0,0,1-.2-.52v-.1a2.62,2.62,0,0,1,0-.56c0-.25-.09-.51-.11-.75s-.13-.22-.18-.33a4.35,4.35,0,0,1-.47-1.26c-7-14.58-11.06-30.31-8.34-46.46a123.08,123.08,0,0,1,6-21c2.51-7.25,5-14.5,6.94-21.94S544.63,513.48,546,506a221.22,221.22,0,0,0,3.77-23.16,65.46,65.46,0,0,0-3.22-24.42c-2.36-7.83-5.36-15.49-6.7-23.59-.4-2.38-4-1.38-3.62,1h0c2.51,14.44,10,27.78,9.89,42.69-.12,7.93-1.85,15.75-3.3,23.5s-3,15.4-4.83,23.07q-2.73,10.95-6.54,21.6a153.18,153.18,0,0,0-6.6,21.35c-2.74,13.64-1,27.62,3.78,40.62a123.93,123.93,0,0,0,8.79,19,2.26,2.26,0,0,1,1.95,2.22,5,5,0,0,0,0,.55,7.56,7.56,0,0,0,.39,1.25c3.12,5.21,6.52,10.26,10.05,15.17-6.36-1-11.93-5.28-15.53-10.59a31.74,31.74,0,0,1-2.42-4.14,15.31,15.31,0,0,1-4-4.2,27,27,0,0,1-3.22-6.07l-.11-.28a6,6,0,0,1-.84-1.15c1.68,6.74,3.94,13.37,8.1,18.92,5.11,6.81,13,12,21.79,11.48a1.91,1.91,0,0,0,1.68-2.76Z" fill="#fff200" stroke="#fff200" stroke-miterlimit="10"/>
      <path d="M631.49,617C619,604.13,618.2,585.25,620,568.47c.25-2.42-3.52-2.38-3.77,0-1.86,17.82-.53,37.67,12.65,51.2C630.5,621.41,633.17,618.78,631.49,617Z" fill="#fff200" stroke="#fff200" stroke-miterlimit="10"/>
      <path d="M577.52,594.64c-7.5-23.59-6.43-48.7-8.58-73A196,196,0,0,0,566.16,501c-.47-2.38-4.1-1.37-3.65,1,4.73,24.22,3.14,49.1,6.81,73.44a129.63,129.63,0,0,0,4.6,20.23c.73,2.31,4.37,1.26,3.62-1Z" fill="#fff200" stroke="#fff200" stroke-miterlimit="10"/>
      <path d="M396.5,305.72l-5,19.41a56,56,0,0,1-6.64,16.23,162,162,0,0,1-9.51,13.58,46.12,46.12,0,0,1-12.06,11.2,1.89,1.89,0,0,0,1.93,3.21h0c7.7-4.63,13.16-11.79,18.22-19.07a98.91,98.91,0,0,0,7.51-11.87,67.9,67.9,0,0,0,4.64-13.8l4.6-17.95c.59-2.35-3-3.35-3.64-1Z" fill="#fff200" stroke="#fff200" stroke-miterlimit="10"/>
      <path d="M330.43,307.72a128.27,128.27,0,0,1-44.65,43.72,1.89,1.89,0,0,0,1.47,3.47,1.73,1.73,0,0,0,.44-.25h0a132.75,132.75,0,0,0,46-45.08,1.87,1.87,0,1,0-3.22-1.9Z" fill="#fff200" stroke="#fff200" stroke-miterlimit="10"/>
      <path d="M393.07,196.21a163.09,163.09,0,0,0-12.19,53.27c-.36,6.28-.22,12.68-.19,19a117.45,117.45,0,0,1-1.07,18.83,84.33,84.33,0,0,1-4.07,15.55,123.29,123.29,0,0,1-15.36,28.21A347.81,347.81,0,0,1,336.7,360c-1.58,1.82,1.08,4.49,2.67,2.66,14.43-16.45,29.19-33.51,37.85-53.86a90.63,90.63,0,0,0,7.12-33.23c.18-6.43-.09-12.86,0-19.3a157.29,157.29,0,0,1,12.34-59c.92-2.24-2.72-3.22-3.65-1Z" fill="#fff200" stroke="#fff200" stroke-miterlimit="10"/>
      <path d="M362.79,225.44a121.61,121.61,0,0,1-1.47,57.76,118.46,118.46,0,0,1-11,27.19A262.29,262.29,0,0,1,334,335.05c-6.5,9.13-13,18.22-18.35,28-1.16,2.14,2.14,4,3.22,1.91,9.64-17.85,23.25-33.1,33.42-50.59a126,126,0,0,0,16.85-56.48,124.07,124.07,0,0,0-2.69-33.45c-.52-2.38-4.16-1.37-3.64,1Z" fill="#fff200" stroke="#fff200" stroke-miterlimit="10"/>
      <path d="M656.54,829.75a61.13,61.13,0,0,0,23.25,43.08,57.12,57.12,0,0,0,12.29,7.36,1.88,1.88,0,0,0,2.51-.73h0a1.92,1.92,0,0,0,.22-.85,69.69,69.69,0,0,0-.45-13.39,1.89,1.89,0,1,0-3.76-.33v.05a1.31,1.31,0,0,0,0,.28c-1.25,9.79,10,16.19,17.31,20.09a87.1,87.1,0,0,0,29.52,9.41c1.55.2,2.14-1.72,1.62-2.84l-6.81-14.71-2.51,2.48A85.86,85.86,0,0,0,785,889.3c1.5-.25,1.65-2.15.83-3.15l-7.91-9-1.26,3.22a108.61,108.61,0,0,0,37.87-1.76c2.37-.53,1.36-4.16-1-3.63a105.16,105.16,0,0,1-36.84,1.66c-1.76-.24-2.27,2.14-1.33,3.21l7.91,9.08.82-3.14a81.74,81.74,0,0,1-52.38-9.22,1.9,1.9,0,0,0-2.51.94,2,2,0,0,0,0,1.58l6.81,14.7,1.63-2.82a82.13,82.13,0,0,1-26.69-8.35,58.23,58.23,0,0,1-11.19-7.08c-3-2.6-5.79-6-5.24-10.21h-3.77a71.12,71.12,0,0,1,.43,13.37l2.84-1.62a57.48,57.48,0,0,1-30.92-33.91,53.5,53.5,0,0,1-2.73-13.3c-.2-2.4-4-2.42-3.78,0Z" fill="#fff200" stroke="#fff200" stroke-miterlimit="10"/>
      <path d="M693.61,801.73a229.7,229.7,0,0,0,39.53,27.45l-.68-2.51a2,2,0,0,1-2.14.9l-.51,3.7q18.86.87,37.69,3.15l-1.64-2.84a3.92,3.92,0,0,1-4.87,2.25l-.5,3.69a236.1,236.1,0,0,1,39.34-1.38v-3.77a27.16,27.16,0,0,0-11.44,2.4,1.88,1.88,0,0,0-.68,2.51h0a2.4,2.4,0,0,0,.65.66l13.46,6.88-.37-3L798,845a1.9,1.9,0,0,0,.08,2.69h0a1.92,1.92,0,0,0,1.26.53l38.82,4c1.6.16,3.22.24,4.81.49,1.07.15,2.06.42,2.21,1.58.31,2.36-2.14,3.66-4,4.19-2.73.78-5.62,1.07-8.4,1.63a85.69,85.69,0,0,0-8.67,2.14,130.34,130.34,0,0,0-19.29,7.27,1.89,1.89,0,0,0-.64,2.6,1.82,1.82,0,0,0,1.08.84,67.34,67.34,0,0,0,21.8,2.14l-1-3.5A16.35,16.35,0,0,1,812,874c-2.33-.71-3.32,2.94-1,3.62a19.84,19.84,0,0,0,17-2.73c1.39-1,1.07-3.65-1-3.52a64.08,64.08,0,0,1-20.77-2.07l.45,3.44A121.33,121.33,0,0,1,826,865.59c3.21-.91,6.5-1.67,9.8-2.3,3-.57,6.16-.78,8.92-2.14A7.5,7.5,0,0,0,849,855a5.37,5.37,0,0,0-3.77-5.7,22.6,22.6,0,0,0-4.56-.66l-5.5-.5L824.06,847l-24.66-2.52,1.34,3.22,3.4-3.13a1.89,1.89,0,0,0,0-2.66,1.2,1.2,0,0,0-.38-.29L791,834.82V838a18.45,18.45,0,0,1,8.88-1.89,1.89,1.89,0,1,0,0-3.78,236.74,236.74,0,0,0-39.3,1.39,1.91,1.91,0,0,0-.5,3.77h0a7.64,7.64,0,0,0,9.13-4,1.92,1.92,0,0,0-.77-2.6,2.13,2.13,0,0,0-.86-.24q-18.75-2.31-37.67-3.15a1.9,1.9,0,0,0-.5,3.76h0a5.88,5.88,0,0,0,6.43-2.62,1.91,1.91,0,0,0-.66-2.59,223,223,0,0,1-38.81-26.8c-1.84-1.57-4.52,1.07-2.67,2.66Z" fill="#fff200" stroke="#fff200" stroke-miterlimit="10"/>
      <path d="M424.28,749.87a18.36,18.36,0,0,1-10.34-2.51,1.87,1.87,0,0,0-1.85,3.22,22.29,22.29,0,0,0,12.25,3,1.89,1.89,0,0,0,.29-3.77h-.29Z" fill="#fff200" stroke="#fff200" stroke-miterlimit="10"/>
      <path d="M455,730.37a87.93,87.93,0,0,0-9.21-3.06,1.89,1.89,0,0,0-2.36,1.23v0h0a1.85,1.85,0,0,0,1.22,2.32h.22a87.93,87.93,0,0,1,9.21,3.06,1.86,1.86,0,0,0,2.31-1.26h0a1.93,1.93,0,0,0-1.25-2.32Z" fill="#fff200" stroke="#fff200" stroke-miterlimit="10"/>
      <path d="M587.48,278.84c-3.36,32.44-9.08,64.81-8.79,97.56a185.53,185.53,0,0,0,6,47.25,133.26,133.26,0,0,0,7.94,21.73c3.15,6.76,6.79,13.28,10.34,19.85,7.67,14.22,15.79,29.61,15,46.26-.11,2.42,3.65,2.42,3.77,0,.7-14.63-5.24-28.44-11.79-41.18-6.94-13.43-14.8-26.36-19.55-40.74-10.12-30.81-8.87-63.82-5.59-95.66,1.89-18.37,4.51-36.67,6.43-55,.26-2.41-3.52-2.39-3.76,0Z" fill="#fff200" stroke="#fff200" stroke-miterlimit="10"/>
      <path d="M267.17,542.48a1.89,1.89,0,0,0,.21-2.14,2,2,0,0,0-2.6-.69l-5,3a1.88,1.88,0,0,0,1,3.64l.22-.07.14-.05.23-.1a1.11,1.11,0,0,0,.3-.17h0l4.71-2.8A4.5,4.5,0,0,1,267.17,542.48Z" fill="#fff200" stroke="#fff200" stroke-miterlimit="10"/>
      <path d="M259.63,543l-10.46,7.31a1.88,1.88,0,0,0,1.92,3.21h0l10.45-7.31a1.88,1.88,0,0,0-1.91-3.21Z" fill="#fff200" stroke="#fff200" stroke-miterlimit="10"/>
      <path d="M266.51,543.29a5.76,5.76,0,0,0-4.88-.3,2,2,0,0,0-1.26,2.33,1.87,1.87,0,0,0,2.33,1.25,4,4,0,0,1,.89-.26h.29l.65.17A6.09,6.09,0,0,1,266.51,543.29Z" fill="#fff200" stroke="#fff200" stroke-miterlimit="10"/>
      <path d="M615.87,688.16c-2.63-2.9-3.85-6.62-4.91-10.33a73.41,73.41,0,0,0-3.77-11.08c-3.51-7.5-9.37-13.61-15.31-19.24-1.75-1.66-4.43,1-2.65,2.67h0a106.05,106.05,0,0,1,9.24,9.72,8.47,8.47,0,0,1,3.34,4.74,38.17,38.17,0,0,1,2.63,5c3,7.08,3.39,15.24,8.79,21.2C614.78,692.58,617.49,690,615.87,688.16Z" fill="#fff200" stroke="#fff200" stroke-miterlimit="10"/>
      <path d="M594.23,779.52a1.89,1.89,0,1,0-1.88-1.89,1.89,1.89,0,0,0,1.88,1.89Z" fill="#fff200" stroke="#fff200" stroke-miterlimit="10"/>
      <path d="M595,774.86c-.45-.58-1.15-1.52-1.69-2.35s-1.07-1.72-1.58-2.63a27.74,27.74,0,0,1-1.36-2.73c0-.13-.12-.26-.18-.37s-.09-.25,0-.1c-.1-.24-.19-.48-.3-.72q-.28-.75-.54-1.5a1.89,1.89,0,0,0-3.64,1,40.18,40.18,0,0,0,6.66,12,1.89,1.89,0,0,0,2.66,0,1.93,1.93,0,0,0,0-2.66Z" fill="#fff200" stroke="#fff200" stroke-miterlimit="10"/>
      <path d="M595.1,777.37h.43c-.51-.88-1.07-.88-1.58,0h-.2l-.6-.48a3.4,3.4,0,0,0-.7.55,1.89,1.89,0,0,0-.29,2.28,2,2,0,0,0,.68.69,15.63,15.63,0,0,0,1.48.73h.32a3.2,3.2,0,0,0,3-2.46v-.58a2,2,0,0,0-.26-.53,1.87,1.87,0,0,0-.55-.57l-.34-.22a3.8,3.8,0,0,0-5.16,1.56,3.23,3.23,0,0,0-.2.42,1.77,1.77,0,0,0,.21,1.35,1.92,1.92,0,0,0,2.49.63l.38-.28a1.7,1.7,0,0,0,.49-.77h0l-.19.41a1.42,1.42,0,0,1,.21-.33l-.29.34a1.38,1.38,0,0,1,.34-.3l-.38.27a1.81,1.81,0,0,1,.47-.26l-.45.17a2.66,2.66,0,0,1,.49-.1h-.5a1.06,1.06,0,0,1,.5,0l-.5-.08a1.85,1.85,0,0,1,.42.11l-.45-.17.26.11-.39-.25.09.07-.3-.35a.06.06,0,0,1,0,.06l-.2-.42v-1.16l.25-.45-.13.22.29-.39a1.26,1.26,0,0,1-.22.24l.37-.29-.32.17.45-.18a1.08,1.08,0,0,1-.35.1l.49-.08a.4.4,0,0,0-.36.24h.5a.58.58,0,0,0-.37-.33l.46.19-.17-.09.38,3,.18-.16-.37.29.29-.16-.45.18.35-.35h-.34a.61.61,0,0,0,.74.26,1.07,1.07,0,0,0,.69-.22,1.85,1.85,0,0,0,.87-1.07,1.93,1.93,0,0,0-.18-1.45c-.27-.41-1.76-.87-1.76-.87Z" fill="#fff200" stroke="#fff200" stroke-miterlimit="10"/>
      <path d="M598.87,779.52a69.07,69.07,0,0,0,9.19-5.36,1.86,1.86,0,0,0,.38-2.61,1.88,1.88,0,0,0-2.21-.61,69.82,69.82,0,0,1-9.2,5.36,1.86,1.86,0,0,0-.6,2.56,1.84,1.84,0,0,0,2.44.66Z" fill="#fff200" stroke="#fff200" stroke-miterlimit="10"/>
      <path d="M594.54,775.75l-2.28.92a3,3,0,0,0-.92.56,2.6,2.6,0,0,0-.39,3.21,2.29,2.29,0,0,0,.51.65,3.25,3.25,0,0,0,1.15.67A4.72,4.72,0,0,0,594,782a2.49,2.49,0,0,0,2-.71,2.14,2.14,0,0,0,.35-1v-1.14a1.85,1.85,0,0,1,.11-.42,7.34,7.34,0,0,0,.15-.92,4.31,4.31,0,0,0-.09-.88,2.48,2.48,0,0,0-.35-.82,2.91,2.91,0,0,0-1-.92,1.56,1.56,0,0,0-.76-.22,1.25,1.25,0,0,0-.81,0,2,2,0,0,0-1.2.84,1.79,1.79,0,0,0-.22,1.46l.22.45a2.23,2.23,0,0,0,.71.69h0l-.42-.29.15.13-.31-.39.12.19-.19-.44a1.63,1.63,0,0,1,.07.3v-.5a4,4,0,0,1,0,.49l.09-.5a3.77,3.77,0,0,1-.25.87l.16-.48-.08.11.31-.37-.08.07.41-.29h.34l.46,1.26h-.11l.5-.52a1.84,1.84,0,0,1-.74,0l.5.08a2.73,2.73,0,0,1-.56-.15l.45.19a1.25,1.25,0,0,1-.28-.15l.39.29-.18-.16.3.38a.6.6,0,0,1-.13-.25l.19.46a.39.39,0,0,1-.07-.23l-.41.5v-.15l1.26.5v-.15l-1.07.45a.08.08,0,0,1,0-.11l-.33.38.13-.14-.37.3a1.25,1.25,0,0,1,.28-.15l-.45.18,2-.82A1.42,1.42,0,0,0,596,779a1.71,1.71,0,0,0,.69-1.26,1.1,1.1,0,0,0,0-.76,2,2,0,0,0-.85-1.07l-.46-.19a1.89,1.89,0,0,0-1,0Z" fill="#fff200" stroke="#fff200" stroke-miterlimit="10"/>
      <path d="M294.28,623.13a36.31,36.31,0,0,0,15.08,6.5c2,.34,4.28.34,5.83-1.26a3.89,3.89,0,0,0,1.07-2.84c0-.47-1.07-3-.82-3.21a17.22,17.22,0,0,1,2,.39,10.27,10.27,0,0,0,3.22.33,14.09,14.09,0,0,0,5.8-1.93c3.59-2,7-5.1,11.41-4.28,2.42.44,4.86,1.36,7.33.76a7,7,0,0,0,3.08-1.72c.91-.82,1.63-2,2.84-2.42,2.23-.78,4.95.45,7.26.42,2.8,0,4.73-1.65,7.26-2.52,2.27-.77,4.69-.08,6.95.49a19.36,19.36,0,0,0,7,.93c2.67-.3,4.38-1.79,6.53-3.21s5-1.17,7.71-1.26a60.21,60.21,0,0,0,34.87-11.67c1.94-1.43,0-4.69-1.91-3.22a56.65,56.65,0,0,1-30.14,11c-2.66.17-5.36-.09-8,.22s-4.5,1.68-6.7,3.16c-4,2.74-9-.24-13.32-.6a12.38,12.38,0,0,0-6.86,1.67,7.62,7.62,0,0,1-3.49,1.13,19.83,19.83,0,0,1-3.6-.39c-2.52-.33-4.9-.3-6.94,1.26-.86.7-1.5,1.67-2.4,2.34a4.35,4.35,0,0,1-3.57.49c-2.4-.45-4.68-1.18-7.15-.82A16.08,16.08,0,0,0,329,615c-3.14,1.76-6.59,4.84-10.45,4-2.22-.48-5-1.07-6.43,1.26a4.39,4.39,0,0,0-.2,3.48c.21.75,1,1.72.07,2.07a6.37,6.37,0,0,1-3.21-.32,37,37,0,0,1-4.29-1.25,34.22,34.22,0,0,1-8.19-4.5c-2-1.41-3.85,1.86-1.91,3.22Z" fill="#fff200" stroke="#fff200" stroke-miterlimit="10"/>
      <path d="M574.87,801.68a29.33,29.33,0,0,0-5.61-8,1.88,1.88,0,1,0-2.65,2.66,20.71,20.71,0,0,1,1.54,1.7c.14.15.25.32.37.47a.77.77,0,0,0,.17.19c-.08,0-.2-.26,0,0s.47.63.69.95a26.75,26.75,0,0,1,2.29,4,1.85,1.85,0,0,0,3.21-1.83Z" fill="#fff200" stroke="#fff200" stroke-miterlimit="10"/>
    </g>
    <path d="M288.93,435a8.83,8.83,0,0,0,.38,3.35,3,3,0,0,0,2.42,2.08,1.62,1.62,0,0,0,.86-.22,2.16,2.16,0,0,0,.86-1.25,4.84,4.84,0,0,0,.27-1.92,2.16,2.16,0,0,0-1-1.61,3.29,3.29,0,0,0-2.77.25.93.93,0,0,0-.39.26c-.33.38.08,1,.51,1.25a6.63,6.63,0,0,0,1.72.87,1.06,1.06,0,0,0,.5,0,.78.78,0,0,0,.42-.38,2.52,2.52,0,0,0,.25-2.14,2,2,0,0,0-1.69-1.25,3.09,3.09,0,0,0-2.41,1.6" fill="#fff200" stroke="#fff200" stroke-miterlimit="10"/>
    <path d="M352.34,444.83l-.46,1.41a6.58,6.58,0,0,0-.43,2.05,2.49,2.49,0,0,0,.7,1.9,2.15,2.15,0,0,0,2.15.38,3.2,3.2,0,0,0,1.7-1.52,3.54,3.54,0,0,0,.36-2.75,2.7,2.7,0,0,0-2-1.86,1.26,1.26,0,0,0-.81.12.9.9,0,0,0-.39.47,2,2,0,0,0,.11,2.2,1.25,1.25,0,0,0,1.76.17h0a1.5,1.5,0,0,0,.2-.23,2,2,0,0,0,.16-.94,2.27,2.27,0,0,0-.27-1.25,1.5,1.5,0,0,0-1.25-.54,3.6,3.6,0,0,0-1.27.39,2,2,0,0,0-1.07.85c-.33.72.21,1.53.7,2.15a4,4,0,0,0,1.86,1.52,2.63,2.63,0,0,0,2.51-.76,6.22,6.22,0,0,0,1.34-2.32.87.87,0,0,0,.07-.48,1.4,1.4,0,0,0-.22-.32,6.78,6.78,0,0,0-3.76-1.9,3.32,3.32,0,0,1,2.14,1.07,5,5,0,0,1,1,2.51,3.79,3.79,0,0,1-.31,2.39,3,3,0,0,1-2.52,1.26,1.27,1.27,0,0,1-1.48-1.06,12.61,12.61,0,0,1-.25-3.92,2.81,2.81,0,0,1,.66-2.19,3,3,0,0,0-3,2.14,5.58,5.58,0,0,0,.43,3.85,4.14,4.14,0,0,0,1.52,2,2,2,0,0,0,2.35-.07" fill="#fff200" stroke="#fff200" stroke-miterlimit="10"/>
    <path d="M288.69,436.3a2.76,2.76,0,0,1,1.5-1.86,2.87,2.87,0,0,1,2.4,0,3.8,3.8,0,0,0-3.22.82,2.8,2.8,0,0,0,.28,3.35" fill="#fff200" stroke="#fff200" stroke-miterlimit="10"/>
    <path d="M444.87,229.85a2.69,2.69,0,0,0,.5,2.51,2.07,2.07,0,0,0,2.51.49A2.88,2.88,0,0,0,449,230c-.12-1.26-.95-2.66-2.15-2.51s-1.72,1.76-1.86,3.06a1.59,1.59,0,0,0,.14,1.07c.2.29.58.38.87.6s.39.73.08.88a5.86,5.86,0,0,1-1.35-4,1.5,1.5,0,0,0-1.07,1.82h0a2.5,2.5,0,0,0,1.59,1.74,4.81,4.81,0,0,0,2.68.26" fill="#fff200" stroke="#fff200" stroke-miterlimit="10"/>
    <path d="M527.93,248.39l.1-3.29c-.58-.36-1.07.57-1.14,1.26a3.12,3.12,0,0,0,.68,2.81,2,2,0,0,0,2.77-.63,2.77,2.77,0,0,0-.91-3.76,4.41,4.41,0,0,0-.58-.28l1-.16" fill="#fff200" stroke="#fff200" stroke-miterlimit="10"/>
    <path d="M450.84,481.77a249.58,249.58,0,0,0,29.62,24.35c8.16,5.81,21.93,9.74,26.25,19.52" fill="#fff200" stroke="#fff200" stroke-miterlimit="10"/>
    <path d="M452.15,483a7.78,7.78,0,0,0-2.87-3.3l-4.73-3.61a39.49,39.49,0,0,0-5.86-4" fill="#fff200" stroke="#fff200" stroke-miterlimit="10"/>
    <path d="M432.71,493.06a4.44,4.44,0,0,0,2.31-3.52c.26-1.45.16-2.94.48-4.37.84-3.67,4.43-6.78,3.64-10.47" fill="#fff200" stroke="#fff200" stroke-miterlimit="10"/>
    <path d="M580.18,677.62a45.31,45.31,0,0,0,7.7-18.33" fill="#fff200" stroke="#fff200" stroke-miterlimit="10"/>
    <path d="M530.65,633.18c-1.15-1.71-3.29-3.78-4.42-5.55-.57-.87-2-2.9-2.51-3.76-.79-1.25-1.73-2.52-2.52-3.77" fill="#fff200" stroke="#fff200" stroke-miterlimit="10"/>
    <path d="M543.52,633.28c-.93-2.4-3-4.73-4.7-7-1.26-1.61-2.4-3-2.52-5" fill="#fff200" stroke="#fff200" stroke-miterlimit="10"/>
    <path d="M558.83,669.25A69.33,69.33,0,0,0,575,670" fill="#fff200" stroke="#fff200" stroke-miterlimit="10"/>
    <path d="M584.19,670.19a12,12,0,0,0,10-1.73,36.69,36.69,0,0,0,7.51-7.16" fill="#fff200" stroke="#fff200" stroke-miterlimit="10"/>
    <path d="M563.85,647.47q.39,7,1.46,13.93c.14.9.52,2,1.44,2s1.25-.93,1.55-1.73a123.06,123.06,0,0,0,5.48-38.92" fill="#fff200" stroke="#fff200" stroke-miterlimit="10"/>
    <path d="M233.21,595.27l-3.94,4.29" fill="#fff200" stroke="#fff200" stroke-miterlimit="10"/>
    <path d="M351.86,445.79a4.31,4.31,0,0,0,.68,4.12,3.2,3.2,0,0,0,3.76.93,4.44,4.44,0,0,0,2.08-5.61,5.74,5.74,0,0,0-1.91-2.5,4,4,0,0,0-3.28-.66,2.93,2.93,0,0,0-1.86,1.91c-.17.48-.32,1-.47,1.47a7.56,7.56,0,0,0-.54,3.76,3.41,3.41,0,0,0,3.22,2.87,3,3,0,0,0,2.92-2.09,2.71,2.71,0,0,0,0-1.44,1.91,1.91,0,0,0-2.31-1.32h0a1.8,1.8,0,0,0-1.08.87,4.4,4.4,0,0,0-.24,1.44v.09l1.25-.5V449l-1.07-.45-.07.14c-.12.25.27-.3.12-.18s.36-.17.2-.13l-.17.1.44-.19-.3.09h.67l-.24-.08.44.19-.22-.11q.39.32.18.12l-.08-.08c-.14-.13.27.42.08.09a1.17,1.17,0,0,1-.15-.27l.2.45a1.46,1.46,0,0,1,0-.51v.48a2.87,2.87,0,0,1-.11-.77l-.08.5a10.6,10.6,0,0,1,.5-1.75c.17-.57.34-1.15.54-1.7l-.18.45.13-.26c0,.12-.63.55-.33.41l-.45.18.26-.07-.5.25h.37l-.49-.25a3.31,3.31,0,0,1,.68.2l-.44-.19.46.26c.25.16-.42-.36-.1-.07l.2.2c.1.11.24.38-.08-.12l.15.21c.1.16.19.33.74.52v-.47c-.36.27-.29.56-.24.87l-.07-.5a3.14,3.14,0,0,1,0,.75l.07-.5a3.76,3.76,0,0,1-.2.73l.19-.45-.14.27-.1.15.15-.19-.23.23c.27-.19.32-.24.15-.13l-.16.09.45-.19c-.11.06-.34-.17-.34-.17H355l.5.35a1.4,1.4,0,0,1-.35-.1l.46.19-.27-.13h0v-.07c-.1-.14-.06-.09.15.16l-.14-.24.19.45c-.09-.19,1.08-.6,1.08-.6v.59s-1.25-.49,0-.74v.5c-1.18-.21-1.13-.41-1.08-.62a1.87,1.87,0,0,0-1.25-2.31,2,2,0,0,0-2.33,1.32Z" fill="#fff200" stroke="#fff200" stroke-miterlimit="10"/>
    <path d="M288.52,434a7.24,7.24,0,0,0-1.26,2.21,4.58,4.58,0,0,0-.24,2.14,3.35,3.35,0,0,0,.24,1.17,4.09,4.09,0,0,0,2.59,2.51,3.75,3.75,0,0,0,4-.83,5,5,0,0,0,.82-4.8,4.7,4.7,0,0,0-1.8-2.51,3.57,3.57,0,0,0-3-.43,2,2,0,0,0-1.07.87,1.87,1.87,0,0,0-.19,1.46,1.82,1.82,0,0,0,.87,1.07,1.78,1.78,0,0,0,1.44.2l.33-.08-.5.06h.39l-.49-.06a1.74,1.74,0,0,1,.46.13l-.45-.2a2.74,2.74,0,0,1,.46.29l-.37-.31.35.35-.3-.38c.12.2.24.39.33.58L291,437a5.85,5.85,0,0,1,.29,1.07v-.5a7.62,7.62,0,0,1,0,1.17l.08-.51a2.7,2.7,0,0,1-.19.63l.2-.45a1.91,1.91,0,0,1-.24.41l.29-.38a2.54,2.54,0,0,1-.28.29l.38-.3a1.68,1.68,0,0,1-.37.21l.45-.19a1.16,1.16,0,0,1-.45.12l.51-.07a2.91,2.91,0,0,1-.59,0l.48.07a3.41,3.41,0,0,1-.57-.16l.45.18a4.19,4.19,0,0,1-.59-.32l.39.29a2.59,2.59,0,0,1-.41-.4l.31.37a1.66,1.66,0,0,1-.31-.51l.19.46a2.68,2.68,0,0,1-.17-.69l.08.51a2.31,2.31,0,0,1,0-.83l-.08.51a4.07,4.07,0,0,1,.27-1.08l-.18.46a4.42,4.42,0,0,1,.61-1.08l-.29.39h0a1.9,1.9,0,0,0,0-2.67,2,2,0,0,0-1.33-.55,1.88,1.88,0,0,0-1.33.55Z" fill="#fff200" stroke="#fff200" stroke-miterlimit="10"/>
    <path d="M310.72,495c-6-1.08-12.8-.48-16.64,4.81a9.64,9.64,0,0,0,1.61,13.55h0a9.89,9.89,0,0,0,1.07.76,21.3,21.3,0,0,0,9.16,2.63,77.18,77.18,0,0,0,10.51,1.07,9,9,0,0,0,7.67-3.68,10.86,10.86,0,0,0,1.83-7.61,11.8,11.8,0,0,0-7.65-9.92c-1.73-.65-3.62-.82-5.29-1.61-2.14-1-4.11,2.23-1.91,3.21s4.58,1.17,6.68,2.21a8.52,8.52,0,0,1,3.76,4.06c1.55,3.48.64,8.79-3.76,9.46-2.51.4-5.18-.22-7.62-.52a59.52,59.52,0,0,1-8.08-1.25c-4.08-1.07-7.77-4.29-5.85-8.79,2.22-5.19,8.58-5.76,13.43-4.87,2.36.44,3.38-3.21,1-3.62Z" fill="#fff200" stroke="#fff200" stroke-miterlimit="10"/>
    <path d="M286.59,530c8.93.08,16-5.78,22-11.79l-3.21-1.33a28.27,28.27,0,0,0,7.5,20.54c1.65,1.78,4.29-.89,2.66-2.66A24.55,24.55,0,0,1,309,516.87a1.88,1.88,0,0,0-1.89-1.86h0a1.85,1.85,0,0,0-1.28.53c-5.25,5.25-11.43,10.72-19.3,10.64a1.89,1.89,0,0,0,0,3.78Z" fill="#fff200" stroke="#fff200" stroke-miterlimit="10"/>
    <path d="M445,229.92l-.38,1a1.17,1.17,0,0,0,0,.74,1.29,1.29,0,0,0,.22.71,1,1,0,0,0,.47.52,1.42,1.42,0,0,0,.65.35l.5.07a1.78,1.78,0,0,0,.95-.27l.38-.28a2.3,2.3,0,0,0,.49-.84l.39-1a1.37,1.37,0,0,0,0-.75,1.65,1.65,0,0,0-.23-.71,1.79,1.79,0,0,0-.47-.52,2.22,2.22,0,0,0-.64-.35h-.51a1.89,1.89,0,0,0-1,.26l-.38.3A1.92,1.92,0,0,0,445,229.92Z" fill="#fff200" stroke="#fff200" stroke-miterlimit="10"/>
    <path d="M444.89,230.66l-.08.09.38-.3-.11.07.45-.66h.59l.46.19a.37.37,0,0,1-.2-.12l.37.29a.47.47,0,0,1-.19-.18l.29.38a.61.61,0,0,1-.11-.21l.18.44a.54.54,0,0,1,0-.18v1a.61.61,0,0,1,0-.39v.49a3.85,3.85,0,0,1,.33-1.25,2.5,2.5,0,0,0-1.07-2.91,2.74,2.74,0,0,0-1.34-.38,3.24,3.24,0,0,0-3,2.46,3.87,3.87,0,0,0,0,1.44,3.19,3.19,0,0,0,.33.89,3.68,3.68,0,0,0,.58.82,4.19,4.19,0,0,0,1.19.95,3.4,3.4,0,0,0,2.51.42,2.74,2.74,0,0,0,1.65-1.27,4.12,4.12,0,0,0,.5-1.71,4.51,4.51,0,0,0,0-.9,6.78,6.78,0,0,0-.16-1,2.83,2.83,0,0,0-2.8-2,4.5,4.5,0,0,0-1.83.43,4.66,4.66,0,0,0-1.25.91,3.79,3.79,0,0,0-.94,1.65,3.6,3.6,0,0,0-.13.73,1.71,1.71,0,0,0,0,.32,3.19,3.19,0,0,0,1.58,2.67l.24.11a3.48,3.48,0,0,0,.63.26,2.68,2.68,0,0,0,.89.1,2.86,2.86,0,0,0,2-.86,2.06,2.06,0,0,0,.55-1.34,1.88,1.88,0,0,0-1.87-1.89h0a2,2,0,0,0-1.33.56l-.13.12.38-.28-.22.11.46.45H445c-.1-.61-.2-.61-.31-.63l.5.08a1.5,1.5,0,0,1-.36-.11l.45.19a1.27,1.27,0,0,1-.36-.2l.38.29a1.6,1.6,0,0,1-.26-.26l.29.39a1.22,1.22,0,0,1-.17-.29l.19.45a1.11,1.11,0,0,1-.08-.3l.07.5c0-.14,0-.29.36-.43v.51c-.34-.15-.29-.3-.23-.44l-.19.45a1.29,1.29,0,0,1,.27-.45l-.31.37a2.62,2.62,0,0,1,.44-.44l-.38.29a2.71,2.71,0,0,1,.63-.33l-.44.19c.14-.07.44.17.44.17h-.57s.23-.31.34-.26l-.44-.21.23.15-.37-.3.14.15-.29-.38a.51.51,0,0,1,.1.21l-.18-.46c0,.16.09.32-.45.48V230a.85.85,0,0,1,.56,1.07l.07-.5a2.42,2.42,0,0,1-.13.53l.19-.45a1.56,1.56,0,0,1-.16.28l.29-.37-.17.16.38-.3a.61.61,0,0,1-.18.09l.45.69h.57c-.14-.88-.27-.91-.39-1l.45.2a3.4,3.4,0,0,1-.71-.42l.4.3a2,2,0,0,1-.47-.45l.3.37a2.22,2.22,0,0,1-.25-.42l.2.47c-.06-.14-.14-.42-.14-.42v.63a1.42,1.42,0,0,1,.11-.35l-.18.45a1.33,1.33,0,0,1,.18-.31l-.3.38a2.23,2.23,0,0,1,.26-.27l-.37.3a1,1,0,0,1,.25-.15l-.45.2h0l-.5-.73h.22l-.43.51.16.1-.38-.29.11.1L444,230l.07.12.29-.45v-.24L444,229c-.07.43-.31.81-.42,1.25a3.17,3.17,0,0,0,.2,2.4,2.77,2.77,0,0,0,1.68,1.34,2.61,2.61,0,0,0,.68.11,2.29,2.29,0,0,0,.64-.07,2.39,2.39,0,0,0,1.07-.66,2.13,2.13,0,0,0,.56-1.35,1.89,1.89,0,0,0-1.9-1.88h0a1.88,1.88,0,0,0-1.32.55Z" fill="#fff200" stroke="#fff200" stroke-miterlimit="10"/>
    <path d="M526.77,244.12a4.52,4.52,0,0,0-1.35,3.41,3.32,3.32,0,0,0,.62,1.87,3.93,3.93,0,0,0,1.81,1.41,2.77,2.77,0,0,0,2.35-.19,2.45,2.45,0,0,0,1.07-1.41,4.81,4.81,0,0,0,.12-1.07,12.68,12.68,0,0,0,0-1.51,7.11,7.11,0,0,0-.55-2.08,4.19,4.19,0,0,0-1.07-1.4,4,4,0,0,0-1.85-1,2.16,2.16,0,0,0-1.46.18,1.87,1.87,0,0,0-.72,2.51,1.9,1.9,0,0,0,1.17.9l.53.17-.45-.19a3,3,0,0,1,.69.41l-.39-.3a4.23,4.23,0,0,1,.56.56l-.3-.38a3.83,3.83,0,0,1,.44.73l-.2-.44a3.88,3.88,0,0,1,.21.76l-.07-.51a3.42,3.42,0,0,1,0,.64l.07-.49a2.75,2.75,0,0,1-.14.49l.2-.45c0,.1-.12.2-.19.3l.3-.38-.18.21.38-.3a1.58,1.58,0,0,1-.24.15l.45-.2-.27.08.51-.46h-.34l.5.46-.34-.09.45.19a1.36,1.36,0,0,1-.37-.21l.39.29a1.3,1.3,0,0,1-.36-.34l.29.37a4.21,4.21,0,0,1-.29-.51l.19.45a6.05,6.05,0,0,1-.35-1.5l.08.5a1.09,1.09,0,0,1,0-.44l-.08.5a1,1,0,0,1,0-.25l-.19.45a.21.21,0,0,1,0-.11l-.28.38.13-.14-.38,1.25h.28l-.44-1.25h.15l-.49,1.25h.13l-.51-.77h0l-.45-.19h0a2,2,0,0,0,1.45.19,1.9,1.9,0,0,0,1.32-2.3h0a2,2,0,0,0-.87-1.07,2.53,2.53,0,0,0-1.07-.3,2.72,2.72,0,0,0-.69.09,2.53,2.53,0,0,0-1.46,1.15,3.81,3.81,0,0,0-.19,2.62,4.16,4.16,0,0,0,2.09,3.22,3.11,3.11,0,0,0,2.51.23,2.56,2.56,0,0,0,1.18-.73,3.17,3.17,0,0,0,.74-1.25,4.43,4.43,0,0,0-.42-3.67,5,5,0,0,0-3.21-2.41l-1,3.64a2.11,2.11,0,0,1,.49.14l-.45-.2a3.83,3.83,0,0,1,.44.25l-.39-.3c.17.15.33.31.48.47l-.3-.4a4.3,4.3,0,0,1,.41.72l-.19-.45a5.09,5.09,0,0,1,.24.93v-.5a10.93,10.93,0,0,1,0,2.14l-.3-.48v.18l.54-.45-.07.12.29-.37h0l.37-1.44h-.2l.45,1.26h0l.5-.23a.83.83,0,0,1-.34-.1l.45.21a1.38,1.38,0,0,1-.35-.22l.38.29a1.82,1.82,0,0,1-.31-.31l.29.4a2.67,2.67,0,0,1-.25-.43l.2.44a1.19,1.19,0,0,1-.13-.48l.06.5a1.69,1.69,0,0,1,0-.55l-.06.49a1.91,1.91,0,0,1,.17-.62l-.18.45a3.16,3.16,0,0,1,.41-.68l-.3.37.21-.25A1.88,1.88,0,0,0,527,244l-.08.09Z" fill="#fff200" stroke="#fff200" stroke-miterlimit="10"/>
    <path d="M434.09,495l.73-3.08.37-1.53.2-.78c.13-.38.08-.36-.13.08l-1,.26a3.9,3.9,0,0,1,1.08.44,3.48,3.48,0,0,0,1.81.1,4.06,4.06,0,0,0,2.59-2,5.32,5.32,0,0,0,.58-3.32,8.36,8.36,0,0,1-.23-3c.2-.67.84-.43,1.43-.74a3.2,3.2,0,0,0,1.58-2.88,8.79,8.79,0,0,0-2.63-6.35,1.88,1.88,0,0,0-2.66,2.66h0a5.18,5.18,0,0,1,1.51,2.89,3.42,3.42,0,0,0,0,.64v.18s.33,0,.47-.51c-.2-.2-1.26.37-1.44.45-2.36,1.4-2.15,4.12-1.86,6.43a3.26,3.26,0,0,1,0,1.39.41.41,0,0,1-.1.3c-.17.41-.27,0,.16.14-1.26-.37-2.15-1.07-3.44-.33s-1.47,2-1.77,3.22l-.91,4.17c-.56,2.35,3.06,3.36,3.64,1Z" fill="#fff200" stroke="#fff200" stroke-miterlimit="10"/>
    <path d="M439.4,476.31c2.32,3.22,4.76,6.6,8.24,8.68a11.84,11.84,0,0,0,11.05.84l-2.77-2.14a8.8,8.8,0,0,0,5.57,10.72,9.64,9.64,0,0,0,3.07.41c.82,0,2-.16,2.27.73a12,12,0,0,0,.54,3.12,4.54,4.54,0,0,0,1.75,1.86,14,14,0,0,0,5.13,1.42,8.69,8.69,0,0,1,2.28.63c1.07.53,1.36,1.6,1.9,2.52,2.52,4.5,7.83,5.88,11.9,8.5,5.45,3.48,9.79,8.39,14.08,13.18,1.61,1.81,4.28-.86,2.65-2.66a93,93,0,0,0-11.41-11.3,41.66,41.66,0,0,0-6.53-4.23,26,26,0,0,1-5.92-3.46c-1.71-1.57-2.14-4-4.08-5.36a11.54,11.54,0,0,0-4.89-1.64c-1-.15-3-.19-3.53-1.18s0-2.14-.37-3a4.07,4.07,0,0,0-2.15-2.26c-2.08-1-4.59,0-6.53-1.25a5,5,0,0,1-2.14-5.62,1.93,1.93,0,0,0-1.44-2.3,2,2,0,0,0-1.34.17c-6,2.72-11.15-4-14.14-8.16-1.4-1.95-4.67-.07-3.21,1.9Z" fill="#fff200" stroke="#fff200" stroke-miterlimit="10"/>
    <path d="M272.67,628.06c.17-1.7.37-3.86,1.58-5.18.58-.62,1.4-.88,2-1.45a3.64,3.64,0,0,0,1.13-2.51,10.9,10.9,0,0,0,0-1.4v-.39c0-.48,0-.51-.1-.14.81-.36,1.67-.21,2.51-.74a5.5,5.5,0,0,0,2.06-4.7c0-1-.28-1.94-.24-2.9,0-1.26.86-1.86,1.6-2.8a19.92,19.92,0,0,0,2.95-5.51c1.59-4.29,3.39-9.15,3.22-13.73-.1-2.42-3.86-2.43-3.77,0a21.65,21.65,0,0,1-1.25,7.26c-.63,2.07-1.26,4.17-2,6.18a17.35,17.35,0,0,1-1.53,2.89c-.59.85-1.4,1.54-1.94,2.4-1.26,2-.69,4-.69,6.21,0,.44,0,1.26-.37,1.59s-1,.12-1.34.2A3.83,3.83,0,0,0,275,614a3.31,3.31,0,0,0-1.26,2.39c0,.6.34,1.86,0,2.32s-1.49.93-1.91,1.34a7.09,7.09,0,0,0-1.57,2.29A17.15,17.15,0,0,0,269,628c-.25,2.4,3.53,2.38,3.77,0Z" fill="#fff200" stroke="#fff200" stroke-miterlimit="10"/>
    <path d="M536.08,565.75c9.51,16.65,11.66,36.08,18.42,53.77a86.46,86.46,0,0,0,6.94,14.33c1.25,2.06,4.52.17,3.21-1.9-10-16.32-12.38-35.77-18.83-53.6a94.93,94.93,0,0,0-6.55-14.5,1.89,1.89,0,0,0-3.22,1.89Z" fill="#fff200" stroke="#fff200" stroke-miterlimit="10"/>
    <path d="M585.71,660.09c-2.52,6.81-6.37,13.14-9.77,19.53-1.13,2.14,2.15,4,3.22,1.89,3.55-6.67,7.5-13.29,10.13-20.36a1.88,1.88,0,1,0-3.62-1h0Z" fill="#fff200" stroke="#fff200" stroke-miterlimit="10"/>
    <path d="M558.83,670.6a16.77,16.77,0,0,0,7.75,1.64l8.8.45a1.89,1.89,0,0,0,0-3.76l-8.16-.42c-2.15-.11-4.52,0-6.44-1.17a1.89,1.89,0,0,0-1.9,3.22h0Z" fill="#fff200" stroke="#fff200" stroke-miterlimit="10"/>
    <path d="M584.48,670.86a21.64,21.64,0,0,0,17.46-6.69c1.65-1.77-1.07-4.44-2.67-2.66a18,18,0,0,1-14.83,5.61,1.87,1.87,0,0,0-1.87,1.87h0A1.93,1.93,0,0,0,584.48,670.86Z" fill="#fff200" stroke="#fff200" stroke-miterlimit="10"/>
    <path d="M522.28,623.43a22,22,0,0,0,7.2,10.72,1.88,1.88,0,0,0,2.66-2.66,17,17,0,0,1-2.14-2c-.34-.36-.65-.7-1-1.08h0l-.19-.25c-.16-.22-.31-.43-.46-.66A16,16,0,0,1,527,625c-.12-.23-.22-.48-.33-.72s-.08-.15,0,0l-.15-.37c-.19-.48-.36-.95-.51-1.44a1.88,1.88,0,0,0-3.72.6v.23h0a.25.25,0,0,0,0,.17Z" fill="#fff200" stroke="#fff200" stroke-miterlimit="10"/>
    <path d="M542,627.91c-.89-1.61-1.72-3.21-2.51-4.89-.37-.81-.75-1.63-1.07-2.51-.19-.4-.36-.81-.53-1.25h0l-.16-.35-.28-.72a2,2,0,0,0-2.33-1.26,1.9,1.9,0,0,0-1.25,2.33,93.35,93.35,0,0,0,5,10.55,1.89,1.89,0,0,0,3.22-1.91H542Z" fill="#fff200" stroke="#fff200" stroke-miterlimit="10"/>
    <g>
      <path d="M403,365.12a35.39,35.39,0,0,0,13.12-27.4" fill="#fff200" stroke="#fff200" stroke-miterlimit="10"/>
      <path d="M404.3,366.74A37.32,37.32,0,0,0,417.93,338a1.89,1.89,0,1,0-3.76-.29h0a1.4,1.4,0,0,0,0,.29,33.79,33.79,0,0,1-12.55,26.07c-1.89,1.51.78,4.18,2.66,2.66Z" fill="#fff200" stroke="#fff200" stroke-miterlimit="10"/>
    </g>
    <path d="M467.83,437.07A72.36,72.36,0,0,0,496.89,440c8-.86,16.65-2.75,21.62-9.65,1.42-2-1.85-3.85-3.21-1.9-4.39,6.06-13.21,7.35-20.09,7.91a69.29,69.29,0,0,1-26.38-2.91c-2.31-.73-3.31,2.91-1,3.63Z" fill="#fff200" stroke="#fff200" stroke-miterlimit="10"/>
    <g>
      <path d="M250.49,552.22a7.53,7.53,0,0,0-3.92,3.17c-.72,1.54.16,3.87,1.86,3.86.5-.09,1-.14,1.49-.19,1.26.11,1.93,1.87,1.43,3.08a7.06,7.06,0,0,1-2.74,2.76,47.77,47.77,0,0,0-13.81,15c1.13.79,2.63,0,3.91-.54s3.21-.47,3.46.88a2.82,2.82,0,0,1-.46,1.64l-10.54,19" fill="#fff200" stroke="#fff200" stroke-miterlimit="10"/>
      <path d="M249.54,551.11c-2.88,1.45-5.9,3.84-4.85,7.5a4.29,4.29,0,0,0,2.94,2.93c.35.09,2-.12,2,0,.37.37-.57,1.26-.75,1.37a51.45,51.45,0,0,1-4.28,3.22,47.84,47.84,0,0,0-11.39,13.35,1.91,1.91,0,0,0,.69,2.52,4.45,4.45,0,0,0,3.12.47c1-.22,1.91-.88,2.91-1.07h.77c-.25-.59-.43-.61-.57-.07l-.3.55c-.7,1.25-1.42,2.51-2.15,3.76l-8.12,14.78c-1.17,2.15,2.08,4,3.21,1.91l9.91-18c1.07-2,2.32-4.79-.32-6.28a5.16,5.16,0,0,0-3.35-.36c-.81.17-2.51,1.38-3.3,1l.66,2.58a45.76,45.76,0,0,1,6.69-8.79,47.94,47.94,0,0,1,4.29-3.89c1.33-1.07,2.85-1.95,4.11-3.1,2.14-2,2.78-5.84-.16-7.44a4.88,4.88,0,0,0-2.45-.3c-.53,0-.56.17-.71-.45-.36-1.45,2.23-2.51,3.22-3,2.14-1.07.27-4.29-1.9-3.21Z" fill="#fff200" stroke="#fff200" stroke-miterlimit="10"/>
    </g>
    <g>
      <path d="M270.75,633.67c3.44,2.14,7.92.58,11.64-1.07l2.89-1.26c4.44-2,9.07-4,11.94-7.93" fill="#fff200" stroke="#fff200" stroke-miterlimit="10"/>
      <path d="M269.91,635.31c5.18,3,11,0,15.95-2.15s9.76-4.44,13.11-8.79a1.89,1.89,0,0,0-3.22-1.89c-2.67,3.5-7,5.36-10.89,7.09-3.68,1.62-9,4.84-13,2.51A1.89,1.89,0,0,0,270,635.3h0Z" fill="#fff200" stroke="#fff200" stroke-miterlimit="10"/>
    </g>
    <g>
      <path d="M563.43,839.6c-.5,1.8-1.65,3.32-3.58,3a1.92,1.92,0,0,0-2.3,1.41h0a1.89,1.89,0,0,0,.18,1.34,4.82,4.82,0,0,1-2.51,6.28,4.65,4.65,0,0,1-2.92.29,1.91,1.91,0,0,0-2.31,1.39h0a1.83,1.83,0,0,0,0,.93,8.64,8.64,0,0,1-.22,3.47,2.9,2.9,0,0,1-.51,1.26,3.68,3.68,0,0,1-.7-.46,1.9,1.9,0,0,0-2.59.66h0a12.66,12.66,0,0,0-1.26,3.78c-.36,2.36,3.22,3.38,3.64,1h0a10.74,10.74,0,0,1,.28-1.25,3.76,3.76,0,0,0,4.22-2.3,11.09,11.09,0,0,0,1-4.47,8.56,8.56,0,0,0,7.91-9.66,6.76,6.76,0,0,0,4.64-3.83,11,11,0,0,0,1-3.22A8.26,8.26,0,0,1,563.43,839.6Z" fill="#fff200" stroke="#fff200" stroke-miterlimit="10"/>
      <path d="M463.25,853.19v-.08c-9.31.19-18.61.29-27.87-.13-4.72-.22-9.45-.56-14.14-1.07-4.92-.52-9.76-1.39-14.64-2.15a33.4,33.4,0,0,0-19.74,2.82c-6.29,3.22-10.47,9.47-9.39,16.62.63,4,2.51,7.74,3.94,11.54.35,1,.69,1.91,1,2.88a12.36,12.36,0,0,0,.74,2.87,5.73,5.73,0,0,0,2.51,1.63c1.07.52,2.15,1,3.22,1.44,7.73,3.11,16.32,4,24.53,4.12a33.3,33.3,0,0,0,9.53-1.82,24.23,24.23,0,0,1,.57-2.38,9.36,9.36,0,0,1-1.17-.37h-.16a21.67,21.67,0,0,1-2.68-.2,23.87,23.87,0,0,1-5.61,1c-9.32,0-19.2-1.25-27.51-5.67a53.33,53.33,0,0,0-3.27-9.26c-1.25-3.14-2.51-6.64-1.93-10.06,1-5.63,6.52-9.13,11.62-10.57a32.31,32.31,0,0,1,8.47-1.07,71.69,71.69,0,0,1,10.44,1.25A215.52,215.52,0,0,0,436.51,857c8.91.35,17.84.26,26.75.07a1.89,1.89,0,1,0,.29-3.76h-.29Z" fill="#fff200" stroke="#fff200" stroke-miterlimit="10"/>
      <path d="M519.44,881.79c-6.44,5.23-14.92,5.84-22.88,6.05l-25,.12a6.36,6.36,0,0,1-.16,4,79.92,79.92,0,0,0,12.28.2c4.46-.33,8.91-.46,13.39-.59,8.94-.25,17.86-1.25,25.05-7.13C524,883.08,521.25,880.37,519.44,881.79Z" fill="#fff200" stroke="#fff200" stroke-miterlimit="10"/>
      <path d="M526.28,885.32a96.13,96.13,0,0,0,21.05-10.82,1.91,1.91,0,0,0,.59-2.64,1.85,1.85,0,0,0-1.07-.81,39.21,39.21,0,0,0-10.38-1.49l1.35,3.22a39,39,0,0,1,18.41-10.6,1.88,1.88,0,0,0,1.26-2.35h0a1.11,1.11,0,0,0-.16-.39l-1.93-3c-1.25-2-4.56-.14-3.21,1.91l1.92,3,1.07-2.77a42.88,42.88,0,0,0-20.1,11.57,1.92,1.92,0,0,0,.07,2.7h0a2.06,2.06,0,0,0,1.27.52,34,34,0,0,1,9.4,1.25l-.45-3.45a91.32,91.32,0,0,1-20.09,10.44c-2.26.85-1.27,4.48,1,3.65Z" fill="#fff200" stroke="#fff200" stroke-miterlimit="10"/>
      <path d="M496.85,797.86l-3.22,4.85a18.09,18.09,0,0,1,5.1-.89l.92-1.36,1.51-2.21A34.51,34.51,0,0,1,496.85,797.86Z" fill="#fff200" stroke="#fff200" stroke-miterlimit="10"/>
      <path d="M588.81,781.56a15.93,15.93,0,0,1,3.7.5l.44-3.61c.29-2.4-3.48-2.37-3.77,0Z" fill="#fff200" stroke="#fff200" stroke-miterlimit="10"/>
      <path d="M575.55,835.63l.06-.11c.24-.33.61-.82.88-1.14l.09-.09.11-.09a9.62,9.62,0,0,1,1.14-.88l.21-.13c.39-.17,1-.43,1.34-.57h.19l.9-.12a6.58,6.58,0,0,0,2.51-3.42,3.84,3.84,0,0,0-.56-3.12c-.51-.73-1.37-1.25-1.61-2.14-.48-1.84,1.38-4.05,2.51-5.36l1-1.18a6.16,6.16,0,0,1-1.51-3,5.29,5.29,0,0,1-.24-1,27.49,27.49,0,0,0-4.91,7.12,5.78,5.78,0,0,0,.76,6.51c.22.28.75.63.86,1,.24.73-.94,1.5-1.53,2a20.19,20.19,0,0,1-11.71,4.4c-2.42.1-2.43,3.88,0,3.76l-.12.12A24.11,24.11,0,0,0,575.55,835.63Z" fill="#fff200" stroke="#fff200" stroke-miterlimit="10"/>
    </g>
    <g>
      <path d="M423.42,894.16h.09c4.77,0,9.39,1.92,13.62,4.18a1.89,1.89,0,0,0,1.08.31c1.07-.11,1.07-1.72.71-2.76l4.76,1.92a3.31,3.31,0,0,0,1.83.33,1.07,1.07,0,0,0,.95-1.17h0v-.17a72.24,72.24,0,0,0,8.34,3.59l.38-3.36a1.12,1.12,0,0,1,.31-.81c.33-.26.79-.11,1.19,0l7,3.13a1.15,1.15,0,0,0,.7.15c.94-.24,0-1.67.21-2.62s1.07-1.16,1.88-1.26a14.8,14.8,0,0,1,6.35.24c.55.14,1.26.27,1.58-.19a1.19,1.19,0,0,0,.17-.84v-3.09Z" fill="#fff200" stroke="#fff200" stroke-miterlimit="10"/>
      <path d="M477.18,888.71c0-3.68-5.74-3.69-5.72,0,0,.35.07.7.08,1.07a16.64,16.64,0,0,0-2.44-.22,13.54,13.54,0,0,0-4.29.48,4.67,4.67,0,0,0-3.05,2.64l-1.37-.6a15.63,15.63,0,0,0-4.6-1.73c-2.42-.18-3.39,1.33-3.82,3.22-1.57-.67-3.13-1.36-4.65-2.15a2.88,2.88,0,0,0-3.62.72c-.51-.17-1-.4-1.48-.58L439,890.29a2.23,2.23,0,0,0-1.79,0,1.7,1.7,0,0,1-.59.54l-.4.16a4.31,4.31,0,0,0-.6,1c-.44-.22-.87-.42-1.27-.67-1.4-.61-2.83-1.14-4.29-1.61a25.47,25.47,0,0,0-8.75-1.27,3,3,0,0,0-1.7,5.24h0a2.59,2.59,0,0,1,.88-.1,3.43,3.43,0,0,1,.89.18,6.14,6.14,0,0,1,1,.48,25.42,25.42,0,0,1,11.19,3.21c2,1,4.4,2.21,6.36.29a4.67,4.67,0,0,0,.36-.51,10.53,10.53,0,0,0,4,1.07,4.17,4.17,0,0,0,2.39-.61c2.15,1,4.42,1.93,6.68,2.74,1.94.7,3.44-1.07,3.64-2.76v-.69l2,.86a14.87,14.87,0,0,0,4.55,1.73,3.46,3.46,0,0,0,3.53-2.41v-1.76a12,12,0,0,1,2.54,0c1.27.08,2.54.62,3.82.59a3.75,3.75,0,0,0,3.48-2.43A14.16,14.16,0,0,0,477.18,888.71Z" fill="#fff200" stroke="#fff200" stroke-miterlimit="10"/>
    </g>
    <g>
      <path d="M462.75,855.16l24.5-10.52a29.87,29.87,0,0,0-7.69-3.77c1-1.68,3.34-1.84,5.25-2.38s3.94-2.5,2.87-4.18a4.28,4.28,0,0,0,4.29-.53c1.07-1.07.5-3.42-1-3.35l8.63-4.51c.91-.48,1.9-1.07,2.15-2a9.34,9.34,0,0,0-.09-2.36,6.25,6.25,0,0,1,1.95-3.93,100.53,100.53,0,0,1,20.15-18" fill="#fff200" stroke="#fff200" stroke-miterlimit="10"/>
      <path d="M464.1,857.6,488.65,847c2.09-.9,1.56-3.85,0-4.89a34,34,0,0,0-8.39-4l1.69,4.16c.39-.56,1.72-.64,2.3-.78a10.16,10.16,0,0,0,3.53-1.34c2.51-1.72,3.76-4.47,2.3-7.3L486.87,837c3,.82,7.1.3,8.14-3.22a4.72,4.72,0,0,0-2.86-6h0a4.1,4.1,0,0,0-1.25-.26l1.42,5.27,5.94-3.11a18.78,18.78,0,0,0,4.9-3,5,5,0,0,0,1.33-2.61c.16-.92-.18-1.77-.06-2.65.2-1.49,2-2.95,2.95-4A98.28,98.28,0,0,1,525.14,802c3-2,.16-6.94-2.86-4.89a105.86,105.86,0,0,0-18.15,15.51c-2.51,2.72-5.79,5.74-5.27,9.78.07.43,0,.73.15.48a1.9,1.9,0,0,1-.7.41c-1,.53-1.93,1.07-2.9,1.52l-5.94,3.11c-2.64,1.39-1.25,5.12,1.43,5.27.28,0-1.35-.39-1.27-.95a1.77,1.77,0,0,1,.35-.55c0,.17-1.42-.13-1.59-.18a2.85,2.85,0,0,0-3.45,2.07,2.8,2.8,0,0,0,.27,2.08c.09-.67.07-.9-.09-.66l-.08.08c.18,0-1,.65-.87.6-.72.27-1.54.34-2.28.54a7.93,7.93,0,0,0-4.77,3.22,2.82,2.82,0,0,0,1.07,3.85h0a2.89,2.89,0,0,0,.63.26,28.94,28.94,0,0,1,7,3.47v-4.88L461.3,852.65a2.8,2.8,0,0,0-1.07,3.83h0a2.9,2.9,0,0,0,3.87,1.08Z" fill="#fff200" stroke="#fff200" stroke-miterlimit="10"/>
    </g>
    <g>
      <path d="M518.93,885.81a10.18,10.18,0,0,0,4.06-1.25l6.44-2.9c-1.46-.19-2.84.65-4.29.79-.75.07-1.5,0-2.25,0-1.65.22-3,1.46-4.7,1.54" fill="#fff200" stroke="#fff200" stroke-miterlimit="10"/>
      <path d="M518.93,887.7a15.08,15.08,0,0,0,5.92-1.86l5.48-2.51a1.91,1.91,0,0,0,.87-2.15,2,2,0,0,0-1.82-1.38,9,9,0,0,0-3.29.53c-.24.07-.5.15-.75.2a.19.19,0,0,1-.24-.13h0a.06.06,0,0,1,0-.06h-1.65a21.33,21.33,0,0,0-3.22,1.07l-.65.3-.34.14h0c-.22.06-.44.14-.66.22l-.33.08h0a1.89,1.89,0,1,0,0,3.77h0a9.76,9.76,0,0,0,3.3-1l.65-.31c-.29.13.15,0,.21-.07l.68-1.65h.41s2.21,1.39,3.28,1.15c.49-.12,1-.3,1.48-.41.07,0,.78-.13.43-.11a4.69,4.69,0,0,1,.75,0l-1-3.49-5.08,2.3-1.25.59-.57.26-.3.12a7.91,7.91,0,0,1-1.16.39,2.37,2.37,0,0,0-.59.45H519s-1.88.53-1.88,1.57a1.89,1.89,0,0,0,1.87,1.89h0Z" fill="#fff200" stroke="#fff200" stroke-miterlimit="10"/>
    </g>
  </g>
</svg>
